Primae-Uc Cursive Light.ufo
<glyph name="exclam" format="2">
	<unicode hex="0021"/>
	<advance width="801"/>
	<outline>
		<contour>
			<point x="350" y="396" type="curve" smooth="yes"/>
			<point x="368" y="396"/>
			<point x="380" y="403"/>
			<point x="390" y="440" type="curve" smooth="yes"/>
			<point x="465" y="722"/>
			<point x="612" y="1229"/>
			<point x="703" y="1502" type="curve" smooth="yes"/>
			<point x="713" y="1533"/>
			<point x="721" y="1559"/>
			<point x="721" y="1568" type="curve" smooth="yes"/>
			<point x="721" y="1586"/>
			<point x="702" y="1600"/>
			<point x="681" y="1600" type="curve" smooth="yes"/>
			<point x="663" y="1600"/>
			<point x="652" y="1587"/>
			<point x="647" y="1571" type="curve" smooth="yes"/>
			<point x="535" y="1236"/>
			<point x="398" y="745"/>
			<point x="341" y="526" type="curve" smooth="yes"/>
			<point x="320" y="445"/>
			<point x="320" y="436"/>
			<point x="320" y="426" type="curve" smooth="yes"/>
			<point x="320" y="408"/>
			<point x="332" y="396"/>
		</contour>
		<contour>
			<point x="250" y="-11" type="curve" smooth="yes"/>
			<point x="298" y="-11"/>
			<point x="345" y="34"/>
			<point x="345" y="87" type="curve" smooth="yes"/>
			<point x="345" y="124"/>
			<point x="317" y="152"/>
			<point x="279" y="152" type="curve" smooth="yes"/>
			<point x="232" y="152"/>
			<point x="190" y="110"/>
			<point x="190" y="57" type="curve" smooth="yes"/>
			<point x="190" y="14"/>
			<point x="218" y="-11"/>
		</contour>
	</outline>
</glyph>
<glyph name="dollar" format="2">
	<unicode hex="0024"/>
	<advance width="1200"/>
	<outline>
		<contour>
			<point x="110" y="85" type="curve" smooth="yes"/>
			<point x="110" y="75"/>
			<point x="118" y="63"/>
			<point x="136" y="54" type="curve" smooth="yes"/>
			<point x="208" y="18"/>
			<point x="333" y="-7"/>
			<point x="461" y="-7" type="curve" smooth="yes"/>
			<point x="700" y="-7"/>
			<point x="915" y="142"/>
			<point x="915" y="393" type="curve" smooth="yes"/>
			<point x="915" y="537"/>
			<point x="848" y="651"/>
			<point x="647" y="768" type="curve"/>
			<point x="607" y="784" type="line"/>
			<point x="437" y="865"/>
			<point x="382" y="944"/>
			<point x="382" y="1061" type="curve" smooth="yes"/>
			<point x="382" y="1242"/>
			<point x="541" y="1363"/>
			<point x="754" y="1363" type="curve" smooth="yes"/>
			<point x="844" y="1363"/>
			<point x="930" y="1337"/>
			<point x="984" y="1312" type="curve" smooth="yes"/>
			<point x="1010" y="1300"/>
			<point x="1021" y="1299"/>
			<point x="1029" y="1299" type="curve" smooth="yes"/>
			<point x="1045" y="1299"/>
			<point x="1057" y="1314"/>
			<point x="1057" y="1329" type="curve" smooth="yes"/>
			<point x="1057" y="1346"/>
			<point x="1041" y="1364"/>
			<point x="977" y="1394" type="curve" smooth="yes"/>
			<point x="917" y="1422"/>
			<point x="839" y="1438"/>
			<point x="763" y="1438" type="curve" smooth="yes"/>
			<point x="488" y="1438"/>
			<point x="302" y="1278"/>
			<point x="302" y="1056" type="curve" smooth="yes"/>
			<point x="302" y="912"/>
			<point x="386" y="801"/>
			<point x="577" y="703" type="curve"/>
			<point x="622" y="687" type="line"/>
			<point x="784" y="599"/>
			<point x="838" y="505"/>
			<point x="838" y="389" type="curve" smooth="yes"/>
			<point x="838" y="183"/>
			<point x="658" y="68"/>
			<point x="469" y="68" type="curve" smooth="yes"/>
			<point x="351" y="68"/>
			<point x="283" y="83"/>
			<point x="193" y="113" type="curve" smooth="yes"/>
			<point x="178" y="118"/>
			<point x="162" y="123"/>
			<point x="143" y="123" type="curve" smooth="yes"/>
			<point x="121" y="123"/>
			<point x="110" y="102"/>
		</contour>
		<contour>
			<point x="365" y="-183" type="curve" smooth="yes"/>
			<point x="384" y="-183"/>
			<point x="396" y="-170"/>
			<point x="400" y="-156" type="curve" smooth="yes"/>
			<point x="881" y="1560" type="line" smooth="yes"/>
			<point x="882" y="1565"/>
			<point x="883" y="1571"/>
			<point x="883" y="1578" type="curve" smooth="yes"/>
			<point x="883" y="1596"/>
			<point x="865" y="1610"/>
			<point x="845" y="1610" type="curve" smooth="yes"/>
			<point x="830" y="1610"/>
			<point x="815" y="1601"/>
			<point x="810" y="1583" type="curve" smooth="yes"/>
			<point x="328" y="-133" type="line" smooth="yes"/>
			<point x="327" y="-138"/>
			<point x="326" y="-144"/>
			<point x="326" y="-149" type="curve" smooth="yes"/>
			<point x="326" y="-168"/>
			<point x="345" y="-183"/>
		</contour>
	</outline>
</glyph>
<glyph name="parenleft" format="2">
	<unicode hex="0028"/>
	<advance width="699"/>
	<outline>
		<contour>
			<point x="377" y="-295" type="curve" smooth="yes"/>
			<point x="392" y="-295"/>
			<point x="404" y="-283"/>
			<point x="404" y="-271" type="curve" smooth="yes"/>
			<point x="404" y="-262"/>
			<point x="401" y="-256"/>
			<point x="391" y="-241" type="curve" smooth="yes"/>
			<point x="381" y="-226"/>
			<point x="372" y="-211"/>
			<point x="364" y="-195" type="curve" smooth="yes"/>
			<point x="263" y="-3"/>
			<point x="225" y="160"/>
			<point x="225" y="382" type="curve" smooth="yes"/>
			<point x="225" y="716"/>
			<point x="380" y="1041"/>
			<point x="584" y="1295" type="curve" smooth="yes"/>
			<point x="624" y="1345"/>
			<point x="649" y="1378"/>
			<point x="649" y="1392" type="curve" smooth="yes"/>
			<point x="649" y="1410"/>
			<point x="631" y="1425"/>
			<point x="613" y="1425" type="curve" smooth="yes"/>
			<point x="583" y="1425"/>
			<point x="561" y="1405"/>
			<point x="506" y="1337" type="curve" smooth="yes"/>
			<point x="287" y="1064"/>
			<point x="150" y="736"/>
			<point x="150" y="396" type="curve" smooth="yes"/>
			<point x="150" y="112"/>
			<point x="227" y="-79"/>
			<point x="305" y="-213" type="curve" smooth="yes"/>
			<point x="339" y="-272"/>
			<point x="362" y="-295"/>
		</contour>
	</outline>
</glyph>
<glyph name="parenright" format="2">
	<unicode hex="0029"/>
	<advance width="686"/>
	<outline>
		<contour>
			<point x="315" y="1425" type="curve" smooth="yes"/>
			<point x="291" y="1425"/>
			<point x="264" y="1406"/>
			<point x="264" y="1383" type="curve" smooth="yes"/>
			<point x="264" y="1374"/>
			<point x="269" y="1364"/>
			<point x="280" y="1346" type="curve" smooth="yes"/>
			<point x="288" y="1333"/>
			<point x="301" y="1311"/>
			<point x="323" y="1272" type="curve" smooth="yes"/>
			<point x="415" y="1108"/>
			<point x="459" y="920"/>
			<point x="459" y="732" type="curve" smooth="yes"/>
			<point x="459" y="424"/>
			<point x="295" y="66"/>
			<point x="28" y="-183" type="curve" smooth="yes"/>
			<point x="-38" y="-245"/>
			<point x="-50" y="-257"/>
			<point x="-50" y="-268" type="curve" smooth="yes"/>
			<point x="-50" y="-286"/>
			<point x="-36" y="-295"/>
			<point x="-21" y="-295" type="curve" smooth="yes"/>
			<point x="0" y="-295"/>
			<point x="13" y="-286"/>
			<point x="87" y="-217" type="curve" smooth="yes"/>
			<point x="355" y="33"/>
			<point x="536" y="404"/>
			<point x="536" y="742" type="curve" smooth="yes"/>
			<point x="536" y="983"/>
			<point x="471" y="1214"/>
			<point x="382" y="1361" type="curve" smooth="yes"/>
			<point x="353" y="1409"/>
			<point x="337" y="1425"/>
		</contour>
	</outline>
</glyph>
<glyph name="slash" format="2">
	<unicode hex="002F"/>
	<advance width="919"/>
	<outline>
		<contour>
			<point x="38" y="-112" type="curve" smooth="yes"/>
			<point x="52" y="-112"/>
			<point x="64" y="-104"/>
			<point x="70" y="-93" type="curve" smooth="yes"/>
			<point x="913" y="1400" type="line" smooth="yes"/>
			<point x="916" y="1406"/>
			<point x="919" y="1413"/>
			<point x="919" y="1420" type="curve" smooth="yes"/>
			<point x="919" y="1441"/>
			<point x="902" y="1458"/>
			<point x="881" y="1458" type="curve" smooth="yes"/>
			<point x="867" y="1458"/>
			<point x="855" y="1450"/>
			<point x="849" y="1439" type="curve" smooth="yes"/>
			<point x="6" y="-54" type="line" smooth="yes"/>
			<point x="3" y="-60"/>
			<point x="0" y="-67"/>
			<point x="0" y="-74" type="curve" smooth="yes"/>
			<point x="0" y="-95"/>
			<point x="17" y="-112"/>
		</contour>
	</outline>
</glyph>
<glyph name="zero" format="2">
	<unicode hex="0030"/>
	<advance width="1139"/>
	<outline>
		<contour>
			<point x="418" y="-11" type="curve" smooth="yes"/>
			<point x="733" y="-11"/>
			<point x="1029" y="452"/>
			<point x="1029" y="976" type="curve" smooth="yes"/>
			<point x="1029" y="1276"/>
			<point x="906" y="1414"/>
			<point x="751" y="1414" type="curve" smooth="yes"/>
			<point x="436" y="1414"/>
			<point x="140" y="952"/>
			<point x="140" y="427" type="curve" smooth="yes"/>
			<point x="140" y="127"/>
			<point x="263" y="-11"/>
		</contour>
		<contour>
			<point x="434" y="67" type="curve" smooth="yes"/>
			<point x="321" y="67"/>
			<point x="220" y="171"/>
			<point x="220" y="441" type="curve" smooth="yes"/>
			<point x="220" y="901"/>
			<point x="489" y="1336"/>
			<point x="735" y="1336" type="curve" smooth="yes"/>
			<point x="848" y="1336"/>
			<point x="949" y="1232"/>
			<point x="949" y="962" type="curve" smooth="yes"/>
			<point x="949" y="502"/>
			<point x="679" y="67"/>
		</contour>
	</outline>
</glyph>
<glyph name="one" format="2">
	<unicode hex="0031"/>
	<advance width="884"/>
	<outline>
		<contour>
			<point x="399" y="-12" type="curve" smooth="yes"/>
			<point x="419" y="-12"/>
			<point x="429" y="-2"/>
			<point x="437" y="32" type="curve" smooth="yes"/>
			<point x="541" y="475"/>
			<point x="647" y="902"/>
			<point x="758" y="1269" type="curve" smooth="yes"/>
			<point x="777" y="1333"/>
			<point x="784" y="1359"/>
			<point x="784" y="1377" type="curve" smooth="yes"/>
			<point x="784" y="1396"/>
			<point x="774" y="1410"/>
			<point x="751" y="1410" type="curve" smooth="yes"/>
			<point x="739" y="1410"/>
			<point x="728" y="1404"/>
			<point x="708" y="1391" type="curve" smooth="yes"/>
			<point x="582" y="1310"/>
			<point x="390" y="1205"/>
			<point x="169" y="1100" type="curve" smooth="yes"/>
			<point x="135" y="1084"/>
			<point x="130" y="1073"/>
			<point x="130" y="1062" type="curve" smooth="yes"/>
			<point x="130" y="1042"/>
			<point x="145" y="1024"/>
			<point x="164" y="1024" type="curve" smooth="yes"/>
			<point x="175" y="1024"/>
			<point x="186" y="1026"/>
			<point x="226" y="1045" type="curve" smooth="yes"/>
			<point x="426" y="1140"/>
			<point x="604" y="1237"/>
			<point x="731" y="1319" type="curve"/>
			<point x="700" y="1337" type="line"/>
			<point x="583" y="934"/>
			<point x="472" y="523"/>
			<point x="366" y="86" type="curve" smooth="yes"/>
			<point x="357" y="48"/>
			<point x="354" y="35"/>
			<point x="354" y="21" type="curve" smooth="yes"/>
			<point x="354" y="0"/>
			<point x="376" y="-12"/>
		</contour>
	</outline>
</glyph>
<glyph name="two" format="2">
	<unicode hex="0032"/>
	<advance width="1160"/>
	<outline>
		<contour>
			<point x="681" y="-11" type="curve" smooth="yes"/>
			<point x="803" y="-11"/>
			<point x="897" y="51"/>
			<point x="938" y="94" type="curve" smooth="yes"/>
			<point x="956" y="113"/>
			<point x="966" y="130"/>
			<point x="966" y="140" type="curve" smooth="yes"/>
			<point x="966" y="152"/>
			<point x="951" y="167"/>
			<point x="936" y="167" type="curve" smooth="yes"/>
			<point x="925" y="167"/>
			<point x="914" y="159"/>
			<point x="896" y="143" type="curve" smooth="yes"/>
			<point x="837" y="92"/>
			<point x="763" y="63"/>
			<point x="689" y="63" type="curve" smooth="yes"/>
			<point x="603" y="63"/>
			<point x="526" y="90"/>
			<point x="450" y="128" type="curve" smooth="yes"/>
			<point x="382" y="162"/>
			<point x="296" y="205"/>
			<point x="200" y="205" type="curve" smooth="yes"/>
			<point x="83" y="205"/>
			<point x="20" y="137"/>
			<point x="20" y="75" type="curve" smooth="yes"/>
			<point x="20" y="24"/>
			<point x="62" y="-11"/>
			<point x="118" y="-11" type="curve" smooth="yes"/>
			<point x="361" y="-11"/>
			<point x="1010" y="652"/>
			<point x="1010" y="1089" type="curve" smooth="yes"/>
			<point x="1010" y="1293"/>
			<point x="870" y="1410"/>
			<point x="683" y="1410" type="curve" smooth="yes"/>
			<point x="501" y="1410"/>
			<point x="360" y="1315"/>
			<point x="272" y="1214" type="curve" smooth="yes"/>
			<point x="254" y="1193"/>
			<point x="247" y="1175"/>
			<point x="247" y="1167" type="curve" smooth="yes"/>
			<point x="247" y="1153"/>
			<point x="268" y="1129"/>
			<point x="290" y="1129" type="curve" smooth="yes"/>
			<point x="305" y="1129"/>
			<point x="313" y="1137"/>
			<point x="332" y="1158" type="curve" smooth="yes"/>
			<point x="408" y="1245"/>
			<point x="526" y="1330"/>
			<point x="670" y="1330" type="curve" smooth="yes"/>
			<point x="810" y="1330"/>
			<point x="925" y="1250"/>
			<point x="925" y="1077" type="curve" smooth="yes"/>
			<point x="925" y="680"/>
			<point x="308" y="54"/>
			<point x="130" y="54" type="curve" smooth="yes"/>
			<point x="105" y="54"/>
			<point x="91" y="65"/>
			<point x="91" y="82" type="curve" smooth="yes"/>
			<point x="91" y="111"/>
			<point x="133" y="140"/>
			<point x="201" y="140" type="curve" smooth="yes"/>
			<point x="275" y="140"/>
			<point x="345" y="106"/>
			<point x="416" y="71" type="curve" smooth="yes"/>
			<point x="499" y="30"/>
			<point x="583" y="-11"/>
		</contour>
	</outline>
</glyph>
<glyph name="three" format="2">
	<unicode hex="0033"/>
	<advance width="1102"/>
	<outline>
		<contour>
			<point x="420" y="-13" type="curve" smooth="yes"/>
			<point x="693" y="-13"/>
			<point x="892" y="156"/>
			<point x="892" y="397" type="curve" smooth="yes"/>
			<point x="892" y="579"/>
			<point x="778" y="706"/>
			<point x="602" y="755" type="curve"/>
			<point x="597" y="734" type="line"/>
			<point x="829" y="798"/>
			<point x="982" y="953"/>
			<point x="982" y="1128" type="curve" smooth="yes"/>
			<point x="982" y="1300"/>
			<point x="834" y="1410"/>
			<point x="659" y="1410" type="curve" smooth="yes"/>
			<point x="515" y="1410"/>
			<point x="379" y="1351"/>
			<point x="302" y="1278" type="curve" smooth="yes"/>
			<point x="285" y="1262"/>
			<point x="280" y="1254"/>
			<point x="280" y="1243" type="curve" smooth="yes"/>
			<point x="280" y="1223"/>
			<point x="299" y="1207"/>
			<point x="316" y="1207" type="curve" smooth="yes"/>
			<point x="328" y="1207"/>
			<point x="340" y="1214"/>
			<point x="361" y="1230" type="curve" smooth="yes"/>
			<point x="438" y="1288"/>
			<point x="536" y="1330"/>
			<point x="654" y="1330" type="curve" smooth="yes"/>
			<point x="796" y="1330"/>
			<point x="902" y="1251"/>
			<point x="902" y="1118" type="curve" smooth="yes"/>
			<point x="902" y="974"/>
			<point x="777" y="842"/>
			<point x="544" y="777" type="curve"/>
			<point x="515" y="782"/>
			<point x="474" y="788"/>
			<point x="451" y="788" type="curve" smooth="yes"/>
			<point x="409" y="788"/>
			<point x="389" y="768"/>
			<point x="389" y="736" type="curve" smooth="yes"/>
			<point x="389" y="705"/>
			<point x="407" y="692"/>
			<point x="437" y="692" type="curve" smooth="yes"/>
			<point x="460" y="692"/>
			<point x="506" y="700"/>
			<point x="538" y="708" type="curve"/>
			<point x="724" y="663"/>
			<point x="812" y="552"/>
			<point x="812" y="406" type="curve" smooth="yes"/>
			<point x="812" y="206"/>
			<point x="656" y="67"/>
			<point x="430" y="67" type="curve" smooth="yes"/>
			<point x="280" y="67"/>
			<point x="162" y="107"/>
			<point x="86" y="167" type="curve" smooth="yes"/>
			<point x="69" y="181"/>
			<point x="60" y="184"/>
			<point x="54" y="184" type="curve" smooth="yes"/>
			<point x="40" y="184"/>
			<point x="20" y="166"/>
			<point x="20" y="149" type="curve" smooth="yes"/>
			<point x="20" y="135"/>
			<point x="34" y="115"/>
			<point x="55" y="98" type="curve" smooth="yes"/>
			<point x="114" y="50"/>
			<point x="257" y="-13"/>
		</contour>
	</outline>
</glyph>
<glyph name="four" format="2">
	<unicode hex="0034"/>
	<advance width="1160"/>
	<outline>
		<contour>
			<point x="641" y="31" type="curve" smooth="yes"/>
			<point x="694" y="292"/>
			<point x="780" y="630"/>
			<point x="838" y="825" type="curve" smooth="yes"/>
			<point x="850" y="865"/>
			<point x="852" y="880"/>
			<point x="852" y="889" type="curve" smooth="yes"/>
			<point x="852" y="909"/>
			<point x="832" y="921"/>
			<point x="811" y="921" type="curve" smooth="yes"/>
			<point x="792" y="921"/>
			<point x="782" y="909"/>
			<point x="769" y="865" type="curve" smooth="yes"/>
			<point x="700" y="632"/>
			<point x="623" y="318"/>
			<point x="572" y="71" type="curve" smooth="yes"/>
			<point x="565" y="37"/>
			<point x="564" y="28"/>
			<point x="564" y="21" type="curve" smooth="yes"/>
			<point x="564" y="0"/>
			<point x="583" y="-11"/>
			<point x="604" y="-11" type="curve" smooth="yes"/>
			<point x="622" y="-11"/>
			<point x="635" y="2"/>
		</contour>
		<contour>
			<point x="215" y="441" type="curve" smooth="yes"/>
			<point x="269" y="441"/>
			<point x="979" y="449"/>
			<point x="1031" y="450" type="curve" smooth="yes"/>
			<point x="1065" y="451"/>
			<point x="1080" y="466"/>
			<point x="1080" y="487" type="curve" smooth="yes"/>
			<point x="1080" y="511"/>
			<point x="1068" y="526"/>
			<point x="1025" y="526" type="curve" smooth="yes"/>
			<point x="908" y="526"/>
			<point x="401" y="516"/>
			<point x="183" y="511" type="curve"/>
			<point x="207" y="488" type="line"/>
			<point x="378" y="765"/>
			<point x="546" y="1065"/>
			<point x="681" y="1326" type="curve" smooth="yes"/>
			<point x="700" y="1363"/>
			<point x="704" y="1375"/>
			<point x="704" y="1385" type="curve" smooth="yes"/>
			<point x="704" y="1405"/>
			<point x="684" y="1421"/>
			<point x="662" y="1421" type="curve" smooth="yes"/>
			<point x="648" y="1421"/>
			<point x="637" y="1412"/>
			<point x="621" y="1381" type="curve" smooth="yes"/>
			<point x="474" y="1096"/>
			<point x="309" y="795"/>
			<point x="174" y="575" type="curve" smooth="yes"/>
			<point x="147" y="531"/>
			<point x="140" y="512"/>
			<point x="140" y="496" type="curve" smooth="yes"/>
			<point x="140" y="459"/>
			<point x="169" y="441"/>
		</contour>
	</outline>
</glyph>
<glyph name="five" format="2">
	<unicode hex="0035"/>
	<advance width="1081"/>
	<outline>
		<contour>
			<point x="394" y="-11" type="curve" smooth="yes"/>
			<point x="679" y="-11"/>
			<point x="898" y="217"/>
			<point x="898" y="513" type="curve" smooth="yes"/>
			<point x="898" y="762"/>
			<point x="731" y="874"/>
			<point x="562" y="874" type="curve" smooth="yes"/>
			<point x="462" y="874"/>
			<point x="370" y="852"/>
			<point x="296" y="825" type="curve"/>
			<point x="305" y="801" type="line"/>
			<point x="442" y="1330" type="line"/>
			<point x="502" y="1327"/>
			<point x="565" y="1324"/>
			<point x="657" y="1324" type="curve" smooth="yes"/>
			<point x="770" y="1324"/>
			<point x="925" y="1328"/>
			<point x="976" y="1333" type="curve" smooth="yes"/>
			<point x="1027" y="1338"/>
			<point x="1041" y="1351"/>
			<point x="1041" y="1374" type="curve" smooth="yes"/>
			<point x="1041" y="1400"/>
			<point x="1024" y="1407"/>
			<point x="998" y="1407" type="curve" smooth="yes"/>
			<point x="984" y="1407"/>
			<point x="952" y="1406"/>
			<point x="932" y="1405" type="curve" smooth="yes"/>
			<point x="868" y="1402"/>
			<point x="719" y="1399"/>
			<point x="640" y="1399" type="curve" smooth="yes"/>
			<point x="584" y="1399"/>
			<point x="532" y="1400"/>
			<point x="504" y="1401" type="curve" smooth="yes"/>
			<point x="476" y="1402"/>
			<point x="448" y="1403"/>
			<point x="433" y="1403" type="curve" smooth="yes"/>
			<point x="391" y="1403"/>
			<point x="379" y="1392"/>
			<point x="370" y="1357" type="curve" smooth="yes"/>
			<point x="241" y="853" type="line" smooth="yes"/>
			<point x="235" y="830"/>
			<point x="233" y="819"/>
			<point x="233" y="809" type="curve" smooth="yes"/>
			<point x="233" y="777"/>
			<point x="253" y="761"/>
			<point x="280" y="761" type="curve" smooth="yes"/>
			<point x="290" y="761"/>
			<point x="302" y="763"/>
			<point x="330" y="771" type="curve" smooth="yes"/>
			<point x="380" y="785"/>
			<point x="456" y="801"/>
			<point x="537" y="801" type="curve" smooth="yes"/>
			<point x="691" y="801"/>
			<point x="819" y="710"/>
			<point x="819" y="502" type="curve" smooth="yes"/>
			<point x="819" y="247"/>
			<point x="628" y="66"/>
			<point x="390" y="66" type="curve" smooth="yes"/>
			<point x="270" y="66"/>
			<point x="149" y="108"/>
			<point x="75" y="168" type="curve" smooth="yes"/>
			<point x="58" y="182"/>
			<point x="50" y="185"/>
			<point x="44" y="185" type="curve" smooth="yes"/>
			<point x="30" y="185"/>
			<point x="10" y="167"/>
			<point x="10" y="150" type="curve" smooth="yes"/>
			<point x="10" y="138"/>
			<point x="22" y="120"/>
			<point x="41" y="103" type="curve" smooth="yes"/>
			<point x="95" y="55"/>
			<point x="220" y="-11"/>
		</contour>
	</outline>
</glyph>
<glyph name="six" format="2">
	<unicode hex="0036"/>
	<advance width="1088"/>
	<outline>
		<contour>
			<point x="932" y="1327" type="curve" smooth="yes"/>
			<point x="951" y="1319"/>
			<point x="963" y="1314"/>
			<point x="972" y="1314" type="curve" smooth="yes"/>
			<point x="993" y="1314"/>
			<point x="1008" y="1334"/>
			<point x="1008" y="1354" type="curve" smooth="yes"/>
			<point x="1008" y="1370"/>
			<point x="993" y="1383"/>
			<point x="957" y="1398" type="curve" smooth="yes"/>
			<point x="909" y="1418"/>
			<point x="871" y="1425"/>
			<point x="803" y="1425" type="curve" smooth="yes"/>
			<point x="479" y="1425"/>
			<point x="160" y="1001"/>
			<point x="160" y="468" type="curve" smooth="yes"/>
			<point x="160" y="164"/>
			<point x="289" y="-6"/>
			<point x="485" y="-6" type="curve" smooth="yes"/>
			<point x="719" y="-6"/>
			<point x="946" y="250"/>
			<point x="946" y="525" type="curve" smooth="yes"/>
			<point x="946" y="713"/>
			<point x="839" y="843"/>
			<point x="661" y="843" type="curve" smooth="yes"/>
			<point x="515" y="843"/>
			<point x="354" y="752"/>
			<point x="198" y="591" type="curve"/>
			<point x="235" y="551" type="line"/>
			<point x="376" y="688"/>
			<point x="514" y="768"/>
			<point x="645" y="768" type="curve" smooth="yes"/>
			<point x="782" y="768"/>
			<point x="866" y="664"/>
			<point x="866" y="513" type="curve" smooth="yes"/>
			<point x="866" y="290"/>
			<point x="676" y="68"/>
			<point x="494" y="68" type="curve" smooth="yes"/>
			<point x="348" y="68"/>
			<point x="240" y="203"/>
			<point x="240" y="469" type="curve" smooth="yes"/>
			<point x="240" y="958"/>
			<point x="527" y="1350"/>
			<point x="800" y="1350" type="curve" smooth="yes"/>
			<point x="856" y="1350"/>
			<point x="889" y="1345"/>
		</contour>
	</outline>
</glyph>
<glyph name="seven" format="2">
	<unicode hex="0037"/>
	<advance width="1120"/>
	<outline>
		<contour>
			<point x="281" y="28" type="curve" smooth="yes"/>
			<point x="401" y="287"/>
			<point x="534" y="517"/>
			<point x="689" y="747" type="curve" smooth="yes"/>
			<point x="828" y="953"/>
			<point x="973" y="1132"/>
			<point x="1121" y="1301" type="curve" smooth="yes"/>
			<point x="1156" y="1341"/>
			<point x="1160" y="1353"/>
			<point x="1160" y="1363" type="curve" smooth="yes"/>
			<point x="1160" y="1387"/>
			<point x="1141" y="1403"/>
			<point x="1112" y="1403" type="curve" smooth="yes"/>
			<point x="1098" y="1403"/>
			<point x="1075" y="1402"/>
			<point x="1025" y="1399" type="curve" smooth="yes"/>
			<point x="959" y="1395"/>
			<point x="836" y="1393"/>
			<point x="704" y="1393" type="curve" smooth="yes"/>
			<point x="582" y="1393"/>
			<point x="479" y="1395"/>
			<point x="405" y="1398" type="curve" smooth="yes"/>
			<point x="380" y="1399"/>
			<point x="340" y="1400"/>
			<point x="301" y="1400" type="curve" smooth="yes"/>
			<point x="271" y="1400"/>
			<point x="259" y="1387"/>
			<point x="259" y="1366" type="curve" smooth="yes"/>
			<point x="259" y="1344"/>
			<point x="277" y="1329"/>
			<point x="306" y="1327" type="curve" smooth="yes"/>
			<point x="379" y="1322"/>
			<point x="528" y="1319"/>
			<point x="678" y="1319" type="curve" smooth="yes"/>
			<point x="847" y="1319"/>
			<point x="964" y="1324"/>
			<point x="1093" y="1336" type="curve"/>
			<point x="1086" y="1356" type="line"/>
			<point x="904" y="1155"/>
			<point x="749" y="962"/>
			<point x="604" y="746" type="curve" smooth="yes"/>
			<point x="427" y="482"/>
			<point x="343" y="327"/>
			<point x="220" y="79" type="curve" smooth="yes"/>
			<point x="203" y="45"/>
			<point x="200" y="34"/>
			<point x="200" y="24" type="curve" smooth="yes"/>
			<point x="200" y="1"/>
			<point x="218" y="-11"/>
			<point x="239" y="-11" type="curve" smooth="yes"/>
			<point x="258" y="-11"/>
			<point x="268" y="0"/>
		</contour>
		<contour>
			<point x="595" y="688" type="curve" smooth="yes"/>
			<point x="703" y="688"/>
			<point x="790" y="691"/>
			<point x="867" y="697" type="curve" smooth="yes"/>
			<point x="922" y="701"/>
			<point x="939" y="716"/>
			<point x="939" y="740" type="curve" smooth="yes"/>
			<point x="939" y="754"/>
			<point x="928" y="764"/>
			<point x="908" y="764" type="curve" smooth="yes"/>
			<point x="893" y="764"/>
			<point x="875" y="763"/>
			<point x="821" y="761" type="curve" smooth="yes"/>
			<point x="767" y="759"/>
			<point x="700" y="758"/>
			<point x="623" y="758" type="curve" smooth="yes"/>
			<point x="558" y="758"/>
			<point x="499" y="759"/>
			<point x="440" y="761" type="curve" smooth="yes"/>
			<point x="381" y="763"/>
			<point x="330" y="764"/>
			<point x="313" y="764" type="curve" smooth="yes"/>
			<point x="287" y="764"/>
			<point x="279" y="751"/>
			<point x="279" y="736" type="curve" smooth="yes"/>
			<point x="279" y="714"/>
			<point x="294" y="698"/>
			<point x="321" y="695" type="curve" smooth="yes"/>
			<point x="357" y="691"/>
			<point x="446" y="688"/>
		</contour>
	</outline>
</glyph>
<glyph name="eight" format="2">
	<unicode hex="0038"/>
	<advance width="1151"/>
	<outline>
		<contour>
			<point x="326" y="1067" type="curve" smooth="yes"/>
			<point x="326" y="939"/>
			<point x="412" y="839"/>
			<point x="579" y="731" type="curve" smooth="yes"/>
			<point x="790" y="594"/>
			<point x="889" y="482"/>
			<point x="889" y="353" type="curve" smooth="yes"/>
			<point x="889" y="184"/>
			<point x="709" y="59"/>
			<point x="499" y="59" type="curve" smooth="yes"/>
			<point x="322" y="59"/>
			<point x="177" y="148"/>
			<point x="177" y="307" type="curve" smooth="yes"/>
			<point x="177" y="450"/>
			<point x="298" y="599"/>
			<point x="617" y="725" type="curve"/>
			<point x="559" y="769" type="line"/>
			<point x="214" y="631"/>
			<point x="100" y="466"/>
			<point x="100" y="296" type="curve" smooth="yes"/>
			<point x="100" y="102"/>
			<point x="276" y="-15"/>
			<point x="494" y="-15" type="curve" smooth="yes"/>
			<point x="746" y="-15"/>
			<point x="964" y="131"/>
			<point x="964" y="359" type="curve" smooth="yes"/>
			<point x="964" y="513"/>
			<point x="862" y="633"/>
			<point x="652" y="769" type="curve" smooth="yes"/>
			<point x="490" y="874"/>
			<point x="399" y="956"/>
			<point x="399" y="1072" type="curve" smooth="yes"/>
			<point x="399" y="1229"/>
			<point x="562" y="1352"/>
			<point x="733" y="1352" type="curve" smooth="yes"/>
			<point x="878" y="1352"/>
			<point x="996" y="1256"/>
			<point x="996" y="1133" type="curve" smooth="yes"/>
			<point x="996" y="996"/>
			<point x="857" y="881"/>
			<point x="601" y="783" type="curve"/>
			<point x="660" y="740" type="line"/>
			<point x="929" y="849"/>
			<point x="1071" y="975"/>
			<point x="1071" y="1148" type="curve" smooth="yes"/>
			<point x="1071" y="1302"/>
			<point x="936" y="1425"/>
			<point x="744" y="1425" type="curve" smooth="yes"/>
			<point x="486" y="1425"/>
			<point x="326" y="1240"/>
		</contour>
	</outline>
</glyph>
<glyph name="nine" format="2">
	<unicode hex="0039"/>
	<advance width="1031"/>
	<outline>
		<contour>
			<point x="863" y="769" type="curve"/>
			<point x="826" y="808" type="line"/>
			<point x="733" y="714"/>
			<point x="620" y="655"/>
			<point x="495" y="655" type="curve" smooth="yes"/>
			<point x="319" y="655"/>
			<point x="230" y="755"/>
			<point x="230" y="930" type="curve" smooth="yes"/>
			<point x="230" y="1165"/>
			<point x="411" y="1352"/>
			<point x="609" y="1352" type="curve" smooth="yes"/>
			<point x="758" y="1352"/>
			<point x="871" y="1260"/>
			<point x="871" y="1062" type="curve" smooth="yes"/>
			<point x="871" y="840"/>
			<point x="750" y="575"/>
			<point x="260" y="69" type="curve" smooth="yes"/>
			<point x="234" y="43"/>
			<point x="228" y="36"/>
			<point x="228" y="21" type="curve" smooth="yes"/>
			<point x="228" y="2"/>
			<point x="249" y="-14"/>
			<point x="265" y="-14" type="curve" smooth="yes"/>
			<point x="277" y="-14"/>
			<point x="287" y="-9"/>
			<point x="308" y="12" type="curve" smooth="yes"/>
			<point x="825" y="542"/>
			<point x="951" y="813"/>
			<point x="951" y="1083" type="curve" smooth="yes"/>
			<point x="951" y="1300"/>
			<point x="816" y="1422"/>
			<point x="628" y="1422" type="curve" smooth="yes"/>
			<point x="368" y="1422"/>
			<point x="150" y="1197"/>
			<point x="150" y="914" type="curve" smooth="yes"/>
			<point x="150" y="712"/>
			<point x="286" y="585"/>
			<point x="479" y="585" type="curve" smooth="yes"/>
			<point x="622" y="585"/>
			<point x="739" y="643"/>
		</contour>
	</outline>
</glyph>
<glyph name="question" format="2">
	<unicode hex="003F"/>
	<advance width="1001"/>
	<outline>
		<contour>
			<point x="457" y="396" type="curve" smooth="yes"/>
			<point x="536" y="396"/>
			<point x="607" y="421"/>
			<point x="666" y="460" type="curve" smooth="yes"/>
			<point x="694" y="479"/>
			<point x="702" y="494"/>
			<point x="702" y="503" type="curve" smooth="yes"/>
			<point x="702" y="518"/>
			<point x="690" y="531"/>
			<point x="677" y="531" type="curve" smooth="yes"/>
			<point x="668" y="531"/>
			<point x="660" y="527"/>
			<point x="643" y="517" type="curve" smooth="yes"/>
			<point x="591" y="487"/>
			<point x="530" y="471"/>
			<point x="472" y="471" type="curve" smooth="yes"/>
			<point x="382" y="471"/>
			<point x="336" y="516"/>
			<point x="336" y="592" type="curve" smooth="yes"/>
			<point x="336" y="691"/>
			<point x="393" y="770"/>
			<point x="632" y="931" type="curve" smooth="yes"/>
			<point x="910" y="1118"/>
			<point x="981" y="1229"/>
			<point x="981" y="1374" type="curve" smooth="yes"/>
			<point x="981" y="1510"/>
			<point x="864" y="1621"/>
			<point x="697" y="1621" type="curve" smooth="yes"/>
			<point x="570" y="1621"/>
			<point x="461" y="1574"/>
			<point x="377" y="1512" type="curve" smooth="yes"/>
			<point x="361" y="1500"/>
			<point x="338" y="1482"/>
			<point x="338" y="1462" type="curve" smooth="yes"/>
			<point x="338" y="1443"/>
			<point x="357" y="1433"/>
			<point x="367" y="1433" type="curve" smooth="yes"/>
			<point x="381" y="1433"/>
			<point x="396" y="1443"/>
			<point x="418" y="1458" type="curve" smooth="yes"/>
			<point x="501" y="1514"/>
			<point x="598" y="1546"/>
			<point x="682" y="1546" type="curve" smooth="yes"/>
			<point x="810" y="1546"/>
			<point x="901" y="1474"/>
			<point x="901" y="1361" type="curve" smooth="yes"/>
			<point x="901" y="1253"/>
			<point x="844" y="1170"/>
			<point x="594" y="1000" type="curve" smooth="yes"/>
			<point x="319" y="813"/>
			<point x="256" y="715"/>
			<point x="256" y="587" type="curve" smooth="yes"/>
			<point x="256" y="480"/>
			<point x="341" y="396"/>
		</contour>
		<contour>
			<point x="329" y="-12" type="curve" smooth="yes"/>
			<point x="377" y="-12"/>
			<point x="424" y="33"/>
			<point x="424" y="86" type="curve" smooth="yes"/>
			<point x="424" y="123"/>
			<point x="396" y="151"/>
			<point x="358" y="151" type="curve" smooth="yes"/>
			<point x="311" y="151"/>
			<point x="269" y="109"/>
			<point x="269" y="56" type="curve" smooth="yes"/>
			<point x="269" y="13"/>
			<point x="297" y="-12"/>
		</contour>
	</outline>
</glyph>
<glyph name="B" format="2">
	<unicode hex="0042"/>
	<advance width="1175"/>
	<outline>
		<contour>
			<point x="209" y="48" type="line"/>
			<point x="561" y="1364" type="line"/>
			<point x="481" y="1355" type="line"/>
			<point x="132" y="60" type="line"/>
		</contour>
		<contour>
			<point x="433" y="764" type="curve" smooth="yes"/>
			<point x="384" y="764" type="line"/>
			<point x="359" y="694" type="line"/>
			<point x="691" y="694"/>
			<point x="874" y="580"/>
			<point x="874" y="400" type="curve" smooth="yes"/>
			<point x="874" y="183"/>
			<point x="617" y="63"/>
			<point x="357" y="63" type="curve" smooth="yes"/>
			<point x="235" y="63"/>
			<point x="144" y="80"/>
			<point x="80" y="101" type="curve" smooth="yes"/>
			<point x="46" y="112"/>
			<point x="41" y="116"/>
			<point x="34" y="116" type="curve" smooth="yes"/>
			<point x="14" y="116"/>
			<point x="0" y="99"/>
			<point x="0" y="81" type="curve" smooth="yes"/>
			<point x="0" y="37"/>
			<point x="168" y="-11"/>
			<point x="371" y="-11" type="curve" smooth="yes"/>
			<point x="666" y="-11"/>
			<point x="954" y="138"/>
			<point x="954" y="395" type="curve" smooth="yes"/>
			<point x="954" y="574"/>
			<point x="821" y="697"/>
			<point x="585" y="731" type="curve"/>
			<point x="585" y="720" type="line"/>
			<point x="855" y="731"/>
			<point x="1061" y="885"/>
			<point x="1061" y="1095" type="curve" smooth="yes"/>
			<point x="1061" y="1280"/>
			<point x="879" y="1425"/>
			<point x="631" y="1425" type="curve" smooth="yes"/>
			<point x="501" y="1425"/>
			<point x="366" y="1403"/>
			<point x="366" y="1366" type="curve" smooth="yes"/>
			<point x="366" y="1353"/>
			<point x="377" y="1337"/>
			<point x="388" y="1337" type="curve" smooth="yes"/>
			<point x="400" y="1337"/>
			<point x="458" y="1344"/>
			<point x="491" y="1346" type="curve" smooth="yes"/>
			<point x="525" y="1348"/>
			<point x="559" y="1350"/>
			<point x="603" y="1350" type="curve" smooth="yes"/>
			<point x="823" y="1350"/>
			<point x="982" y="1249"/>
			<point x="982" y="1085" type="curve" smooth="yes"/>
			<point x="982" y="892"/>
			<point x="781" y="764"/>
		</contour>
	</outline>
	<anchor name="bottom" x="405" y="0"/>
	<anchor name="center" x="362" y="722"/>
	<anchor name="top" x="713" y="1400"/>
</glyph>
<glyph name="C" format="2">
	<unicode hex="0043"/>
	<advance width="688"/>
	<outline>
		<contour>
			<point x="622" y="-12" type="curve" smooth="yes"/>
			<point x="664" y="-12"/>
			<point x="695" y="1"/>
			<point x="695" y="32" type="curve" smooth="yes"/>
			<point x="695" y="54"/>
			<point x="663" y="63"/>
			<point x="634" y="63" type="curve" smooth="yes"/>
			<point x="424" y="63"/>
			<point x="260" y="202"/>
			<point x="260" y="509" type="curve" smooth="yes"/>
			<point x="260" y="924"/>
			<point x="525" y="1358"/>
			<point x="854" y="1358" type="curve" smooth="yes"/>
			<point x="947" y="1358"/>
			<point x="1020" y="1326"/>
			<point x="1080" y="1268" type="curve" smooth="yes"/>
			<point x="1102" y="1247"/>
			<point x="1112" y="1242"/>
			<point x="1122" y="1242" type="curve" smooth="yes"/>
			<point x="1137" y="1242"/>
			<point x="1152" y="1258"/>
			<point x="1152" y="1270" type="curve" smooth="yes"/>
			<point x="1152" y="1285"/>
			<point x="1144" y="1304"/>
			<point x="1111" y="1334" type="curve" smooth="yes"/>
			<point x="1051" y="1389"/>
			<point x="956" y="1433"/>
			<point x="848" y="1433" type="curve" smooth="yes"/>
			<point x="482" y="1433"/>
			<point x="180" y="970"/>
			<point x="180" y="512" type="curve" smooth="yes"/>
			<point x="180" y="165"/>
			<point x="380" y="-12"/>
		</contour>
	</outline>
	<anchor name="bottom" x="638" y="0"/>
	<anchor name="top" x="860" y="1400"/>
</glyph>
<glyph name="D" format="2">
	<unicode hex="0044"/>
	<advance width="1288"/>
	<outline>
		<contour>
			<point x="0" y="81" type="curve" smooth="yes"/>
			<point x="0" y="38"/>
			<point x="171" y="-11"/>
			<point x="319" y="-11" type="curve" smooth="yes"/>
			<point x="739" y="-11"/>
			<point x="1138" y="322"/>
			<point x="1138" y="808" type="curve" smooth="yes"/>
			<point x="1138" y="1245"/>
			<point x="864" y="1425"/>
			<point x="619" y="1425" type="curve" smooth="yes"/>
			<point x="487" y="1425"/>
			<point x="365" y="1403"/>
			<point x="365" y="1366" type="curve" smooth="yes"/>
			<point x="365" y="1353"/>
			<point x="376" y="1337"/>
			<point x="387" y="1337" type="curve" smooth="yes"/>
			<point x="400" y="1337"/>
			<point x="468" y="1343"/>
			<point x="503" y="1345" type="curve" smooth="yes"/>
			<point x="532" y="1347"/>
			<point x="560" y="1350"/>
			<point x="602" y="1350" type="curve" smooth="yes"/>
			<point x="829" y="1350"/>
			<point x="1058" y="1177"/>
			<point x="1058" y="804" type="curve" smooth="yes"/>
			<point x="1058" y="378"/>
			<point x="714" y="62"/>
			<point x="329" y="62" type="curve" smooth="yes"/>
			<point x="225" y="62"/>
			<point x="140" y="82"/>
			<point x="80" y="101" type="curve" smooth="yes"/>
			<point x="46" y="112"/>
			<point x="41" y="116"/>
			<point x="34" y="116" type="curve" smooth="yes"/>
			<point x="14" y="116"/>
			<point x="0" y="99"/>
		</contour>
		<contour>
			<point x="208" y="42" type="line"/>
			<point x="560" y="1367" type="line"/>
			<point x="482" y="1365" type="line"/>
			<point x="128" y="44" type="line"/>
		</contour>
	</outline>
	<anchor name="bottom" x="301" y="0"/>
	<anchor name="center" x="382" y="731"/>
	<anchor name="top" x="767" y="1400"/>
</glyph>
<glyph name="E" format="2">
	<unicode hex="0045"/>
	<advance width="570"/>
	<outline>
		<contour>
			<point x="475" y="-12" type="curve" smooth="yes"/>
			<point x="532" y="-12"/>
			<point x="557" y="1"/>
			<point x="557" y="30" type="curve" smooth="yes"/>
			<point x="557" y="55"/>
			<point x="539" y="63"/>
			<point x="517" y="63" type="curve" smooth="yes"/>
			<point x="322" y="63"/>
			<point x="166" y="169"/>
			<point x="166" y="348" type="curve" smooth="yes"/>
			<point x="166" y="534"/>
			<point x="324" y="681"/>
			<point x="533" y="724" type="curve"/>
			<point x="563" y="715"/>
			<point x="600" y="709"/>
			<point x="621" y="709" type="curve" smooth="yes"/>
			<point x="669" y="709"/>
			<point x="689" y="741"/>
			<point x="689" y="769" type="curve" smooth="yes"/>
			<point x="689" y="790"/>
			<point x="677" y="805"/>
			<point x="651" y="805" type="curve" smooth="yes"/>
			<point x="631" y="805"/>
			<point x="573" y="796"/>
			<point x="553" y="791" type="curve"/>
			<point x="436" y="832"/>
			<point x="346" y="914"/>
			<point x="346" y="1039" type="curve" smooth="yes"/>
			<point x="346" y="1203"/>
			<point x="493" y="1350"/>
			<point x="694" y="1350" type="curve" smooth="yes"/>
			<point x="820" y="1350"/>
			<point x="916" y="1294"/>
			<point x="939" y="1281" type="curve" smooth="yes"/>
			<point x="963" y="1267"/>
			<point x="974" y="1261"/>
			<point x="984" y="1261" type="curve" smooth="yes"/>
			<point x="1001" y="1261"/>
			<point x="1020" y="1280"/>
			<point x="1020" y="1299" type="curve" smooth="yes"/>
			<point x="1020" y="1312"/>
			<point x="1011" y="1325"/>
			<point x="971" y="1349" type="curve" smooth="yes"/>
			<point x="891" y="1397"/>
			<point x="802" y="1425"/>
			<point x="701" y="1425" type="curve" smooth="yes"/>
			<point x="450" y="1425"/>
			<point x="267" y="1240"/>
			<point x="267" y="1046" type="curve" smooth="yes"/>
			<point x="267" y="921"/>
			<point x="338" y="818"/>
			<point x="467" y="759" type="curve"/>
			<point x="471" y="773" type="line"/>
			<point x="267" y="723"/>
			<point x="90" y="542"/>
			<point x="90" y="336" type="curve" smooth="yes"/>
			<point x="90" y="112"/>
			<point x="298" y="-12"/>
		</contour>
	</outline>
	<anchor name="bottom" x="477" y="0"/>
	<anchor name="ogonek" x="627" y="0"/>
	<anchor name="top" x="702" y="1400"/>
	<anchor name="topleft" x="434" y="1400"/>
</glyph>
<glyph name="F" format="2">
	<unicode hex="0046"/>
	<advance width="1137"/>
	<outline>
		<contour>
			<point x="178" y="34" type="curve" smooth="yes"/>
			<point x="260" y="412"/>
			<point x="381" y="881"/>
			<point x="521" y="1336" type="curve"/>
			<point x="443" y="1336" type="line"/>
			<point x="314" y="927"/>
			<point x="192" y="454"/>
			<point x="124" y="141" type="curve" smooth="yes"/>
			<point x="102" y="40"/>
			<point x="100" y="25"/>
			<point x="100" y="15" type="curve" smooth="yes"/>
			<point x="100" y="-3"/>
			<point x="117" y="-12"/>
			<point x="138" y="-12" type="curve" smooth="yes"/>
			<point x="156" y="-12"/>
			<point x="171" y="1"/>
		</contour>
		<contour>
			<point x="395" y="1323" type="curve" smooth="yes"/>
			<point x="441" y="1323"/>
			<point x="1002" y="1329"/>
			<point x="1096" y="1331" type="curve" smooth="yes"/>
			<point x="1129" y="1332"/>
			<point x="1147" y="1347"/>
			<point x="1147" y="1369" type="curve" smooth="yes"/>
			<point x="1147" y="1388"/>
			<point x="1132" y="1406"/>
			<point x="1110" y="1406" type="curve" smooth="yes"/>
			<point x="1015" y="1406"/>
			<point x="428" y="1398"/>
			<point x="397" y="1396" type="curve" smooth="yes"/>
			<point x="366" y="1394"/>
			<point x="349" y="1378"/>
			<point x="349" y="1358" type="curve" smooth="yes"/>
			<point x="349" y="1337"/>
			<point x="366" y="1323"/>
		</contour>
		<contour>
			<point x="628" y="753" type="curve" smooth="yes"/>
			<point x="345" y="748" type="line"/>
			<point x="331" y="673" type="line"/>
			<point x="414" y="676"/>
			<point x="782" y="681"/>
			<point x="839" y="681" type="curve" smooth="yes"/>
			<point x="872" y="681"/>
			<point x="892" y="698"/>
			<point x="892" y="721" type="curve" smooth="yes"/>
			<point x="892" y="739"/>
			<point x="875" y="756"/>
			<point x="851" y="756" type="curve" smooth="yes"/>
			<point x="812" y="756"/>
			<point x="722" y="755"/>
		</contour>
	</outline>
</glyph>
<glyph name="H" format="2">
	<unicode hex="0048"/>
	<advance width="1294"/>
	<outline>
		<contour>
			<point x="188" y="27" type="curve" smooth="yes"/>
			<point x="542" y="1336" type="line" smooth="yes"/>
			<point x="547" y="1354"/>
			<point x="550" y="1369"/>
			<point x="550" y="1377" type="curve" smooth="yes"/>
			<point x="550" y="1394"/>
			<point x="529" y="1406"/>
			<point x="508" y="1406" type="curve" smooth="yes"/>
			<point x="488" y="1406"/>
			<point x="479" y="1392"/>
			<point x="475" y="1376" type="curve" smooth="yes"/>
			<point x="121" y="74" type="line" smooth="yes"/>
			<point x="112" y="39"/>
			<point x="110" y="31"/>
			<point x="110" y="20" type="curve" smooth="yes"/>
			<point x="110" y="1"/>
			<point x="130" y="-12"/>
			<point x="152" y="-12" type="curve" smooth="yes"/>
			<point x="167" y="-12"/>
			<point x="180" y="-4"/>
		</contour>
		<contour>
			<point x="840" y="27" type="curve" smooth="yes"/>
			<point x="1194" y="1336" type="line" smooth="yes"/>
			<point x="1199" y="1354"/>
			<point x="1202" y="1369"/>
			<point x="1202" y="1377" type="curve" smooth="yes"/>
			<point x="1202" y="1394"/>
			<point x="1181" y="1406"/>
			<point x="1160" y="1406" type="curve" smooth="yes"/>
			<point x="1140" y="1406"/>
			<point x="1131" y="1392"/>
			<point x="1127" y="1376" type="curve" smooth="yes"/>
			<point x="773" y="74" type="line" smooth="yes"/>
			<point x="764" y="39"/>
			<point x="762" y="31"/>
			<point x="762" y="20" type="curve" smooth="yes"/>
			<point x="762" y="1"/>
			<point x="782" y="-12"/>
			<point x="804" y="-12" type="curve" smooth="yes"/>
			<point x="819" y="-12"/>
			<point x="832" y="-4"/>
		</contour>
	</outline>
	<anchor name="bottom" x="479" y="0"/>
	<anchor name="center" x="697" y="830"/>
	<anchor name="top" x="843" y="1406"/>
	<anchor name="topleft" x="402" y="1406"/>
</glyph>
<glyph name="I" format="2">
	<unicode hex="0049"/>
	<advance width="637"/>
	<outline>
		<contour>
			<point x="188" y="34" type="curve" smooth="yes"/>
			<point x="271" y="366"/>
			<point x="434" y="971"/>
			<point x="537" y="1336" type="curve" smooth="yes"/>
			<point x="542" y="1354"/>
			<point x="545" y="1369"/>
			<point x="545" y="1377" type="curve" smooth="yes"/>
			<point x="545" y="1394"/>
			<point x="524" y="1406"/>
			<point x="503" y="1406" type="curve" smooth="yes"/>
			<point x="483" y="1406"/>
			<point x="473" y="1392"/>
			<point x="468" y="1375" type="curve" smooth="yes"/>
			<point x="364" y="993"/>
			<point x="206" y="412"/>
			<point x="143" y="167" type="curve" smooth="yes"/>
			<point x="112" y="48"/>
			<point x="110" y="25"/>
			<point x="110" y="15" type="curve" smooth="yes"/>
			<point x="110" y="-3"/>
			<point x="127" y="-12"/>
			<point x="148" y="-12" type="curve" smooth="yes"/>
			<point x="166" y="-12"/>
			<point x="180" y="1"/>
		</contour>
	</outline>
	<anchor name="bottom" x="141" y="0"/>
	<anchor name="ogonek" x="66" y="0"/>
	<anchor name="top" x="513" y="1406"/>
	<anchor name="topleft" x="420" y="1406"/>
</glyph>
<glyph name="J" format="2">
	<unicode hex="004A"/>
	<advance width="460"/>
	<outline>
		<contour>
			<point x="340" y="46" type="curve"/>
			<point x="339" y="123" type="line"/>
			<point x="-90" y="-87"/>
			<point x="-169" y="-210"/>
			<point x="-169" y="-327" type="curve" smooth="yes"/>
			<point x="-169" y="-415"/>
			<point x="-93" y="-470"/>
			<point x="-5" y="-470" type="curve" smooth="yes"/>
			<point x="125" y="-470"/>
			<point x="281" y="-389"/>
			<point x="361" y="-29" type="curve" smooth="yes"/>
			<point x="467" y="450"/>
			<point x="606" y="1044"/>
			<point x="657" y="1202" type="curve" smooth="yes"/>
			<point x="692" y="1310"/>
			<point x="705" y="1353"/>
			<point x="705" y="1376" type="curve" smooth="yes"/>
			<point x="705" y="1393"/>
			<point x="697" y="1410"/>
			<point x="667" y="1410" type="curve" smooth="yes"/>
			<point x="658" y="1410"/>
			<point x="650" y="1409"/>
			<point x="621" y="1405" type="curve" smooth="yes"/>
			<point x="581" y="1400"/>
			<point x="525" y="1394"/>
			<point x="456" y="1394" type="curve" smooth="yes"/>
			<point x="412" y="1394"/>
			<point x="369" y="1397"/>
			<point x="312" y="1402" type="curve" smooth="yes"/>
			<point x="276" y="1405"/>
			<point x="264" y="1406"/>
			<point x="253" y="1406" type="curve" smooth="yes"/>
			<point x="232" y="1406"/>
			<point x="217" y="1391"/>
			<point x="217" y="1368" type="curve" smooth="yes"/>
			<point x="217" y="1347"/>
			<point x="235" y="1336"/>
			<point x="275" y="1330" type="curve" smooth="yes"/>
			<point x="321" y="1323"/>
			<point x="383" y="1319"/>
			<point x="439" y="1319" type="curve" smooth="yes"/>
			<point x="511" y="1319"/>
			<point x="580" y="1325"/>
			<point x="642" y="1340" type="curve"/>
			<point x="626" y="1354" type="line"/>
			<point x="502" y="970"/>
			<point x="422" y="604"/>
			<point x="273" y="-63" type="curve" smooth="yes"/>
			<point x="218" y="-312"/>
			<point x="105" y="-395"/>
			<point x="5" y="-395" type="curve" smooth="yes"/>
			<point x="-59" y="-395"/>
			<point x="-94" y="-367"/>
			<point x="-94" y="-321" type="curve" smooth="yes"/>
			<point x="-94" y="-234"/>
			<point x="-10" y="-115"/>
		</contour>
	</outline>
	<anchor name="bottom" x="0" y="-470"/>
	<anchor name="center" x="459" y="717"/>
	<anchor name="top" x="648" y="1405"/>
</glyph>
<glyph name="K" format="2">
	<unicode hex="004B"/>
	<advance width="991"/>
	<outline>
		<contour>
			<point x="188" y="35" type="curve" smooth="yes"/>
			<point x="273" y="393"/>
			<point x="439" y="1005"/>
			<point x="531" y="1339" type="curve" smooth="yes"/>
			<point x="536" y="1357"/>
			<point x="538" y="1370"/>
			<point x="538" y="1377" type="curve" smooth="yes"/>
			<point x="538" y="1394"/>
			<point x="516" y="1406"/>
			<point x="495" y="1406" type="curve" smooth="yes"/>
			<point x="474" y="1406"/>
			<point x="467" y="1393"/>
			<point x="461" y="1371" type="curve" smooth="yes"/>
			<point x="354" y="976"/>
			<point x="202" y="411"/>
			<point x="137" y="149" type="curve" smooth="yes"/>
			<point x="113" y="53"/>
			<point x="110" y="29"/>
			<point x="110" y="19" type="curve" smooth="yes"/>
			<point x="110" y="-2"/>
			<point x="129" y="-11"/>
			<point x="149" y="-11" type="curve" smooth="yes"/>
			<point x="167" y="-11"/>
			<point x="180" y="2"/>
		</contour>
		<contour>
			<point x="371" y="807" type="curve"/>
			<point x="341" y="674" type="line"/>
			<point x="390" y="589"/>
			<point x="462" y="465"/>
			<point x="570" y="304" type="curve" smooth="yes"/>
			<point x="730" y="66"/>
			<point x="799" y="-12"/>
			<point x="918" y="-12" type="curve" smooth="yes"/>
			<point x="958" y="-12"/>
			<point x="978" y="14"/>
			<point x="978" y="34" type="curve" smooth="yes"/>
			<point x="978" y="55"/>
			<point x="960" y="63"/>
			<point x="936" y="63" type="curve" smooth="yes"/>
			<point x="835" y="63"/>
			<point x="770" y="140"/>
			<point x="637" y="340" type="curve" smooth="yes"/>
			<point x="503" y="542"/>
			<point x="423" y="670"/>
			<point x="374" y="761" type="curve"/>
			<point x="362" y="724" type="line"/>
			<point x="647" y="910"/>
			<point x="910" y="1112"/>
			<point x="1148" y="1316" type="curve" smooth="yes"/>
			<point x="1185" y="1348"/>
			<point x="1192" y="1360"/>
			<point x="1192" y="1370" type="curve" smooth="yes"/>
			<point x="1192" y="1387"/>
			<point x="1174" y="1406"/>
			<point x="1157" y="1406" type="curve" smooth="yes"/>
			<point x="1147" y="1406"/>
			<point x="1137" y="1401"/>
			<point x="1091" y="1361" type="curve" smooth="yes"/>
			<point x="881" y="1181"/>
			<point x="628" y="988"/>
		</contour>
	</outline>
	<anchor name="bottom" x="472" y="0"/>
	<anchor name="top" x="830" y="1400"/>
	<anchor name="topleft" x="415" y="1400"/>
</glyph>
<glyph name="L" format="2">
	<unicode hex="004C"/>
	<advance width="855"/>
	<outline>
		<contour>
			<point x="0" y="88" type="curve" smooth="yes"/>
			<point x="0" y="23"/>
			<point x="50" y="-28"/>
			<point x="130" y="-28" type="curve" smooth="yes"/>
			<point x="215" y="-28"/>
			<point x="286" y="1"/>
			<point x="356" y="152" type="curve" smooth="yes"/>
			<point x="416" y="282"/>
			<point x="439" y="375"/>
			<point x="487" y="626" type="curve" smooth="yes"/>
			<point x="601" y="1224"/>
			<point x="738" y="1350"/>
			<point x="899" y="1350" type="curve" smooth="yes"/>
			<point x="959" y="1350"/>
			<point x="1018" y="1327"/>
			<point x="1084" y="1285" type="curve" smooth="yes"/>
			<point x="1102" y="1273"/>
			<point x="1111" y="1270"/>
			<point x="1118" y="1270" type="curve" smooth="yes"/>
			<point x="1133" y="1270"/>
			<point x="1148" y="1285"/>
			<point x="1148" y="1301" type="curve" smooth="yes"/>
			<point x="1148" y="1315"/>
			<point x="1139" y="1331"/>
			<point x="1114" y="1350" type="curve" smooth="yes"/>
			<point x="1054" y="1396"/>
			<point x="976" y="1425"/>
			<point x="907" y="1425" type="curve" smooth="yes"/>
			<point x="707" y="1425"/>
			<point x="539" y="1306"/>
			<point x="413" y="649" type="curve" smooth="yes"/>
			<point x="366" y="404"/>
			<point x="335" y="272"/>
			<point x="289" y="171" type="curve" smooth="yes"/>
			<point x="247" y="78"/>
			<point x="200" y="47"/>
			<point x="141" y="47" type="curve" smooth="yes"/>
			<point x="99" y="47"/>
			<point x="77" y="64"/>
			<point x="77" y="92" type="curve" smooth="yes"/>
			<point x="77" y="124"/>
			<point x="109" y="151"/>
			<point x="169" y="151" type="curve" smooth="yes"/>
			<point x="242" y="151"/>
			<point x="291" y="136"/>
			<point x="415" y="85" type="curve" smooth="yes"/>
			<point x="529" y="38"/>
			<point x="659" y="-12"/>
			<point x="798" y="-12" type="curve" smooth="yes"/>
			<point x="835" y="-12"/>
			<point x="851" y="0"/>
			<point x="851" y="30" type="curve" smooth="yes"/>
			<point x="851" y="50"/>
			<point x="826" y="63"/>
			<point x="799" y="63" type="curve" smooth="yes"/>
			<point x="679" y="63"/>
			<point x="557" y="109"/>
			<point x="450" y="153" type="curve" smooth="yes"/>
			<point x="325" y="204"/>
			<point x="251" y="223"/>
			<point x="179" y="223" type="curve" smooth="yes"/>
			<point x="72" y="223"/>
			<point x="0" y="160"/>
		</contour>
	</outline>
	<anchor name="bottom" x="453" y="0"/>
	<anchor name="center" x="490" y="740"/>
	<anchor name="top" x="884" y="1406"/>
	<anchor name="topright" x="1150" y="1379"/>
</glyph>
<glyph name="M" format="2">
	<unicode hex="004D"/>
	<advance width="1602"/>
	<outline>
		<contour>
			<point x="15" y="-11" type="curve" smooth="yes"/>
			<point x="33" y="-11"/>
			<point x="50" y="-3"/>
			<point x="74" y="23" type="curve" smooth="yes"/>
			<point x="335" y="308"/>
			<point x="734" y="775"/>
			<point x="1026" y="1292" type="curve"/>
			<point x="1006" y="1308" type="line"/>
			<point x="951" y="954"/>
			<point x="842" y="389"/>
			<point x="820" y="280" type="curve" smooth="yes"/>
			<point x="813" y="245"/>
			<point x="811" y="232"/>
			<point x="811" y="225" type="curve" smooth="yes"/>
			<point x="811" y="204"/>
			<point x="830" y="192"/>
			<point x="851" y="192" type="curve" smooth="yes"/>
			<point x="869" y="192"/>
			<point x="878" y="201"/>
			<point x="900" y="228" type="curve" smooth="yes"/>
			<point x="1077" y="445"/>
			<point x="1343" y="778"/>
			<point x="1709" y="1297" type="curve"/>
			<point x="1692" y="1305" type="line"/>
			<point x="1464" y="567" type="line" smooth="yes"/>
			<point x="1406" y="379"/>
			<point x="1375" y="242"/>
			<point x="1375" y="160" type="curve" smooth="yes"/>
			<point x="1375" y="35"/>
			<point x="1448" y="-12"/>
			<point x="1528" y="-12" type="curve" smooth="yes"/>
			<point x="1555" y="-12"/>
			<point x="1579" y="5"/>
			<point x="1579" y="33" type="curve" smooth="yes"/>
			<point x="1579" y="51"/>
			<point x="1571" y="63"/>
			<point x="1549" y="63" type="curve" smooth="yes"/>
			<point x="1495" y="63"/>
			<point x="1454" y="86"/>
			<point x="1454" y="172" type="curve" smooth="yes"/>
			<point x="1454" y="255"/>
			<point x="1481" y="374"/>
			<point x="1532" y="546" type="curve" smooth="yes"/>
			<point x="1753" y="1291" type="line" smooth="yes"/>
			<point x="1770" y="1348"/>
			<point x="1774" y="1367"/>
			<point x="1774" y="1379" type="curve" smooth="yes"/>
			<point x="1774" y="1398"/>
			<point x="1757" y="1410"/>
			<point x="1736" y="1410" type="curve" smooth="yes"/>
			<point x="1715" y="1410"/>
			<point x="1706" y="1404"/>
			<point x="1663" y="1340" type="curve" smooth="yes"/>
			<point x="1518" y="1124"/>
			<point x="1062" y="516"/>
			<point x="863" y="284" type="curve"/>
			<point x="879" y="272" type="line"/>
			<point x="951" y="549"/>
			<point x="1035" y="1062"/>
			<point x="1062" y="1243" type="curve" smooth="yes"/>
			<point x="1073" y="1317"/>
			<point x="1076" y="1353"/>
			<point x="1076" y="1371" type="curve" smooth="yes"/>
			<point x="1076" y="1397"/>
			<point x="1060" y="1406"/>
			<point x="1036" y="1406" type="curve" smooth="yes"/>
			<point x="1023" y="1406"/>
			<point x="1014" y="1396"/>
			<point x="982" y="1341" type="curve" smooth="yes"/>
			<point x="701" y="856"/>
			<point x="318" y="383"/>
			<point x="44" y="98" type="curve" smooth="yes"/>
			<point x="4" y="56"/>
			<point x="-20" y="40"/>
			<point x="-20" y="20" type="curve" smooth="yes"/>
			<point x="-20" y="0"/>
			<point x="-7" y="-11"/>
		</contour>
	</outline>
	<anchor name="bottom" x="896" y="0"/>
	<anchor name="top" x="1379" y="1400"/>
</glyph>
<glyph name="N" format="2">
	<unicode hex="004E"/>
	<advance width="1369"/>
	<outline>
		<contour>
			<point x="466" y="1279" type="curve" smooth="yes"/>
			<point x="869" y="45" type="line" smooth="yes"/>
			<point x="885" y="-3"/>
			<point x="894" y="-11"/>
			<point x="914" y="-11" type="curve" smooth="yes"/>
			<point x="936" y="-11"/>
			<point x="946" y="-3"/>
			<point x="959" y="46" type="curve" smooth="yes"/>
			<point x="1026" y="298"/>
			<point x="1281" y="1197"/>
			<point x="1315" y="1315" type="curve" smooth="yes"/>
			<point x="1325" y="1348"/>
			<point x="1329" y="1367"/>
			<point x="1329" y="1375" type="curve" smooth="yes"/>
			<point x="1329" y="1395"/>
			<point x="1308" y="1406"/>
			<point x="1289" y="1406" type="curve" smooth="yes"/>
			<point x="1271" y="1406"/>
			<point x="1261" y="1393"/>
			<point x="1254" y="1370" type="curve" smooth="yes"/>
			<point x="1203" y="1209"/>
			<point x="956" y="308"/>
			<point x="906" y="98" type="curve"/>
			<point x="926" y="108" type="line"/>
			<point x="526" y="1352" type="line" smooth="yes"/>
			<point x="512" y="1395"/>
			<point x="504" y="1406"/>
			<point x="485" y="1406" type="curve" smooth="yes"/>
			<point x="459" y="1406"/>
			<point x="440" y="1393"/>
			<point x="440" y="1372" type="curve" smooth="yes"/>
			<point x="440" y="1355"/>
			<point x="448" y="1333"/>
		</contour>
		<contour>
			<point x="512" y="1233" type="curve"/>
			<point x="475" y="1350" type="line"/>
			<point x="375" y="967"/>
			<point x="181" y="291"/>
			<point x="120" y="73" type="curve" smooth="yes"/>
			<point x="112" y="45"/>
			<point x="110" y="34"/>
			<point x="110" y="24" type="curve" smooth="yes"/>
			<point x="110" y="0"/>
			<point x="130" y="-11"/>
			<point x="152" y="-11" type="curve" smooth="yes"/>
			<point x="168" y="-11"/>
			<point x="180" y="-3"/>
			<point x="188" y="25" type="curve" smooth="yes"/>
			<point x="249" y="242"/>
			<point x="432" y="922"/>
		</contour>
	</outline>
	<anchor name="bottom" x="555" y="-1"/>
	<anchor name="top" x="898" y="1400"/>
</glyph>
<glyph name="O" format="2">
	<unicode hex="004F"/>
	<advance width="1374"/>
	<outline>
		<contour>
			<point x="523" y="-11" type="curve" smooth="yes"/>
			<point x="884" y="-11"/>
			<point x="1224" y="517"/>
			<point x="1224" y="960" type="curve" smooth="yes"/>
			<point x="1224" y="1264"/>
			<point x="1069" y="1425"/>
			<point x="857" y="1425" type="curve" smooth="yes"/>
			<point x="498" y="1425"/>
			<point x="180" y="964"/>
			<point x="180" y="486" type="curve" smooth="yes"/>
			<point x="180" y="149"/>
			<point x="326" y="-11"/>
		</contour>
		<contour>
			<point x="531" y="64" type="curve" smooth="yes"/>
			<point x="371" y="64"/>
			<point x="260" y="204"/>
			<point x="260" y="480" type="curve" smooth="yes"/>
			<point x="260" y="905"/>
			<point x="537" y="1351"/>
			<point x="850" y="1351" type="curve" smooth="yes"/>
			<point x="1011" y="1351"/>
			<point x="1144" y="1231"/>
			<point x="1144" y="960" type="curve" smooth="yes"/>
			<point x="1144" y="552"/>
			<point x="833" y="64"/>
		</contour>
	</outline>
	<anchor name="Qtail" x="605" y="0"/>
	<anchor name="bottom" x="528" y="0"/>
	<anchor name="center" x="705" y="720"/>
	<anchor name="ogonek" x="575" y="9"/>
	<anchor name="top" x="858" y="1400"/>
	<anchor name="topleft" x="300" y="1265"/>
	<anchor name="topright" x="1465" y="1265"/>
</glyph>
<glyph name="P" format="2">
	<unicode hex="0050"/>
	<advance width="1039"/>
	<outline>
		<contour>
			<point x="142" y="46" type="curve" smooth="yes"/>
			<point x="493" y="1365" type="line"/>
			<point x="414" y="1361" type="line"/>
			<point x="65" y="61" type="line" smooth="yes"/>
			<point x="61" y="45"/>
			<point x="60" y="40"/>
			<point x="60" y="30" type="curve" smooth="yes"/>
			<point x="60" y="9"/>
			<point x="72" y="-1"/>
			<point x="92" y="-1" type="curve" smooth="yes"/>
			<point x="118" y="-1"/>
			<point x="134" y="16"/>
		</contour>
		<contour>
			<point x="298" y="688" type="curve"/>
			<point x="281" y="620" type="line"/>
			<point x="338" y="605"/>
			<point x="413" y="591"/>
			<point x="503" y="591" type="curve" smooth="yes"/>
			<point x="857" y="591"/>
			<point x="1059" y="788"/>
			<point x="1059" y="1020" type="curve" smooth="yes"/>
			<point x="1059" y="1254"/>
			<point x="881" y="1424"/>
			<point x="548" y="1424" type="curve" smooth="yes"/>
			<point x="405" y="1424"/>
			<point x="298" y="1401"/>
			<point x="298" y="1360" type="curve" smooth="yes"/>
			<point x="298" y="1346"/>
			<point x="311" y="1330"/>
			<point x="323" y="1330" type="curve" smooth="yes"/>
			<point x="335" y="1330"/>
			<point x="385" y="1334"/>
			<point x="434" y="1338" type="curve" smooth="yes"/>
			<point x="470" y="1341"/>
			<point x="499" y="1344"/>
			<point x="532" y="1344" type="curve" smooth="yes"/>
			<point x="801" y="1344"/>
			<point x="981" y="1227"/>
			<point x="981" y="1018" type="curve" smooth="yes"/>
			<point x="981" y="825"/>
			<point x="820" y="664"/>
			<point x="498" y="664" type="curve" smooth="yes"/>
			<point x="410" y="664"/>
			<point x="343" y="677"/>
		</contour>
	</outline>
	<anchor name="bottom" x="335" y="0"/>
	<anchor name="top" x="662" y="1400"/>
</glyph>
<glyph name="R" format="2">
	<unicode hex="0052"/>
	<advance width="910"/>
	<outline>
		<contour>
			<point x="143" y="51" type="curve" smooth="yes"/>
			<point x="489" y="1371" type="line"/>
			<point x="410" y="1366" type="line"/>
			<point x="66" y="66" type="line" smooth="yes"/>
			<point x="62" y="50"/>
			<point x="60" y="43"/>
			<point x="60" y="34" type="curve" smooth="yes"/>
			<point x="60" y="11"/>
			<point x="81" y="0"/>
			<point x="103" y="0" type="curve" smooth="yes"/>
			<point x="121" y="0"/>
			<point x="132" y="10"/>
		</contour>
		<contour>
			<point x="295" y="1366" type="curve" smooth="yes"/>
			<point x="295" y="1353"/>
			<point x="308" y="1337"/>
			<point x="325" y="1337" type="curve" smooth="yes"/>
			<point x="332" y="1337"/>
			<point x="341" y="1338"/>
			<point x="358" y="1340" type="curve" smooth="yes"/>
			<point x="390" y="1344"/>
			<point x="485" y="1350"/>
			<point x="532" y="1350" type="curve" smooth="yes"/>
			<point x="789" y="1350"/>
			<point x="972" y="1238"/>
			<point x="972" y="1042" type="curve" smooth="yes"/>
			<point x="972" y="862"/>
			<point x="798" y="715"/>
			<point x="494" y="715" type="curve" smooth="yes"/>
			<point x="422" y="715"/>
			<point x="354" y="724"/>
			<point x="310" y="733" type="curve"/>
			<point x="295" y="657" type="line"/>
			<point x="332" y="590"/>
			<point x="407" y="455"/>
			<point x="529" y="281" type="curve" smooth="yes"/>
			<point x="702" y="35"/>
			<point x="763" y="-11"/>
			<point x="876" y="-11" type="curve" smooth="yes"/>
			<point x="911" y="-11"/>
			<point x="931" y="12"/>
			<point x="931" y="29" type="curve" smooth="yes"/>
			<point x="931" y="56"/>
			<point x="906" y="63"/>
			<point x="890" y="63" type="curve" smooth="yes"/>
			<point x="795" y="63"/>
			<point x="737" y="107"/>
			<point x="588" y="325" type="curve" smooth="yes"/>
			<point x="476" y="489"/>
			<point x="408" y="596"/>
			<point x="368" y="669" type="curve"/>
			<point x="353" y="660" type="line"/>
			<point x="398" y="652"/>
			<point x="446" y="645"/>
			<point x="517" y="645" type="curve" smooth="yes"/>
			<point x="836" y="645"/>
			<point x="1050" y="827"/>
			<point x="1050" y="1044" type="curve" smooth="yes"/>
			<point x="1050" y="1259"/>
			<point x="870" y="1425"/>
			<point x="541" y="1425" type="curve" smooth="yes"/>
			<point x="404" y="1425"/>
			<point x="295" y="1403"/>
		</contour>
	</outline>
	<anchor name="bottom" x="484" y="0"/>
	<anchor name="top" x="683" y="1400"/>
</glyph>
<glyph name="S" format="2">
	<unicode hex="0053"/>
	<advance width="1051"/>
	<outline>
		<contour>
			<point x="363" y="-7" type="curve" smooth="yes"/>
			<point x="620" y="-7"/>
			<point x="838" y="129"/>
			<point x="838" y="360" type="curve" smooth="yes"/>
			<point x="838" y="532"/>
			<point x="719" y="649"/>
			<point x="582" y="771" type="curve" smooth="yes"/>
			<point x="458" y="882"/>
			<point x="352" y="978"/>
			<point x="352" y="1115" type="curve" smooth="yes"/>
			<point x="352" y="1257"/>
			<point x="471" y="1350"/>
			<point x="643" y="1350" type="curve" smooth="yes"/>
			<point x="726" y="1350"/>
			<point x="800" y="1328"/>
			<point x="860" y="1306" type="curve" smooth="yes"/>
			<point x="887" y="1296"/>
			<point x="893" y="1294"/>
			<point x="900" y="1294" type="curve" smooth="yes"/>
			<point x="921" y="1294"/>
			<point x="931" y="1310"/>
			<point x="931" y="1323" type="curve" smooth="yes"/>
			<point x="931" y="1342"/>
			<point x="910" y="1362"/>
			<point x="853" y="1385" type="curve" smooth="yes"/>
			<point x="784" y="1413"/>
			<point x="712" y="1425"/>
			<point x="644" y="1425" type="curve" smooth="yes"/>
			<point x="420" y="1425"/>
			<point x="272" y="1293"/>
			<point x="272" y="1112" type="curve" smooth="yes"/>
			<point x="272" y="943"/>
			<point x="399" y="826"/>
			<point x="529" y="709" type="curve" smooth="yes"/>
			<point x="653" y="598"/>
			<point x="758" y="499"/>
			<point x="758" y="355" type="curve" smooth="yes"/>
			<point x="758" y="176"/>
			<point x="594" y="68"/>
			<point x="358" y="68" type="curve" smooth="yes"/>
			<point x="283" y="68"/>
			<point x="202" y="79"/>
			<point x="132" y="98" type="curve" smooth="yes"/>
			<point x="95" y="108"/>
			<point x="73" y="117"/>
			<point x="61" y="117" type="curve" smooth="yes"/>
			<point x="43" y="117"/>
			<point x="30" y="98"/>
			<point x="30" y="81" type="curve" smooth="yes"/>
			<point x="30" y="67"/>
			<point x="39" y="57"/>
			<point x="57" y="48" type="curve" smooth="yes"/>
			<point x="112" y="20"/>
			<point x="248" y="-7"/>
		</contour>
	</outline>
	<anchor name="bottom" x="429" y="0"/>
	<anchor name="top" x="643" y="1400"/>
</glyph>
<glyph name="T" format="2">
	<unicode hex="0054"/>
	<advance width="1068"/>
	<outline>
		<contour>
			<point x="803" y="1340" type="curve"/>
			<point x="725" y="1340" type="line"/>
			<point x="615" y="994"/>
			<point x="460" y="456"/>
			<point x="392" y="141" type="curve" smooth="yes"/>
			<point x="370" y="40"/>
			<point x="368" y="25"/>
			<point x="368" y="15" type="curve" smooth="yes"/>
			<point x="368" y="-3"/>
			<point x="385" y="-12"/>
			<point x="406" y="-12" type="curve" smooth="yes"/>
			<point x="424" y="-12"/>
			<point x="439" y="1"/>
			<point x="446" y="34" type="curve" smooth="yes"/>
			<point x="530" y="422"/>
			<point x="691" y="977"/>
		</contour>
		<contour>
			<point x="285" y="1324" type="curve"/>
			<point x="585" y="1326"/>
			<point x="925" y="1329"/>
			<point x="1245" y="1331" type="curve" smooth="yes"/>
			<point x="1284" y="1331"/>
			<point x="1298" y="1348"/>
			<point x="1298" y="1371" type="curve" smooth="yes"/>
			<point x="1298" y="1389"/>
			<point x="1287" y="1404"/>
			<point x="1260" y="1404" type="curve" smooth="yes"/>
			<point x="960" y="1404"/>
			<point x="508" y="1403"/>
			<point x="298" y="1398" type="curve" smooth="yes"/>
			<point x="267" y="1397"/>
			<point x="250" y="1379"/>
			<point x="250" y="1359" type="curve" smooth="yes"/>
			<point x="250" y="1337"/>
			<point x="262" y="1324"/>
		</contour>
	</outline>
	<anchor name="bottom" x="403" y="0"/>
	<anchor name="center" x="571" y="717"/>
	<anchor name="top" x="768" y="1397"/>
</glyph>
<glyph name="U" format="2">
	<unicode hex="0055"/>
	<advance width="1104"/>
	<outline>
		<contour>
			<point x="1019" y="-12" type="curve" smooth="yes"/>
			<point x="1067" y="-12"/>
			<point x="1081" y="8"/>
			<point x="1081" y="29" type="curve" smooth="yes"/>
			<point x="1081" y="52"/>
			<point x="1063" y="63"/>
			<point x="1041" y="63" type="curve" smooth="yes"/>
			<point x="1007" y="63"/>
			<point x="985" y="82"/>
			<point x="985" y="142" type="curve" smooth="yes"/>
			<point x="985" y="175"/>
			<point x="993" y="213"/>
			<point x="1018" y="311" type="curve" smooth="yes"/>
			<point x="1082" y="562"/>
			<point x="1218" y="1003"/>
			<point x="1272" y="1183" type="curve" smooth="yes"/>
			<point x="1316" y="1331"/>
			<point x="1323" y="1351"/>
			<point x="1323" y="1369" type="curve" smooth="yes"/>
			<point x="1323" y="1390"/>
			<point x="1304" y="1399"/>
			<point x="1286" y="1399" type="curve" smooth="yes"/>
			<point x="1266" y="1399"/>
			<point x="1256" y="1393"/>
			<point x="1236" y="1333" type="curve" smooth="yes"/>
			<point x="1183" y="1175"/>
			<point x="1124" y="1031"/>
			<point x="993" y="767" type="curve" smooth="yes"/>
			<point x="744" y="266"/>
			<point x="531" y="63"/>
			<point x="355" y="63" type="curve" smooth="yes"/>
			<point x="273" y="63"/>
			<point x="230" y="122"/>
			<point x="230" y="245" type="curve" smooth="yes"/>
			<point x="230" y="335"/>
			<point x="255" y="453"/>
			<point x="323" y="658" type="curve" smooth="yes"/>
			<point x="354" y="752"/>
			<point x="388" y="857"/>
			<point x="425" y="954" type="curve" smooth="yes"/>
			<point x="464" y="1056"/>
			<point x="507" y="1169"/>
			<point x="535" y="1265" type="curve" smooth="yes"/>
			<point x="560" y="1350"/>
			<point x="559" y="1369"/>
			<point x="559" y="1371" type="curve" smooth="yes"/>
			<point x="559" y="1391"/>
			<point x="541" y="1400"/>
			<point x="519" y="1400" type="curve" smooth="yes"/>
			<point x="502" y="1400"/>
			<point x="493" y="1395"/>
			<point x="472" y="1323" type="curve" smooth="yes"/>
			<point x="439" y="1210"/>
			<point x="396" y="1083"/>
			<point x="357" y="977" type="curve" smooth="yes"/>
			<point x="316" y="865"/>
			<point x="290" y="788"/>
			<point x="256" y="687" type="curve" smooth="yes"/>
			<point x="181" y="464"/>
			<point x="150" y="333"/>
			<point x="150" y="229" type="curve" smooth="yes"/>
			<point x="150" y="77"/>
			<point x="221" y="-12"/>
			<point x="341" y="-12" type="curve" smooth="yes"/>
			<point x="569" y="-12"/>
			<point x="815" y="203"/>
			<point x="1168" y="1013" type="curve"/>
			<point x="1161" y="1013" type="line"/>
			<point x="1095" y="796"/>
			<point x="1009" y="526"/>
			<point x="953" y="336" type="curve" smooth="yes"/>
			<point x="923" y="235"/>
			<point x="911" y="178"/>
			<point x="911" y="120" type="curve" smooth="yes"/>
			<point x="911" y="34"/>
			<point x="959" y="-12"/>
		</contour>
	</outline>
	<anchor name="bottom" x="528" y="0"/>
	<anchor name="ogonek" x="1021" y="-12"/>
	<anchor name="top" x="892" y="1400"/>
	<anchor name="topright" x="1599" y="1234"/>
</glyph>
<glyph name="V" format="2">
	<unicode hex="0056"/>
	<advance width="1202"/>
	<outline>
		<contour>
			<point x="302" y="1326" type="curve" smooth="yes"/>
			<point x="320" y="130" type="line" smooth="yes"/>
			<point x="320" y="100"/>
			<point x="321" y="74"/>
			<point x="321" y="59" type="curve" smooth="yes"/>
			<point x="323" y="-1"/>
			<point x="348" y="-11"/>
			<point x="379" y="-11" type="curve" smooth="yes"/>
			<point x="400" y="-11"/>
			<point x="422" y="4"/>
			<point x="440" y="40" type="curve" smooth="yes"/>
			<point x="718" y="595"/>
			<point x="965" y="976"/>
			<point x="1140" y="1184" type="curve" smooth="yes"/>
			<point x="1212" y="1270"/>
			<point x="1249" y="1303"/>
			<point x="1304" y="1339" type="curve" smooth="yes"/>
			<point x="1319" y="1349"/>
			<point x="1322" y="1358"/>
			<point x="1322" y="1367" type="curve" smooth="yes"/>
			<point x="1322" y="1384"/>
			<point x="1306" y="1400"/>
			<point x="1284" y="1400" type="curve" smooth="yes"/>
			<point x="1249" y="1400"/>
			<point x="1190" y="1363"/>
			<point x="1108" y="1264" type="curve" smooth="yes"/>
			<point x="885" y="996"/>
			<point x="643" y="616"/>
			<point x="377" y="67" type="curve"/>
			<point x="390" y="63" type="line"/>
			<point x="381" y="1341" type="line" smooth="yes"/>
			<point x="381" y="1355"/>
			<point x="381" y="1360"/>
			<point x="381" y="1367" type="curve" smooth="yes"/>
			<point x="380" y="1390"/>
			<point x="368" y="1400"/>
			<point x="342" y="1400" type="curve" smooth="yes"/>
			<point x="319" y="1400"/>
			<point x="301" y="1391"/>
			<point x="301" y="1362" type="curve" smooth="yes"/>
			<point x="301" y="1352"/>
			<point x="302" y="1340"/>
		</contour>
	</outline>
	<anchor name="bottom" x="380" y="0"/>
	<anchor name="top" x="757" y="1400"/>
</glyph>
<glyph name="W" format="2">
	<unicode hex="0057"/>
	<advance width="1818"/>
	<outline>
		<contour>
			<point x="321" y="1345" type="curve" smooth="yes"/>
			<point x="301" y="167" type="line" smooth="yes"/>
			<point x="300" y="122"/>
			<point x="301" y="100"/>
			<point x="301" y="63" type="curve" smooth="yes"/>
			<point x="301" y="4"/>
			<point x="318" y="-12"/>
			<point x="356" y="-12" type="curve" smooth="yes"/>
			<point x="380" y="-12"/>
			<point x="399" y="-1"/>
			<point x="425" y="56" type="curve" smooth="yes"/>
			<point x="642" y="521"/>
			<point x="822" y="900"/>
			<point x="995" y="1179" type="curve"/>
			<point x="984" y="1203" type="line"/>
			<point x="960" y="152" type="line" smooth="yes"/>
			<point x="959" y="122"/>
			<point x="959" y="100"/>
			<point x="959" y="63" type="curve" smooth="yes"/>
			<point x="959" y="4"/>
			<point x="976" y="-12"/>
			<point x="1014" y="-12" type="curve" smooth="yes"/>
			<point x="1038" y="-12"/>
			<point x="1057" y="1"/>
			<point x="1076" y="41" type="curve" smooth="yes"/>
			<point x="1348" y="608"/>
			<point x="1598" y="1014"/>
			<point x="1763" y="1201" type="curve" smooth="yes"/>
			<point x="1841" y="1289"/>
			<point x="1876" y="1322"/>
			<point x="1923" y="1350" type="curve" smooth="yes"/>
			<point x="1935" y="1357"/>
			<point x="1938" y="1365"/>
			<point x="1938" y="1374" type="curve" smooth="yes"/>
			<point x="1938" y="1389"/>
			<point x="1925" y="1406"/>
			<point x="1903" y="1406" type="curve" smooth="yes"/>
			<point x="1865" y="1406"/>
			<point x="1819" y="1376"/>
			<point x="1738" y="1287" type="curve" smooth="yes"/>
			<point x="1561" y="1093"/>
			<point x="1298" y="674"/>
			<point x="1012" y="63" type="curve"/>
			<point x="1028" y="55" type="line"/>
			<point x="1054" y="1245" type="line" smooth="yes"/>
			<point x="1054" y="1251"/>
			<point x="1054" y="1257"/>
			<point x="1053" y="1262" type="curve" smooth="yes"/>
			<point x="1049" y="1289"/>
			<point x="1035" y="1297"/>
			<point x="1019" y="1297" type="curve" smooth="yes"/>
			<point x="1001" y="1297"/>
			<point x="989" y="1290"/>
			<point x="957" y="1242" type="curve" smooth="yes"/>
			<point x="798" y="1002"/>
			<point x="586" y="575"/>
			<point x="359" y="65" type="curve"/>
			<point x="370" y="55" type="line"/>
			<point x="398" y="1345" type="line" smooth="yes"/>
			<point x="398" y="1351"/>
			<point x="398" y="1357"/>
			<point x="398" y="1362" type="curve" smooth="yes"/>
			<point x="395" y="1397"/>
			<point x="383" y="1406"/>
			<point x="363" y="1406" type="curve" smooth="yes"/>
			<point x="340" y="1406"/>
			<point x="326" y="1397"/>
			<point x="322" y="1361" type="curve" smooth="yes"/>
			<point x="321" y="1356"/>
			<point x="321" y="1351"/>
		</contour>
	</outline>
	<anchor name="bottom" x="695" y="0"/>
	<anchor name="top" x="1072" y="1400"/>
</glyph>
<glyph name="X" format="2">
	<unicode hex="0058"/>
	<advance width="1146"/>
	<outline>
		<contour>
			<point x="-13" y="26" type="curve" smooth="yes"/>
			<point x="562" y="653" type="line"/>
			<point x="531" y="720" type="line"/>
			<point x="-69" y="75" type="line" smooth="yes"/>
			<point x="-96" y="46"/>
			<point x="-100" y="38"/>
			<point x="-100" y="27" type="curve" smooth="yes"/>
			<point x="-100" y="6"/>
			<point x="-83" y="-11"/>
			<point x="-63" y="-11" type="curve" smooth="yes"/>
			<point x="-50" y="-11"/>
			<point x="-39" y="-2"/>
		</contour>
		<contour>
			<point x="1143" y="1375" type="curve" smooth="yes"/>
			<point x="559" y="737" type="line"/>
			<point x="591" y="667" type="line"/>
			<point x="1207" y="1330" type="line" smooth="yes"/>
			<point x="1222" y="1346"/>
			<point x="1226" y="1359"/>
			<point x="1226" y="1368" type="curve" smooth="yes"/>
			<point x="1226" y="1386"/>
			<point x="1209" y="1406"/>
			<point x="1189" y="1406" type="curve" smooth="yes"/>
			<point x="1176" y="1406"/>
			<point x="1165" y="1399"/>
		</contour>
		<contour>
			<point x="847" y="215" type="curve" smooth="yes"/>
			<point x="710" y="451"/>
			<point x="437" y="1006"/>
			<point x="310" y="1350" type="curve" smooth="yes"/>
			<point x="291" y="1401"/>
			<point x="282" y="1406"/>
			<point x="271" y="1406" type="curve" smooth="yes"/>
			<point x="246" y="1406"/>
			<point x="226" y="1387"/>
			<point x="226" y="1369" type="curve" smooth="yes"/>
			<point x="226" y="1351"/>
			<point x="245" y="1293"/>
			<point x="278" y="1209" type="curve" smooth="yes"/>
			<point x="392" y="919"/>
			<point x="636" y="431"/>
			<point x="778" y="179" type="curve" smooth="yes"/>
			<point x="886" y="-13"/>
			<point x="918" y="-50"/>
			<point x="945" y="-50" type="curve" smooth="yes"/>
			<point x="966" y="-50"/>
			<point x="982" y="-32"/>
			<point x="982" y="-14" type="curve" smooth="yes"/>
			<point x="982" y="0"/>
			<point x="976" y="11"/>
			<point x="952" y="45" type="curve" smooth="yes"/>
			<point x="911" y="104"/>
			<point x="890" y="140"/>
		</contour>
	</outline>
	<anchor name="bottom" x="407" y="0"/>
	<anchor name="top" x="731" y="1400"/>
	<guideline x="-100" y="79" angle="230.2583"/>
</glyph>
<glyph name="Y" format="2">
	<unicode hex="0059"/>
	<advance width="1062"/>
	<outline>
		<contour>
			<point x="231" y="1304" type="curve" smooth="yes"/>
			<point x="429" y="528" type="line"/>
			<point x="486" y="605" type="line"/>
			<point x="305" y="1340" type="line" smooth="yes"/>
			<point x="291" y="1399"/>
			<point x="283" y="1406"/>
			<point x="262" y="1406" type="curve" smooth="yes"/>
			<point x="235" y="1406"/>
			<point x="217" y="1393"/>
			<point x="217" y="1374" type="curve" smooth="yes"/>
			<point x="217" y="1359"/>
			<point x="225" y="1329"/>
		</contour>
		<contour>
			<point x="475" y="604" type="curve"/>
			<point x="436" y="553" type="line"/>
			<point x="318" y="402"/>
			<point x="201" y="240"/>
			<point x="91" y="71" type="curve" smooth="yes"/>
			<point x="74" y="45"/>
			<point x="70" y="36"/>
			<point x="70" y="26" type="curve" smooth="yes"/>
			<point x="70" y="3"/>
			<point x="89" y="-11"/>
			<point x="109" y="-11" type="curve" smooth="yes"/>
			<point x="121" y="-11"/>
			<point x="130" y="-7"/>
			<point x="151" y="26" type="curve" smooth="yes"/>
			<point x="442" y="483"/>
			<point x="806" y="925"/>
			<point x="1180" y="1324" type="curve" smooth="yes"/>
			<point x="1209" y="1355"/>
			<point x="1212" y="1362"/>
			<point x="1212" y="1371" type="curve" smooth="yes"/>
			<point x="1212" y="1391"/>
			<point x="1194" y="1406"/>
			<point x="1175" y="1406" type="curve" smooth="yes"/>
			<point x="1164" y="1406"/>
			<point x="1152" y="1401"/>
			<point x="1126" y="1374" type="curve" smooth="yes"/>
			<point x="898" y="1133"/>
			<point x="684" y="881"/>
		</contour>
	</outline>
	<anchor name="bottom" x="98" y="0"/>
	<anchor name="top" x="700" y="1400"/>
	<anchor name="topleft" x="110" y="1400"/>
</glyph>
<glyph name="Z" format="2">
	<unicode hex="005A"/>
	<advance width="758"/>
	<outline>
		<contour>
			<point x="-50" y="58" type="curve" smooth="yes"/>
			<point x="-50" y="11"/>
			<point x="-12" y="-22"/>
			<point x="46" y="-22" type="curve" smooth="yes"/>
			<point x="136" y="-22"/>
			<point x="195" y="47"/>
			<point x="284" y="141" type="curve" smooth="yes"/>
			<point x="380" y="243"/>
			<point x="516" y="408"/>
			<point x="771" y="730" type="curve" smooth="yes"/>
			<point x="1069" y="1107"/>
			<point x="1155" y="1247"/>
			<point x="1197" y="1317" type="curve" smooth="yes"/>
			<point x="1215" y="1347"/>
			<point x="1222" y="1362"/>
			<point x="1222" y="1376" type="curve" smooth="yes"/>
			<point x="1222" y="1397"/>
			<point x="1212" y="1411"/>
			<point x="1183" y="1411" type="curve" smooth="yes"/>
			<point x="1178" y="1411"/>
			<point x="1169" y="1410"/>
			<point x="1150" y="1408" type="curve" smooth="yes"/>
			<point x="1084" y="1401"/>
			<point x="933" y="1387"/>
			<point x="667" y="1387" type="curve" smooth="yes"/>
			<point x="541" y="1387"/>
			<point x="450" y="1395"/>
			<point x="399" y="1400" type="curve" smooth="yes"/>
			<point x="369" y="1403"/>
			<point x="351" y="1405"/>
			<point x="339" y="1405" type="curve" smooth="yes"/>
			<point x="317" y="1405"/>
			<point x="303" y="1396"/>
			<point x="303" y="1378" type="curve" smooth="yes"/>
			<point x="303" y="1360"/>
			<point x="315" y="1350"/>
			<point x="341" y="1344" type="curve" smooth="yes"/>
			<point x="389" y="1333"/>
			<point x="535" y="1322"/>
			<point x="656" y="1322" type="curve" smooth="yes"/>
			<point x="861" y="1322"/>
			<point x="1038" y="1333"/>
			<point x="1155" y="1348" type="curve"/>
			<point x="1147" y="1354" type="line"/>
			<point x="1088" y="1261"/>
			<point x="992" y="1119"/>
			<point x="701" y="752" type="curve" smooth="yes"/>
			<point x="443" y="426"/>
			<point x="292" y="245"/>
			<point x="209" y="156" type="curve" smooth="yes"/>
			<point x="138" y="85"/>
			<point x="97" y="44"/>
			<point x="50" y="44" type="curve" smooth="yes"/>
			<point x="36" y="44"/>
			<point x="25" y="51"/>
			<point x="25" y="65" type="curve" smooth="yes"/>
			<point x="25" y="86"/>
			<point x="55" y="107"/>
			<point x="124" y="107" type="curve" smooth="yes"/>
			<point x="182" y="107"/>
			<point x="274" y="89"/>
			<point x="379" y="56" type="curve" smooth="yes"/>
			<point x="484" y="23"/>
			<point x="597" y="-11"/>
			<point x="750" y="-11" type="curve" smooth="yes"/>
			<point x="784" y="-11"/>
			<point x="801" y="3"/>
			<point x="801" y="25" type="curve" smooth="yes"/>
			<point x="801" y="44"/>
			<point x="782" y="55"/>
			<point x="759" y="55" type="curve" smooth="yes"/>
			<point x="607" y="55"/>
			<point x="494" y="87"/>
			<point x="389" y="120" type="curve" smooth="yes"/>
			<point x="296" y="149"/>
			<point x="203" y="170"/>
			<point x="134" y="170" type="curve" smooth="yes"/>
			<point x="18" y="170"/>
			<point x="-50" y="117"/>
		</contour>
	</outline>
	<anchor name="bottom" x="375" y="0"/>
	<anchor name="center" x="714" y="718"/>
	<anchor name="top" x="764" y="1400"/>
	<anchor name="topright" x="1260" y="1400"/>
</glyph>
<glyph name="b" format="2">
	<unicode hex="0062"/>
	<advance width="1000"/>
	<outline>
		<contour>
			<point x="170" y="203" type="curve" smooth="yes"/>
			<point x="170" y="281"/>
			<point x="186" y="360"/>
			<point x="224" y="503" type="curve" smooth="yes"/>
			<point x="499" y="1529" type="line" smooth="yes"/>
			<point x="503" y="1544"/>
			<point x="507" y="1562"/>
			<point x="507" y="1570" type="curve" smooth="yes"/>
			<point x="507" y="1587"/>
			<point x="485" y="1600"/>
			<point x="460" y="1600" type="curve" smooth="yes"/>
			<point x="440" y="1600"/>
			<point x="431" y="1587"/>
			<point x="422" y="1552" type="curve" smooth="yes"/>
			<point x="150" y="523" type="line" smooth="yes"/>
			<point x="110" y="373"/>
			<point x="90" y="274"/>
			<point x="90" y="189" type="curve" smooth="yes"/>
			<point x="90" y="57"/>
			<point x="166" y="-12"/>
			<point x="268" y="-12" type="curve" smooth="yes"/>
			<point x="538" y="-12"/>
			<point x="810" y="324"/>
			<point x="810" y="666" type="curve" smooth="yes"/>
			<point x="810" y="841"/>
			<point x="719" y="935"/>
			<point x="584" y="935" type="curve" smooth="yes"/>
			<point x="499" y="935"/>
			<point x="427" y="898"/>
			<point x="427" y="868" type="curve" smooth="yes"/>
			<point x="427" y="850"/>
			<point x="439" y="837"/>
			<point x="454" y="837" type="curve" smooth="yes"/>
			<point x="467" y="837"/>
			<point x="483" y="843"/>
			<point x="501" y="852" type="curve" smooth="yes"/>
			<point x="524" y="864"/>
			<point x="549" y="870"/>
			<point x="581" y="870" type="curve" smooth="yes"/>
			<point x="669" y="870"/>
			<point x="730" y="798"/>
			<point x="730" y="645" type="curve" smooth="yes"/>
			<point x="730" y="358"/>
			<point x="502" y="63"/>
			<point x="283" y="63" type="curve" smooth="yes"/>
			<point x="208" y="63"/>
			<point x="170" y="106"/>
		</contour>
	</outline>
	<anchor name="bottom" x="283" y="0"/>
	<anchor name="top" x="472" y="1600"/>
</glyph>
<glyph name="d" format="2">
	<unicode hex="0064"/>
	<advance width="781"/>
	<outline>
		<contour>
			<point x="770" y="789" type="curve"/>
			<point x="785" y="855" type="line"/>
			<point x="673" y="908"/>
			<point x="577" y="935"/>
			<point x="515" y="935" type="curve" smooth="yes"/>
			<point x="287" y="935"/>
			<point x="65" y="604"/>
			<point x="65" y="248" type="curve" smooth="yes"/>
			<point x="65" y="73"/>
			<point x="127" y="-12"/>
			<point x="213" y="-12" type="curve" smooth="yes"/>
			<point x="370" y="-12"/>
			<point x="535" y="195"/>
			<point x="658" y="424" type="curve"/>
			<point x="653" y="433" type="line"/>
			<point x="626" y="328" type="line" smooth="yes"/>
			<point x="590" y="189"/>
			<point x="585" y="158"/>
			<point x="585" y="124" type="curve" smooth="yes"/>
			<point x="585" y="26"/>
			<point x="626" y="-12"/>
			<point x="706" y="-12" type="curve" smooth="yes"/>
			<point x="739" y="-12"/>
			<point x="763" y="6"/>
			<point x="763" y="34" type="curve" smooth="yes"/>
			<point x="763" y="50"/>
			<point x="754" y="63"/>
			<point x="725" y="63" type="curve" smooth="yes"/>
			<point x="685" y="63"/>
			<point x="665" y="82"/>
			<point x="665" y="133" type="curve" smooth="yes"/>
			<point x="665" y="171"/>
			<point x="678" y="223"/>
			<point x="705" y="326" type="curve" smooth="yes"/>
			<point x="1016" y="1496" type="line" smooth="yes"/>
			<point x="1023" y="1522"/>
			<point x="1031" y="1554"/>
			<point x="1031" y="1566" type="curve" smooth="yes"/>
			<point x="1031" y="1594"/>
			<point x="1011" y="1600"/>
			<point x="990" y="1600" type="curve" smooth="yes"/>
			<point x="970" y="1600"/>
			<point x="954" y="1584"/>
			<point x="947" y="1556" type="curve" smooth="yes"/>
			<point x="755" y="815" type="line" smooth="yes"/>
			<point x="640" y="372"/>
			<point x="360" y="63"/>
			<point x="230" y="63" type="curve" smooth="yes"/>
			<point x="180" y="63"/>
			<point x="146" y="113"/>
			<point x="146" y="261" type="curve" smooth="yes"/>
			<point x="146" y="561"/>
			<point x="333" y="860"/>
			<point x="520" y="860" type="curve" smooth="yes"/>
			<point x="591" y="860"/>
			<point x="666" y="840"/>
		</contour>
	</outline>
	<anchor name="bottom" x="275" y="0"/>
	<anchor name="center" x="858" y="1210"/>
	<anchor name="top" x="990" y="1600"/>
	<anchor name="topright" x="1038" y="1600"/>
</glyph>
<glyph name="g" format="2">
	<unicode hex="0067"/>
	<advance width="783"/>
	<outline>
		<contour>
			<point x="550" y="-82" type="curve"/>
			<point x="572" y="9" type="line"/>
			<point x="203" y="-240"/>
			<point x="47" y="-421"/>
			<point x="47" y="-557" type="curve" smooth="yes"/>
			<point x="47" y="-641"/>
			<point x="103" y="-690"/>
			<point x="177" y="-690" type="curve" smooth="yes"/>
			<point x="331" y="-690"/>
			<point x="503" y="-558"/>
			<point x="603" y="-106" type="curve" smooth="yes"/>
			<point x="637" y="50"/>
			<point x="661" y="153"/>
			<point x="777" y="587" type="curve" smooth="yes"/>
			<point x="796" y="659"/>
			<point x="818" y="740"/>
			<point x="843" y="831" type="curve" smooth="yes"/>
			<point x="850" y="857"/>
			<point x="858" y="889"/>
			<point x="858" y="901" type="curve" smooth="yes"/>
			<point x="858" y="929"/>
			<point x="838" y="935"/>
			<point x="817" y="935" type="curve" smooth="yes"/>
			<point x="794" y="935"/>
			<point x="781" y="922"/>
			<point x="767" y="864" type="curve"/>
			<point x="662" y="911"/>
			<point x="573" y="935"/>
			<point x="515" y="935" type="curve" smooth="yes"/>
			<point x="287" y="935"/>
			<point x="65" y="604"/>
			<point x="65" y="248" type="curve" smooth="yes"/>
			<point x="65" y="73"/>
			<point x="127" y="-12"/>
			<point x="213" y="-12" type="curve" smooth="yes"/>
			<point x="372" y="-12"/>
			<point x="540" y="201"/>
			<point x="664" y="434" type="curve"/>
			<point x="658" y="443" type="line"/>
			<point x="612" y="248"/>
			<point x="565" y="54"/>
			<point x="519" y="-141" type="curve" smooth="yes"/>
			<point x="437" y="-486"/>
			<point x="290" y="-615"/>
			<point x="194" y="-615" type="curve" smooth="yes"/>
			<point x="146" y="-615"/>
			<point x="122" y="-591"/>
			<point x="122" y="-551" type="curve" smooth="yes"/>
			<point x="122" y="-444"/>
			<point x="262" y="-292"/>
		</contour>
		<contour>
			<point x="145" y="261" type="curve" smooth="yes"/>
			<point x="145" y="561"/>
			<point x="333" y="860"/>
			<point x="520" y="860" type="curve" smooth="yes"/>
			<point x="587" y="860"/>
			<point x="657" y="843"/>
			<point x="749" y="800" type="curve"/>
			<point x="743" y="778" type="line" smooth="yes"/>
			<point x="634" y="380"/>
			<point x="359" y="63"/>
			<point x="230" y="63" type="curve" smooth="yes"/>
			<point x="179" y="63"/>
			<point x="145" y="113"/>
		</contour>
	</outline>
	<anchor name="bottom" x="231" y="0"/>
	<anchor name="top" x="558" y="920"/>
</glyph>
<glyph name="h" format="2">
	<unicode hex="0068"/>
	<advance width="804"/>
	<outline>
		<contour>
			<point x="519" y="1529" type="line"/>
			<point x="523" y="1544"/>
			<point x="527" y="1562"/>
			<point x="527" y="1570" type="curve" smooth="yes"/>
			<point x="527" y="1587"/>
			<point x="505" y="1600"/>
			<point x="480" y="1600" type="curve" smooth="yes"/>
			<point x="460" y="1600"/>
			<point x="451" y="1587"/>
			<point x="442" y="1552" type="curve" smooth="yes"/>
			<point x="52" y="83" type="line" smooth="yes"/>
			<point x="42" y="44"/>
			<point x="40" y="34"/>
			<point x="40" y="25" type="curve" smooth="yes"/>
			<point x="40" y="0"/>
			<point x="61" y="-12"/>
			<point x="80" y="-12" type="curve" smooth="yes"/>
			<point x="102" y="-12"/>
			<point x="118" y="1"/>
			<point x="130" y="43" type="curve" smooth="yes"/>
			<point x="164" y="163"/>
			<point x="201" y="264"/>
			<point x="237" y="338" type="curve" smooth="yes"/>
			<point x="391" y="657"/>
			<point x="602" y="860"/>
			<point x="722" y="860" type="curve" smooth="yes"/>
			<point x="771" y="860"/>
			<point x="799" y="829"/>
			<point x="799" y="770" type="curve" smooth="yes"/>
			<point x="799" y="688"/>
			<point x="756" y="573"/>
			<point x="711" y="456" type="curve" smooth="yes"/>
			<point x="649" y="296"/>
			<point x="615" y="176"/>
			<point x="615" y="111" type="curve" smooth="yes"/>
			<point x="615" y="25"/>
			<point x="658" y="-12"/>
			<point x="732" y="-12" type="curve" smooth="yes"/>
			<point x="765" y="-12"/>
			<point x="788" y="6"/>
			<point x="788" y="34" type="curve" smooth="yes"/>
			<point x="788" y="50"/>
			<point x="780" y="63"/>
			<point x="751" y="63" type="curve" smooth="yes"/>
			<point x="714" y="63"/>
			<point x="696" y="78"/>
			<point x="696" y="122" type="curve" smooth="yes"/>
			<point x="696" y="177"/>
			<point x="722" y="272"/>
			<point x="784" y="433" type="curve" smooth="yes"/>
			<point x="832" y="558"/>
			<point x="879" y="687"/>
			<point x="879" y="794" type="curve" smooth="yes"/>
			<point x="879" y="897"/>
			<point x="821" y="935"/>
			<point x="748" y="935" type="curve" smooth="yes"/>
			<point x="586" y="935"/>
			<point x="389" y="760"/>
			<point x="203" y="410" type="curve"/>
			<point x="211" y="396" type="line"/>
		</contour>
	</outline>
	<anchor name="bottom" x="390" y="0"/>
	<anchor name="center" x="429" y="1210"/>
	<anchor name="top" x="497" y="1600"/>
</glyph>
<glyph name="l" format="2">
	<unicode hex="006C"/>
	<advance width="313"/>
	<outline>
		<contour>
			<point x="265" y="578" type="curve" smooth="yes"/>
			<point x="520" y="1520" type="line" smooth="yes"/>
			<point x="526" y="1541"/>
			<point x="530" y="1562"/>
			<point x="530" y="1570" type="curve" smooth="yes"/>
			<point x="530" y="1587"/>
			<point x="508" y="1600"/>
			<point x="483" y="1600" type="curve" smooth="yes"/>
			<point x="463" y="1600"/>
			<point x="454" y="1587"/>
			<point x="445" y="1552" type="curve" smooth="yes"/>
			<point x="192" y="596" type="line" smooth="yes"/>
			<point x="121" y="329"/>
			<point x="90" y="212"/>
			<point x="90" y="130" type="curve" smooth="yes"/>
			<point x="90" y="37"/>
			<point x="138" y="-12"/>
			<point x="235" y="-12" type="curve" smooth="yes"/>
			<point x="268" y="-12"/>
			<point x="291" y="6"/>
			<point x="291" y="34" type="curve" smooth="yes"/>
			<point x="291" y="50"/>
			<point x="283" y="63"/>
			<point x="254" y="63" type="curve" smooth="yes"/>
			<point x="187" y="63"/>
			<point x="170" y="82"/>
			<point x="170" y="144" type="curve" smooth="yes"/>
			<point x="170" y="214"/>
			<point x="197" y="326"/>
		</contour>
	</outline>
	<anchor name="bottom" x="144" y="0"/>
	<anchor name="center" x="291" y="840"/>
	<anchor name="top" x="500" y="1600"/>
	<anchor name="topright" x="562" y="1600"/>
</glyph>
<glyph name="t" format="2">
	<unicode hex="0074"/>
	<advance width="300"/>
	<outline>
		<contour>
			<point x="207" y="429" type="curve" smooth="yes"/>
			<point x="431" y="1221" type="line"/>
			<point x="433" y="1229"/>
			<point x="434" y="1237"/>
			<point x="434" y="1243" type="curve" smooth="yes"/>
			<point x="434" y="1264"/>
			<point x="420" y="1274"/>
			<point x="398" y="1274" type="curve" smooth="yes"/>
			<point x="375" y="1274"/>
			<point x="363" y="1262"/>
			<point x="353" y="1228" type="curve" smooth="yes"/>
			<point x="253" y="874"/>
			<point x="228" y="800"/>
			<point x="131" y="445" type="curve" smooth="yes"/>
			<point x="92" y="303"/>
			<point x="70" y="205"/>
			<point x="70" y="133" type="curve" smooth="yes"/>
			<point x="70" y="38"/>
			<point x="120" y="-12"/>
			<point x="226" y="-12" type="curve" smooth="yes"/>
			<point x="259" y="-12"/>
			<point x="282" y="6"/>
			<point x="282" y="34" type="curve" smooth="yes"/>
			<point x="282" y="50"/>
			<point x="274" y="63"/>
			<point x="245" y="63" type="curve" smooth="yes"/>
			<point x="168" y="63"/>
			<point x="150" y="83"/>
			<point x="150" y="149" type="curve" smooth="yes"/>
			<point x="150" y="198"/>
			<point x="167" y="289"/>
		</contour>
		<contour>
			<point x="123" y="840" type="curve" smooth="yes"/>
			<point x="382" y="844"/>
			<point x="511" y="848"/>
			<point x="557" y="850" type="curve" smooth="yes"/>
			<point x="600" y="852"/>
			<point x="620" y="863"/>
			<point x="620" y="887" type="curve" smooth="yes"/>
			<point x="620" y="905"/>
			<point x="607" y="910"/>
			<point x="576" y="910" type="curve" smooth="yes"/>
			<point x="145" y="910" type="line" smooth="yes"/>
			<point x="115" y="910"/>
			<point x="86" y="902"/>
			<point x="86" y="870" type="curve" smooth="yes"/>
			<point x="86" y="851"/>
			<point x="100" y="840"/>
		</contour>
	</outline>
	<anchor name="bottom" x="195" y="0"/>
	<anchor name="center" x="245" y="580"/>
	<anchor name="top" x="361" y="1120"/>
	<anchor name="topright" x="470" y="1381"/>
</glyph>
<glyph name="braceright" format="2">
	<unicode hex="007D"/>
	<advance width="654"/>
	<outline>
		<contour>
			<point x="604" y="679" type="curve" smooth="yes"/>
			<point x="604" y="702"/>
			<point x="594" y="717"/>
			<point x="535" y="717" type="curve" smooth="yes"/>
			<point x="496" y="717"/>
			<point x="448" y="712"/>
			<point x="419" y="701" type="curve" smooth="yes"/>
			<point x="301" y="658"/>
			<point x="236" y="530"/>
			<point x="236" y="329" type="curve" smooth="yes"/>
			<point x="236" y="-48"/>
			<point x="86" y="-200"/>
			<point x="-154" y="-265" type="curve" smooth="yes"/>
			<point x="-189" y="-274"/>
			<point x="-200" y="-277"/>
			<point x="-200" y="-290" type="curve" smooth="yes"/>
			<point x="-200" y="-303"/>
			<point x="-187" y="-312"/>
			<point x="-158" y="-312" type="curve" smooth="yes"/>
			<point x="81" y="-312"/>
			<point x="306" y="-100"/>
			<point x="306" y="295" type="curve" smooth="yes"/>
			<point x="306" y="525"/>
			<point x="334" y="595"/>
			<point x="451" y="659" type="curve"/>
			<point x="453" y="704" type="line"/>
			<point x="425" y="734"/>
			<point x="404" y="768"/>
			<point x="404" y="834" type="curve" smooth="yes"/>
			<point x="404" y="892"/>
			<point x="428" y="971"/>
			<point x="485" y="1096" type="curve" smooth="yes"/>
			<point x="526" y="1186"/>
			<point x="555" y="1275"/>
			<point x="555" y="1356" type="curve" smooth="yes"/>
			<point x="555" y="1479"/>
			<point x="490" y="1558"/>
			<point x="408" y="1602" type="curve" smooth="yes"/>
			<point x="378" y="1618"/>
			<point x="349" y="1625"/>
			<point x="330" y="1625" type="curve" smooth="yes"/>
			<point x="309" y="1625"/>
			<point x="301" y="1616"/>
			<point x="301" y="1606" type="curve" smooth="yes"/>
			<point x="301" y="1594"/>
			<point x="311" y="1586"/>
			<point x="332" y="1576" type="curve" smooth="yes"/>
			<point x="434" y="1528"/>
			<point x="481" y="1456"/>
			<point x="481" y="1365" type="curve" smooth="yes"/>
			<point x="481" y="1288"/>
			<point x="451" y="1189"/>
			<point x="412" y="1103" type="curve" smooth="yes"/>
			<point x="361" y="991"/>
			<point x="337" y="901"/>
			<point x="337" y="845" type="curve" smooth="yes"/>
			<point x="337" y="759"/>
			<point x="368" y="704"/>
			<point x="414" y="669" type="curve" smooth="yes"/>
			<point x="457" y="637"/>
			<point x="497" y="624"/>
			<point x="544" y="624" type="curve" smooth="yes"/>
			<point x="586" y="624"/>
			<point x="604" y="653"/>
		</contour>
	</outline>
</glyph>
<glyph name="cent" format="2">
	<unicode hex="00A2"/>
	<advance width="1200"/>
	<outline>
		<contour>
			<point x="600" y="204" type="curve" smooth="yes"/>
			<point x="715" y="204"/>
			<point x="841" y="264"/>
			<point x="918" y="338" type="curve" smooth="yes"/>
			<point x="939" y="359"/>
			<point x="951" y="375"/>
			<point x="951" y="394" type="curve" smooth="yes"/>
			<point x="951" y="405"/>
			<point x="939" y="418"/>
			<point x="925" y="418" type="curve" smooth="yes"/>
			<point x="911" y="418"/>
			<point x="903" y="406"/>
			<point x="879" y="386" type="curve" smooth="yes"/>
			<point x="794" y="316"/>
			<point x="706" y="279"/>
			<point x="617" y="279" type="curve" smooth="yes"/>
			<point x="447" y="279"/>
			<point x="341" y="374"/>
			<point x="341" y="576" type="curve" smooth="yes"/>
			<point x="341" y="838"/>
			<point x="522" y="1112"/>
			<point x="771" y="1112" type="curve" smooth="yes"/>
			<point x="844" y="1112"/>
			<point x="906" y="1077"/>
			<point x="965" y="1029" type="curve" smooth="yes"/>
			<point x="987" y="1011"/>
			<point x="993" y="1007"/>
			<point x="1003" y="1007" type="curve" smooth="yes"/>
			<point x="1018" y="1007"/>
			<point x="1035" y="1021"/>
			<point x="1035" y="1036" type="curve" smooth="yes"/>
			<point x="1035" y="1047"/>
			<point x="1031" y="1054"/>
			<point x="1021" y="1068" type="curve" smooth="yes"/>
			<point x="981" y="1123"/>
			<point x="878" y="1188"/>
			<point x="782" y="1188" type="curve" smooth="yes"/>
			<point x="497" y="1188"/>
			<point x="263" y="882"/>
			<point x="263" y="572" type="curve" smooth="yes"/>
			<point x="263" y="352"/>
			<point x="400" y="204"/>
		</contour>
		<contour>
			<point x="497" y="0" type="curve" smooth="yes"/>
			<point x="517" y="0"/>
			<point x="530" y="14"/>
			<point x="533" y="27" type="curve" smooth="yes"/>
			<point x="870" y="1329" type="line" smooth="yes"/>
			<point x="874" y="1344"/>
			<point x="875" y="1348"/>
			<point x="875" y="1356" type="curve" smooth="yes"/>
			<point x="875" y="1376"/>
			<point x="858" y="1389"/>
			<point x="837" y="1389" type="curve" smooth="yes"/>
			<point x="820" y="1389"/>
			<point x="806" y="1377"/>
			<point x="802" y="1362" type="curve" smooth="yes"/>
			<point x="463" y="59" type="line" smooth="yes"/>
			<point x="460" y="46"/>
			<point x="459" y="41"/>
			<point x="459" y="37" type="curve" smooth="yes"/>
			<point x="459" y="11"/>
			<point x="476" y="0"/>
		</contour>
	</outline>
</glyph>
<glyph name="sterling" format="2">
	<unicode hex="00A3"/>
	<advance width="1200"/>
	<outline>
		<contour>
			<point x="28" y="85" type="curve" smooth="yes"/>
			<point x="28" y="27"/>
			<point x="74" y="-11"/>
			<point x="142" y="-11" type="curve" smooth="yes"/>
			<point x="385" y="-11"/>
			<point x="469" y="485"/>
			<point x="509" y="702" type="curve" smooth="yes"/>
			<point x="586" y="1119"/>
			<point x="685" y="1335"/>
			<point x="903" y="1335" type="curve" smooth="yes"/>
			<point x="954" y="1335"/>
			<point x="1001" y="1323"/>
			<point x="1049" y="1298" type="curve" smooth="yes"/>
			<point x="1064" y="1290"/>
			<point x="1074" y="1285"/>
			<point x="1083" y="1285" type="curve" smooth="yes"/>
			<point x="1100" y="1285"/>
			<point x="1115" y="1302"/>
			<point x="1115" y="1318" type="curve" smooth="yes"/>
			<point x="1115" y="1330"/>
			<point x="1105" y="1345"/>
			<point x="1072" y="1366" type="curve" smooth="yes"/>
			<point x="1029" y="1393"/>
			<point x="978" y="1410"/>
			<point x="908" y="1410" type="curve" smooth="yes"/>
			<point x="636" y="1410"/>
			<point x="511" y="1158"/>
			<point x="430" y="708" type="curve" smooth="yes"/>
			<point x="397" y="525"/>
			<point x="318" y="61"/>
			<point x="149" y="61" type="curve" smooth="yes"/>
			<point x="121" y="61"/>
			<point x="104" y="73"/>
			<point x="104" y="94" type="curve" smooth="yes"/>
			<point x="104" y="123"/>
			<point x="138" y="148"/>
			<point x="200" y="148" type="curve" smooth="yes"/>
			<point x="358" y="148"/>
			<point x="509" y="-11"/>
			<point x="737" y="-11" type="curve" smooth="yes"/>
			<point x="883" y="-11"/>
			<point x="992" y="54"/>
			<point x="1052" y="142" type="curve" smooth="yes"/>
			<point x="1069" y="167"/>
			<point x="1075" y="184"/>
			<point x="1075" y="198" type="curve" smooth="yes"/>
			<point x="1075" y="217"/>
			<point x="1063" y="226"/>
			<point x="1050" y="226" type="curve" smooth="yes"/>
			<point x="1036" y="226"/>
			<point x="1029" y="218"/>
			<point x="1004" y="185" type="curve" smooth="yes"/>
			<point x="945" y="107"/>
			<point x="875" y="65"/>
			<point x="750" y="65" type="curve" smooth="yes"/>
			<point x="530" y="65"/>
			<point x="386" y="217"/>
			<point x="210" y="217" type="curve" smooth="yes"/>
			<point x="99" y="217"/>
			<point x="28" y="156"/>
		</contour>
		<contour>
			<point x="232" y="735" type="curve" smooth="yes"/>
			<point x="202" y="734"/>
			<point x="196" y="717"/>
			<point x="196" y="703" type="curve" smooth="yes"/>
			<point x="196" y="674"/>
			<point x="223" y="666"/>
			<point x="289" y="666" type="curve" smooth="yes"/>
			<point x="370" y="666"/>
			<point x="771" y="678"/>
			<point x="858" y="685" type="curve" smooth="yes"/>
			<point x="911" y="689"/>
			<point x="932" y="702"/>
			<point x="932" y="729" type="curve" smooth="yes"/>
			<point x="932" y="749"/>
			<point x="921" y="752"/>
			<point x="887" y="752" type="curve" smooth="yes"/>
			<point x="859" y="752"/>
			<point x="652" y="747"/>
			<point x="562" y="744" type="curve" smooth="yes"/>
			<point x="475" y="741"/>
			<point x="287" y="736"/>
		</contour>
	</outline>
</glyph>
<glyph name="yen" format="2">
	<unicode hex="00A5"/>
	<advance width="1200"/>
	<outline>
		<contour>
			<point x="437" y="-11" type="curve" smooth="yes"/>
			<point x="459" y="-11"/>
			<point x="473" y="2"/>
			<point x="481" y="33" type="curve" smooth="yes"/>
			<point x="620" y="576" type="line"/>
			<point x="1262" y="1308" type="line" smooth="yes"/>
			<point x="1282" y="1331"/>
			<point x="1294" y="1350"/>
			<point x="1294" y="1366" type="curve" smooth="yes"/>
			<point x="1294" y="1383"/>
			<point x="1276" y="1400"/>
			<point x="1256" y="1400" type="curve" smooth="yes"/>
			<point x="1241" y="1400"/>
			<point x="1232" y="1394"/>
			<point x="1204" y="1362" type="curve" smooth="yes"/>
			<point x="595" y="667" type="line"/>
			<point x="366" y="1363" type="line" smooth="yes"/>
			<point x="356" y="1393"/>
			<point x="348" y="1400"/>
			<point x="332" y="1400" type="curve" smooth="yes"/>
			<point x="307" y="1400"/>
			<point x="286" y="1385"/>
			<point x="286" y="1365" type="curve" smooth="yes"/>
			<point x="286" y="1349"/>
			<point x="291" y="1331"/>
			<point x="297" y="1311" type="curve" smooth="yes"/>
			<point x="537" y="576" type="line"/>
			<point x="399" y="69" type="line" smooth="yes"/>
			<point x="394" y="51"/>
			<point x="391" y="35"/>
			<point x="391" y="26" type="curve" smooth="yes"/>
			<point x="391" y="0"/>
			<point x="412" y="-11"/>
		</contour>
		<contour>
			<point x="184" y="669" type="curve" smooth="yes"/>
			<point x="532" y="669" type="line"/>
			<point x="509" y="743" type="line"/>
			<point x="197" y="743" type="line" smooth="yes"/>
			<point x="172" y="743"/>
			<point x="145" y="731"/>
			<point x="145" y="700" type="curve" smooth="yes"/>
			<point x="145" y="679"/>
			<point x="159" y="669"/>
		</contour>
		<contour>
			<point x="1061" y="743" type="curve" smooth="yes"/>
			<point x="729" y="743" type="line"/>
			<point x="682" y="669" type="line"/>
			<point x="1048" y="669" type="line" smooth="yes"/>
			<point x="1074" y="669"/>
			<point x="1101" y="682"/>
			<point x="1101" y="710" type="curve" smooth="yes"/>
			<point x="1101" y="733"/>
			<point x="1084" y="743"/>
		</contour>
		<contour>
			<point x="102" y="363" type="curve" smooth="yes"/>
			<point x="966" y="363" type="line" smooth="yes"/>
			<point x="991" y="363"/>
			<point x="1019" y="375"/>
			<point x="1019" y="404" type="curve" smooth="yes"/>
			<point x="1019" y="428"/>
			<point x="1001" y="437"/>
			<point x="978" y="437" type="curve" smooth="yes"/>
			<point x="114" y="437" type="line" smooth="yes"/>
			<point x="91" y="437"/>
			<point x="63" y="426"/>
			<point x="63" y="393" type="curve" smooth="yes"/>
			<point x="63" y="373"/>
			<point x="77" y="363"/>
		</contour>
	</outline>
</glyph>
<glyph name="section" format="2">
	<unicode hex="00A7"/>
	<advance width="1063"/>
	<outline>
		<contour>
			<point x="477" y="128" type="curve"/>
			<point x="507" y="64" type="line"/>
			<point x="709" y="120"/>
			<point x="846" y="263"/>
			<point x="846" y="453" type="curve" smooth="yes"/>
			<point x="846" y="628"/>
			<point x="734" y="735"/>
			<point x="637" y="827" type="curve" smooth="yes"/>
			<point x="558" y="902"/>
			<point x="475" y="984"/>
			<point x="475" y="1101" type="curve" smooth="yes"/>
			<point x="475" y="1230"/>
			<point x="582" y="1340"/>
			<point x="746" y="1340" type="curve" smooth="yes"/>
			<point x="813" y="1340"/>
			<point x="866" y="1326"/>
			<point x="918" y="1299" type="curve" smooth="yes"/>
			<point x="941" y="1287"/>
			<point x="951" y="1283"/>
			<point x="960" y="1283" type="curve" smooth="yes"/>
			<point x="977" y="1283"/>
			<point x="992" y="1300"/>
			<point x="992" y="1318" type="curve" smooth="yes"/>
			<point x="992" y="1330"/>
			<point x="980" y="1344"/>
			<point x="946" y="1364" type="curve" smooth="yes"/>
			<point x="900" y="1391"/>
			<point x="834" y="1414"/>
			<point x="747" y="1414" type="curve" smooth="yes"/>
			<point x="546" y="1414"/>
			<point x="395" y="1276"/>
			<point x="395" y="1091" type="curve" smooth="yes"/>
			<point x="395" y="946"/>
			<point x="483" y="861"/>
			<point x="579" y="770" type="curve" smooth="yes"/>
			<point x="670" y="684"/>
			<point x="766" y="592"/>
			<point x="766" y="440" type="curve" smooth="yes"/>
			<point x="766" y="292"/>
			<point x="664" y="181"/>
		</contour>
		<contour>
			<point x="514" y="839" type="curve"/>
			<point x="483" y="903" type="line"/>
			<point x="282" y="847"/>
			<point x="144" y="705"/>
			<point x="144" y="514" type="curve" smooth="yes"/>
			<point x="144" y="339"/>
			<point x="257" y="232"/>
			<point x="353" y="141" type="curve" smooth="yes"/>
			<point x="441" y="58"/>
			<point x="516" y="-21"/>
			<point x="516" y="-134" type="curve" smooth="yes"/>
			<point x="516" y="-263"/>
			<point x="409" y="-373"/>
			<point x="245" y="-373" type="curve" smooth="yes"/>
			<point x="183" y="-373"/>
			<point x="129" y="-361"/>
			<point x="74" y="-332" type="curve" smooth="yes"/>
			<point x="48" y="-318"/>
			<point x="38" y="-315"/>
			<point x="31" y="-315" type="curve" smooth="yes"/>
			<point x="14" y="-315"/>
			<point x="-1" y="-333"/>
			<point x="-1" y="-351" type="curve" smooth="yes"/>
			<point x="-1" y="-360"/>
			<point x="7" y="-374"/>
			<point x="42" y="-395" type="curve" smooth="yes"/>
			<point x="90" y="-424"/>
			<point x="157" y="-447"/>
			<point x="243" y="-447" type="curve" smooth="yes"/>
			<point x="444" y="-447"/>
			<point x="595" y="-310"/>
			<point x="595" y="-123" type="curve" smooth="yes"/>
			<point x="595" y="22"/>
			<point x="505" y="109"/>
			<point x="412" y="197" type="curve" smooth="yes"/>
			<point x="320" y="284"/>
			<point x="225" y="376"/>
			<point x="225" y="528" type="curve" smooth="yes"/>
			<point x="225" y="675"/>
			<point x="327" y="786"/>
		</contour>
	</outline>
	<anchor name="bottom" x="444" y="0"/>
</glyph>
<glyph name="copyright" format="2">
	<unicode hex="00A9"/>
	<advance width="2163"/>
	<outline>
		<contour>
			<point x="1073" y="176" type="curve" smooth="yes"/>
			<point x="1226" y="176"/>
			<point x="1355" y="234"/>
			<point x="1465" y="333" type="curve" smooth="yes"/>
			<point x="1494" y="360"/>
			<point x="1500" y="373"/>
			<point x="1500" y="385" type="curve" smooth="yes"/>
			<point x="1500" y="402"/>
			<point x="1481" y="417"/>
			<point x="1468" y="417" type="curve" smooth="yes"/>
			<point x="1455" y="417"/>
			<point x="1442" y="406"/>
			<point x="1425" y="391" type="curve" smooth="yes"/>
			<point x="1323" y="300"/>
			<point x="1215" y="252"/>
			<point x="1082" y="252" type="curve" smooth="yes"/>
			<point x="832" y="252"/>
			<point x="695" y="422"/>
			<point x="695" y="713" type="curve" smooth="yes"/>
			<point x="695" y="1073"/>
			<point x="896" y="1317"/>
			<point x="1160" y="1317" type="curve" smooth="yes"/>
			<point x="1253" y="1317"/>
			<point x="1324" y="1285"/>
			<point x="1396" y="1233" type="curve" smooth="yes"/>
			<point x="1417" y="1218"/>
			<point x="1426" y="1212"/>
			<point x="1437" y="1212" type="curve" smooth="yes"/>
			<point x="1455" y="1212"/>
			<point x="1468" y="1228"/>
			<point x="1468" y="1244" type="curve" smooth="yes"/>
			<point x="1468" y="1261"/>
			<point x="1454" y="1279"/>
			<point x="1415" y="1308" type="curve" smooth="yes"/>
			<point x="1342" y="1361"/>
			<point x="1257" y="1393"/>
			<point x="1153" y="1393" type="curve" smooth="yes"/>
			<point x="852" y="1393"/>
			<point x="614" y="1118"/>
			<point x="614" y="719" type="curve" smooth="yes"/>
			<point x="614" y="382"/>
			<point x="783" y="176"/>
		</contour>
		<contour>
			<point x="1022" y="-222" type="curve" smooth="yes"/>
			<point x="1619" y="-222"/>
			<point x="2053" y="200"/>
			<point x="2053" y="850" type="curve" smooth="yes"/>
			<point x="2053" y="1417"/>
			<point x="1723" y="1778"/>
			<point x="1171" y="1778" type="curve" smooth="yes"/>
			<point x="574" y="1778"/>
			<point x="140" y="1357"/>
			<point x="140" y="707" type="curve" smooth="yes"/>
			<point x="140" y="140"/>
			<point x="470" y="-222"/>
		</contour>
		<contour>
			<point x="1025" y="-147" type="curve" smooth="yes"/>
			<point x="517" y="-147"/>
			<point x="219" y="185"/>
			<point x="219" y="710" type="curve" smooth="yes"/>
			<point x="219" y="1330"/>
			<point x="636" y="1703"/>
			<point x="1176" y="1703" type="curve" smooth="yes"/>
			<point x="1683" y="1703"/>
			<point x="1974" y="1375"/>
			<point x="1974" y="851" type="curve" smooth="yes"/>
			<point x="1974" y="233"/>
			<point x="1568" y="-147"/>
		</contour>
	</outline>
</glyph>
<glyph name="ordfeminine" format="2">
	<unicode hex="00AA"/>
	<advance width="895"/>
	<outline>
		<contour>
			<point x="675" y="1434" type="curve"/>
			<point x="691" y="1492" type="line"/>
			<point x="597" y="1536"/>
			<point x="521" y="1557"/>
			<point x="470" y="1557" type="curve" smooth="yes"/>
			<point x="282" y="1557"/>
			<point x="100" y="1292"/>
			<point x="100" y="1007" type="curve" smooth="yes"/>
			<point x="100" y="864"/>
			<point x="153" y="795"/>
			<point x="225" y="795" type="curve" smooth="yes"/>
			<point x="354" y="795"/>
			<point x="489" y="956"/>
			<point x="591" y="1141" type="curve"/>
			<point x="589" y="1148" type="line"/>
			<point x="538" y="990"/>
			<point x="527" y="944"/>
			<point x="527" y="904" type="curve" smooth="yes"/>
			<point x="527" y="838"/>
			<point x="567" y="795"/>
			<point x="632" y="795" type="curve" smooth="yes"/>
			<point x="731" y="795"/>
			<point x="855" y="905"/>
			<point x="855" y="944" type="curve" smooth="yes"/>
			<point x="855" y="959"/>
			<point x="842" y="970"/>
			<point x="829" y="970" type="curve" smooth="yes"/>
			<point x="821" y="970"/>
			<point x="812" y="963"/>
			<point x="789" y="941" type="curve" smooth="yes"/>
			<point x="738" y="894"/>
			<point x="685" y="864"/>
			<point x="648" y="864" type="curve" smooth="yes"/>
			<point x="617" y="864"/>
			<point x="602" y="879"/>
			<point x="602" y="917" type="curve" smooth="yes"/>
			<point x="602" y="946"/>
			<point x="610" y="986"/>
			<point x="632" y="1064" type="curve" smooth="yes"/>
			<point x="745" y="1465" type="line" smooth="yes"/>
			<point x="753" y="1493"/>
			<point x="758" y="1516"/>
			<point x="758" y="1526" type="curve" smooth="yes"/>
			<point x="758" y="1550"/>
			<point x="739" y="1557"/>
			<point x="719" y="1557" type="curve" smooth="yes"/>
			<point x="700" y="1557"/>
			<point x="687" y="1542"/>
			<point x="680" y="1517" type="curve" smooth="yes"/>
			<point x="653" y="1420" type="line" smooth="yes"/>
			<point x="568" y="1115"/>
			<point x="348" y="864"/>
			<point x="244" y="864" type="curve" smooth="yes"/>
			<point x="203" y="864"/>
			<point x="175" y="903"/>
			<point x="175" y="1019" type="curve" smooth="yes"/>
			<point x="175" y="1254"/>
			<point x="325" y="1488"/>
			<point x="475" y="1488" type="curve" smooth="yes"/>
			<point x="531" y="1488"/>
			<point x="592" y="1473"/>
		</contour>
	</outline>
</glyph>
<glyph name="threesuperior" format="2">
	<unicode hex="00B3"/>
	<advance width="769"/>
	<outline>
		<contour>
			<point x="309" y="988" type="curve" smooth="yes"/>
			<point x="493" y="988"/>
			<point x="633" y="1099"/>
			<point x="633" y="1229" type="curve" smooth="yes"/>
			<point x="633" y="1337"/>
			<point x="567" y="1412"/>
			<point x="445" y="1443" type="curve"/>
			<point x="451" y="1421" type="line"/>
			<point x="583" y="1458"/>
			<point x="699" y="1546"/>
			<point x="699" y="1665" type="curve" smooth="yes"/>
			<point x="699" y="1758"/>
			<point x="611" y="1828"/>
			<point x="485" y="1828" type="curve" smooth="yes"/>
			<point x="389" y="1828"/>
			<point x="300" y="1804"/>
			<point x="221" y="1765" type="curve" smooth="yes"/>
			<point x="189" y="1749"/>
			<point x="177" y="1738"/>
			<point x="177" y="1720" type="curve" smooth="yes"/>
			<point x="177" y="1703"/>
			<point x="189" y="1688"/>
			<point x="202" y="1688" type="curve" smooth="yes"/>
			<point x="212" y="1688"/>
			<point x="218" y="1689"/>
			<point x="242" y="1700" type="curve" smooth="yes"/>
			<point x="315" y="1734"/>
			<point x="391" y="1751"/>
			<point x="463" y="1751" type="curve" smooth="yes"/>
			<point x="552" y="1751"/>
			<point x="621" y="1710"/>
			<point x="621" y="1634" type="curve" smooth="yes"/>
			<point x="621" y="1562"/>
			<point x="530" y="1497"/>
			<point x="401" y="1463" type="curve"/>
			<point x="367" y="1472"/>
			<point x="337" y="1475"/>
			<point x="316" y="1475" type="curve" smooth="yes"/>
			<point x="287" y="1475"/>
			<point x="257" y="1457"/>
			<point x="257" y="1423" type="curve" smooth="yes"/>
			<point x="257" y="1399"/>
			<point x="274" y="1382"/>
			<point x="303" y="1382" type="curve" smooth="yes"/>
			<point x="323" y="1382"/>
			<point x="352" y="1387"/>
			<point x="397" y="1397" type="curve"/>
			<point x="494" y="1374"/>
			<point x="556" y="1315"/>
			<point x="556" y="1238" type="curve" smooth="yes"/>
			<point x="556" y="1139"/>
			<point x="451" y="1065"/>
			<point x="315" y="1065" type="curve" smooth="yes"/>
			<point x="216" y="1065"/>
			<point x="145" y="1084"/>
			<point x="80" y="1116" type="curve" smooth="yes"/>
			<point x="64" y="1124"/>
			<point x="57" y="1126"/>
			<point x="50" y="1126" type="curve" smooth="yes"/>
			<point x="31" y="1126"/>
			<point x="14" y="1102"/>
			<point x="14" y="1081" type="curve" smooth="yes"/>
			<point x="14" y="1070"/>
			<point x="24" y="1057"/>
			<point x="42" y="1047" type="curve" smooth="yes"/>
			<point x="91" y="1020"/>
			<point x="180" y="988"/>
		</contour>
	</outline>
</glyph>
<glyph name="ordmasculine" format="2">
	<unicode hex="00BA"/>
	<advance width="772"/>
	<outline>
		<contour>
			<point x="150" y="1016" type="curve" smooth="yes"/>
			<point x="150" y="869"/>
			<point x="229" y="795"/>
			<point x="343" y="795" type="curve" smooth="yes"/>
			<point x="559" y="795"/>
			<point x="772" y="1061"/>
			<point x="772" y="1332" type="curve" smooth="yes"/>
			<point x="772" y="1474"/>
			<point x="690" y="1557"/>
			<point x="580" y="1557" type="curve" smooth="yes"/>
			<point x="336" y="1557"/>
			<point x="150" y="1284"/>
		</contour>
		<contour>
			<point x="225" y="1029" type="curve" smooth="yes"/>
			<point x="225" y="1244"/>
			<point x="378" y="1490"/>
			<point x="564" y="1490" type="curve" smooth="yes"/>
			<point x="642" y="1490"/>
			<point x="697" y="1429"/>
			<point x="697" y="1314" type="curve" smooth="yes"/>
			<point x="697" y="1090"/>
			<point x="519" y="862"/>
			<point x="357" y="862" type="curve" smooth="yes"/>
			<point x="273" y="862"/>
			<point x="225" y="919"/>
		</contour>
	</outline>
</glyph>
<glyph name="AE" format="2">
	<unicode hex="00C6"/>
	<advance width="1791"/>
	<outline>
		<contour>
			<point x="1049" y="1357" type="curve" smooth="yes"/>
			<point x="641" y="912"/>
			<point x="207" y="453"/>
			<point x="-167" y="76" type="curve" smooth="yes"/>
			<point x="-188" y="55"/>
			<point x="-200" y="45"/>
			<point x="-200" y="28" type="curve" smooth="yes"/>
			<point x="-200" y="6"/>
			<point x="-180" y="-11"/>
			<point x="-160" y="-11" type="curve" smooth="yes"/>
			<point x="-144" y="-11"/>
			<point x="-132" y="-5"/>
			<point x="-105" y="23" type="curve" smooth="yes"/>
			<point x="269" y="411"/>
			<point x="697" y="859"/>
			<point x="1089" y="1297" type="curve"/>
			<point x="1080" y="1309" type="line"/>
			<point x="1067" y="1261"/>
			<point x="1057" y="1210"/>
			<point x="1041" y="1142" type="curve" smooth="yes"/>
			<point x="819" y="202" type="line" smooth="yes"/>
			<point x="809" y="160"/>
			<point x="804" y="124"/>
			<point x="804" y="103" type="curve" smooth="yes"/>
			<point x="804" y="36"/>
			<point x="855" y="0"/>
			<point x="932" y="0" type="curve" smooth="yes"/>
			<point x="1481" y="0" type="line" smooth="yes"/>
			<point x="1514" y="0"/>
			<point x="1534" y="17"/>
			<point x="1534" y="40" type="curve" smooth="yes"/>
			<point x="1534" y="60"/>
			<point x="1516" y="75"/>
			<point x="1492" y="75" type="curve" smooth="yes"/>
			<point x="939" y="75" type="line" smooth="yes"/>
			<point x="894" y="75"/>
			<point x="880" y="85"/>
			<point x="880" y="111" type="curve" smooth="yes"/>
			<point x="880" y="126"/>
			<point x="885" y="161"/>
			<point x="895" y="205" type="curve" smooth="yes"/>
			<point x="1152" y="1331" type="line"/>
			<point x="1372" y="1331"/>
			<point x="1526" y="1332"/>
			<point x="1721" y="1336" type="curve" smooth="yes"/>
			<point x="1753" y="1337"/>
			<point x="1771" y="1352"/>
			<point x="1771" y="1375" type="curve" smooth="yes"/>
			<point x="1771" y="1395"/>
			<point x="1755" y="1411"/>
			<point x="1734" y="1411" type="curve" smooth="yes"/>
			<point x="1623" y="1411"/>
			<point x="1158" y="1403"/>
			<point x="1122" y="1401" type="curve" smooth="yes"/>
			<point x="1090" y="1399"/>
			<point x="1077" y="1388"/>
		</contour>
		<contour>
			<point x="396" y="666" type="curve" smooth="yes"/>
			<point x="437" y="666"/>
			<point x="1445" y="668"/>
			<point x="1473" y="669" type="curve" smooth="yes"/>
			<point x="1505" y="670"/>
			<point x="1525" y="685"/>
			<point x="1525" y="709" type="curve" smooth="yes"/>
			<point x="1525" y="728"/>
			<point x="1507" y="743"/>
			<point x="1484" y="743" type="curve" smooth="yes"/>
			<point x="1448" y="743"/>
			<point x="1232" y="741"/>
			<point x="992" y="739" type="curve"/>
			<point x="379" y="735" type="line" smooth="yes"/>
			<point x="351" y="735"/>
			<point x="339" y="721"/>
			<point x="339" y="705" type="curve" smooth="yes"/>
			<point x="339" y="683"/>
			<point x="357" y="666"/>
		</contour>
	</outline>
	<anchor name="bottom" x="785" y="0"/>
	<anchor name="top" x="1413" y="1400"/>
</glyph>
<glyph name="multiply" format="2">
	<unicode hex="00D7"/>
	<advance width="1200"/>
	<outline>
		<contour>
			<point x="1002" y="1183" type="curve" smooth="yes"/>
			<point x="597" y="835" type="line"/>
			<point x="633" y="766" type="line"/>
			<point x="1051" y="1126" type="line" smooth="yes"/>
			<point x="1059" y="1133"/>
			<point x="1065" y="1144"/>
			<point x="1065" y="1155" type="curve" smooth="yes"/>
			<point x="1065" y="1176"/>
			<point x="1048" y="1193"/>
			<point x="1027" y="1193" type="curve" smooth="yes"/>
			<point x="1018" y="1193"/>
			<point x="1009" y="1189"/>
		</contour>
		<contour>
			<point x="201" y="394" type="curve" smooth="yes"/>
			<point x="599" y="736" type="line"/>
			<point x="563" y="805" type="line"/>
			<point x="152" y="451" type="line" smooth="yes"/>
			<point x="144" y="444"/>
			<point x="139" y="433"/>
			<point x="139" y="422" type="curve" smooth="yes"/>
			<point x="139" y="401"/>
			<point x="155" y="385"/>
			<point x="176" y="385" type="curve" smooth="yes"/>
			<point x="185" y="385"/>
			<point x="194" y="388"/>
		</contour>
		<contour>
			<point x="373" y="1137" type="curve" smooth="yes"/>
			<point x="753" y="405" type="line" smooth="yes"/>
			<point x="759" y="393"/>
			<point x="772" y="385"/>
			<point x="787" y="385" type="curve" smooth="yes"/>
			<point x="808" y="385"/>
			<point x="825" y="401"/>
			<point x="825" y="422" type="curve" smooth="yes"/>
			<point x="825" y="428"/>
			<point x="823" y="435"/>
			<point x="820" y="440" type="curve" smooth="yes"/>
			<point x="440" y="1172" type="line" smooth="yes"/>
			<point x="434" y="1184"/>
			<point x="421" y="1193"/>
			<point x="406" y="1193" type="curve" smooth="yes"/>
			<point x="385" y="1193"/>
			<point x="369" y="1176"/>
			<point x="369" y="1155" type="curve" smooth="yes"/>
			<point x="369" y="1149"/>
			<point x="370" y="1142"/>
		</contour>
	</outline>
</glyph>
<glyph name="Thorn" format="2">
	<unicode hex="00DE"/>
	<advance width="1222"/>
	<outline>
		<contour>
			<point x="368" y="184" type="curve" smooth="yes"/>
			<point x="349" y="184"/>
			<point x="342" y="173"/>
			<point x="342" y="157" type="curve" smooth="yes"/>
			<point x="342" y="139"/>
			<point x="348" y="120"/>
			<point x="364" y="96" type="curve" smooth="yes"/>
			<point x="407" y="32"/>
			<point x="475" y="-12"/>
			<point x="575" y="-12" type="curve" smooth="yes"/>
			<point x="818" y="-12"/>
			<point x="1085" y="295"/>
			<point x="1085" y="686" type="curve" smooth="yes"/>
			<point x="1085" y="928"/>
			<point x="1001" y="1058"/>
			<point x="854" y="1058" type="curve" smooth="yes"/>
			<point x="672" y="1058"/>
			<point x="520" y="891"/>
			<point x="364" y="531" type="curve"/>
			<point x="371" y="530" type="line"/>
			<point x="456" y="867"/>
			<point x="515" y="1086"/>
			<point x="549" y="1216" type="curve" smooth="yes"/>
			<point x="571" y="1302"/>
			<point x="584" y="1354"/>
			<point x="584" y="1363" type="curve" smooth="yes"/>
			<point x="584" y="1386"/>
			<point x="569" y="1400"/>
			<point x="544" y="1400" type="curve" smooth="yes"/>
			<point x="524" y="1400"/>
			<point x="513" y="1388"/>
			<point x="491" y="1309" type="curve" smooth="yes"/>
			<point x="446" y="1142"/>
			<point x="354" y="686"/>
			<point x="315" y="484" type="curve"/>
			<point x="191" y="97"/>
			<point x="110" y="-265"/>
			<point x="110" y="-396" type="curve" smooth="yes"/>
			<point x="110" y="-442"/>
			<point x="122" y="-470"/>
			<point x="154" y="-470" type="curve" smooth="yes"/>
			<point x="184" y="-470"/>
			<point x="204" y="-457"/>
			<point x="212" y="-403" type="curve" smooth="yes"/>
			<point x="245" y="-167"/>
			<point x="271" y="-2"/>
			<point x="324" y="248" type="curve"/>
			<point x="366" y="403"/>
			<point x="398" y="479"/>
			<point x="435" y="554" type="curve" smooth="yes"/>
			<point x="574" y="837"/>
			<point x="709" y="983"/>
			<point x="844" y="983" type="curve" smooth="yes"/>
			<point x="949" y="983"/>
			<point x="1005" y="883"/>
			<point x="1005" y="686" type="curve" smooth="yes"/>
			<point x="1005" y="327"/>
			<point x="781" y="63"/>
			<point x="575" y="63" type="curve" smooth="yes"/>
			<point x="504" y="63"/>
			<point x="452" y="89"/>
			<point x="402" y="159" type="curve" smooth="yes"/>
			<point x="390" y="176"/>
			<point x="381" y="184"/>
		</contour>
	</outline>
</glyph>
<glyph name="germandbls" format="2">
	<unicode hex="00DF"/>
	<advance width="973"/>
	<outline>
		<contour>
			<point x="357" y="-50" type="curve" smooth="yes"/>
			<point x="370" y="-50"/>
			<point x="385" y="-48"/>
			<point x="409" y="-43" type="curve" smooth="yes"/>
			<point x="706" y="21"/>
			<point x="875" y="155"/>
			<point x="875" y="349" type="curve" smooth="yes"/>
			<point x="875" y="435"/>
			<point x="840" y="503"/>
			<point x="725" y="617" type="curve" smooth="yes"/>
			<point x="632" y="709"/>
			<point x="609" y="750"/>
			<point x="609" y="800" type="curve" smooth="yes"/>
			<point x="609" y="874"/>
			<point x="634" y="907"/>
			<point x="790" y="1099" type="curve" smooth="yes"/>
			<point x="938" y="1282"/>
			<point x="985" y="1363"/>
			<point x="985" y="1460" type="curve" smooth="yes"/>
			<point x="985" y="1571"/>
			<point x="904" y="1625"/>
			<point x="814" y="1625" type="curve" smooth="yes"/>
			<point x="628" y="1625"/>
			<point x="491" y="1477"/>
			<point x="337" y="925" type="curve"/>
			<point x="332" y="928"/>
			<point x="321" y="931"/>
			<point x="315" y="931" type="curve" smooth="yes"/>
			<point x="292" y="931"/>
			<point x="277" y="901"/>
			<point x="269" y="840" type="curve"/>
			<point x="260" y="700"/>
			<point x="250" y="614"/>
			<point x="235" y="511" type="curve"/>
			<point x="171" y="292"/>
			<point x="100" y="25"/>
			<point x="100" y="-27" type="curve" smooth="yes"/>
			<point x="100" y="-49"/>
			<point x="127" y="-58"/>
			<point x="145" y="-58" type="curve" smooth="yes"/>
			<point x="161" y="-58"/>
			<point x="170" y="-53"/>
			<point x="176" y="-33" type="curve" smooth="yes"/>
			<point x="235" y="163"/>
			<point x="287" y="390"/>
			<point x="323" y="614" type="curve"/>
			<point x="398" y="906" type="line" smooth="yes"/>
			<point x="521" y="1386"/>
			<point x="659" y="1550"/>
			<point x="801" y="1550" type="curve" smooth="yes"/>
			<point x="867" y="1550"/>
			<point x="910" y="1513"/>
			<point x="910" y="1449" type="curve" smooth="yes"/>
			<point x="910" y="1377"/>
			<point x="875" y="1304"/>
			<point x="738" y="1140" type="curve" smooth="yes"/>
			<point x="582" y="953"/>
			<point x="534" y="885"/>
			<point x="534" y="789" type="curve" smooth="yes"/>
			<point x="534" y="727"/>
			<point x="569" y="670"/>
			<point x="660" y="582" type="curve" smooth="yes"/>
			<point x="771" y="474"/>
			<point x="800" y="423"/>
			<point x="800" y="338" type="curve" smooth="yes"/>
			<point x="800" y="190"/>
			<point x="663" y="85"/>
			<point x="357" y="26" type="curve" smooth="yes"/>
			<point x="332" y="21"/>
			<point x="322" y="8"/>
			<point x="322" y="-12" type="curve" smooth="yes"/>
			<point x="322" y="-34"/>
			<point x="335" y="-50"/>
		</contour>
	</outline>
</glyph>
<glyph name="eth" format="2">
	<unicode hex="00F0"/>
	<advance width="975"/>
	<outline>
		<contour>
			<point x="279" y="-12" type="curve" smooth="yes"/>
			<point x="547" y="-12"/>
			<point x="835" y="307"/>
			<point x="835" y="855" type="curve" smooth="yes"/>
			<point x="835" y="1145"/>
			<point x="739" y="1377"/>
			<point x="554" y="1562" type="curve" smooth="yes"/>
			<point x="534" y="1582"/>
			<point x="510" y="1600"/>
			<point x="490" y="1600" type="curve" smooth="yes"/>
			<point x="476" y="1600"/>
			<point x="460" y="1590"/>
			<point x="460" y="1570" type="curve" smooth="yes"/>
			<point x="460" y="1561"/>
			<point x="465" y="1554"/>
			<point x="485" y="1535" type="curve" smooth="yes"/>
			<point x="667" y="1357"/>
			<point x="755" y="1132"/>
			<point x="755" y="830" type="curve" smooth="yes"/>
			<point x="755" y="348"/>
			<point x="504" y="63"/>
			<point x="292" y="63" type="curve" smooth="yes"/>
			<point x="184" y="63"/>
			<point x="118" y="138"/>
			<point x="118" y="285" type="curve" smooth="yes"/>
			<point x="118" y="453"/>
			<point x="192" y="619"/>
			<point x="294" y="734" type="curve" smooth="yes"/>
			<point x="381" y="832"/>
			<point x="481" y="867"/>
			<point x="565" y="867" type="curve" smooth="yes"/>
			<point x="590" y="867"/>
			<point x="608" y="865"/>
			<point x="630" y="859" type="curve" smooth="yes"/>
			<point x="645" y="855"/>
			<point x="655" y="853"/>
			<point x="662" y="853" type="curve" smooth="yes"/>
			<point x="677" y="853"/>
			<point x="687" y="866"/>
			<point x="687" y="876" type="curve" smooth="yes"/>
			<point x="687" y="899"/>
			<point x="640" y="931"/>
			<point x="553" y="931" type="curve" smooth="yes"/>
			<point x="439" y="931"/>
			<point x="322" y="875"/>
			<point x="226" y="763" type="curve" smooth="yes"/>
			<point x="132" y="653"/>
			<point x="38" y="471"/>
			<point x="38" y="275" type="curve" smooth="yes"/>
			<point x="38" y="85"/>
			<point x="139" y="-12"/>
		</contour>
		<contour>
			<point x="456" y="1216" type="curve" smooth="yes"/>
			<point x="466" y="1216"/>
			<point x="473" y="1217"/>
			<point x="480" y="1218" type="curve" smooth="yes"/>
			<point x="563" y="1233"/>
			<point x="844" y="1331"/>
			<point x="906" y="1382" type="curve" smooth="yes"/>
			<point x="917" y="1391"/>
			<point x="925" y="1402"/>
			<point x="925" y="1414" type="curve" smooth="yes"/>
			<point x="925" y="1426"/>
			<point x="917" y="1442"/>
			<point x="899" y="1442" type="curve" smooth="yes"/>
			<point x="891" y="1442"/>
			<point x="886" y="1440"/>
			<point x="867" y="1431" type="curve" smooth="yes"/>
			<point x="762" y="1384"/>
			<point x="628" y="1326"/>
			<point x="453" y="1281" type="curve" smooth="yes"/>
			<point x="433" y="1276"/>
			<point x="428" y="1264"/>
			<point x="428" y="1252" type="curve" smooth="yes"/>
			<point x="428" y="1233"/>
			<point x="440" y="1216"/>
		</contour>
	</outline>
</glyph>
<glyph name="Aogonek" format="2">
	<unicode hex="0104"/>
	<advance width="1542"/>
	<outline>
		<contour>
			<point x="1103" y="1281" type="curve" smooth="yes"/>
			<point x="768" y="933"/>
			<point x="298" y="439"/>
			<point x="-65" y="78" type="curve" smooth="yes"/>
			<point x="-86" y="57"/>
			<point x="-98" y="47"/>
			<point x="-98" y="28" type="curve" smooth="yes"/>
			<point x="-98" y="3"/>
			<point x="-76" y="-12"/>
			<point x="-57" y="-12" type="curve" smooth="yes"/>
			<point x="-41" y="-12"/>
			<point x="-29" y="-5"/>
			<point x="-1" y="24" type="curve" smooth="yes"/>
			<point x="368" y="404"/>
			<point x="816" y="872"/>
			<point x="1224" y="1302" type="curve"/>
			<point x="1212" y="1316" type="line"/>
			<point x="964" y="63" type="line" smooth="yes"/>
			<point x="960" y="41"/>
			<point x="958" y="29"/>
			<point x="958" y="23" type="curve" smooth="yes"/>
			<point x="958" y="19"/>
			<point x="960" y="13"/>
			<point x="963" y="11" type="curve"/>
			<point x="807" y="-117"/>
			<point x="750" y="-204"/>
			<point x="750" y="-286" type="curve" smooth="yes"/>
			<point x="750" y="-344"/>
			<point x="785" y="-386"/>
			<point x="856" y="-386" type="curve" smooth="yes"/>
			<point x="919" y="-386"/>
			<point x="983" y="-354"/>
			<point x="1023" y="-315" type="curve" smooth="yes"/>
			<point x="1041" y="-298"/>
			<point x="1045" y="-287"/>
			<point x="1045" y="-280" type="curve" smooth="yes"/>
			<point x="1045" y="-263"/>
			<point x="1031" y="-255"/>
			<point x="1018" y="-255" type="curve" smooth="yes"/>
			<point x="1008" y="-255"/>
			<point x="999" y="-259"/>
			<point x="982" y="-270" type="curve" smooth="yes"/>
			<point x="946" y="-294"/>
			<point x="904" y="-309"/>
			<point x="877" y="-309" type="curve" smooth="yes"/>
			<point x="846" y="-309"/>
			<point x="830" y="-297"/>
			<point x="830" y="-266" type="curve" smooth="yes"/>
			<point x="830" y="-203"/>
			<point x="886" y="-117"/>
			<point x="1018" y="-8" type="curve" smooth="yes"/>
			<point x="1029" y="1"/>
			<point x="1035" y="9"/>
			<point x="1039" y="32" type="curve" smooth="yes"/>
			<point x="1276" y="1281" type="line" smooth="yes"/>
			<point x="1291" y="1360"/>
			<point x="1296" y="1380"/>
			<point x="1296" y="1391" type="curve" smooth="yes"/>
			<point x="1296" y="1410"/>
			<point x="1282" y="1426"/>
			<point x="1257" y="1426" type="curve" smooth="yes"/>
			<point x="1235" y="1426"/>
			<point x="1227" y="1410"/>
		</contour>
	</outline>
	<anchor name="bottom" x="531" y="0"/>
	<anchor name="top" x="1260" y="1400"/>
</glyph>
<glyph name="IJ" format="2">
	<unicode hex="0132"/>
	<advance width="977"/>
	<outline>
		<contour>
			<point x="822" y="27" type="curve"/>
			<point x="838" y="105" type="line"/>
			<point x="393" y="-92"/>
			<point x="296" y="-196"/>
			<point x="296" y="-319" type="curve" smooth="yes"/>
			<point x="296" y="-410"/>
			<point x="377" y="-470"/>
			<point x="493" y="-470" type="curve" smooth="yes"/>
			<point x="689" y="-470"/>
			<point x="844" y="-344"/>
			<point x="878" y="-32" type="curve" smooth="yes"/>
			<point x="897" y="147"/>
			<point x="951" y="505"/>
			<point x="1041" y="854" type="curve" smooth="yes"/>
			<point x="1075" y="985"/>
			<point x="1098" y="1067"/>
			<point x="1143" y="1196" type="curve" smooth="yes"/>
			<point x="1192" y="1339"/>
			<point x="1195" y="1354"/>
			<point x="1195" y="1372" type="curve" smooth="yes"/>
			<point x="1195" y="1391"/>
			<point x="1175" y="1400"/>
			<point x="1156" y="1400" type="curve" smooth="yes"/>
			<point x="1138" y="1400"/>
			<point x="1129" y="1395"/>
			<point x="1105" y="1323" type="curve" smooth="yes"/>
			<point x="1028" y="1089"/>
			<point x="1000" y="1021"/>
			<point x="940" y="895" type="curve" smooth="yes"/>
			<point x="690" y="367"/>
			<point x="509" y="193"/>
			<point x="356" y="193" type="curve" smooth="yes"/>
			<point x="272" y="193"/>
			<point x="230" y="249"/>
			<point x="230" y="365" type="curve" smooth="yes"/>
			<point x="230" y="458"/>
			<point x="252" y="571"/>
			<point x="312" y="736" type="curve" smooth="yes"/>
			<point x="377" y="917"/>
			<point x="450" y="1110"/>
			<point x="495" y="1270" type="curve" smooth="yes"/>
			<point x="518" y="1352"/>
			<point x="519" y="1367"/>
			<point x="519" y="1372" type="curve" smooth="yes"/>
			<point x="519" y="1391"/>
			<point x="502" y="1400"/>
			<point x="478" y="1400" type="curve" smooth="yes"/>
			<point x="461" y="1400"/>
			<point x="451" y="1395"/>
			<point x="432" y="1325" type="curve" smooth="yes"/>
			<point x="382" y="1148"/>
			<point x="313" y="953"/>
			<point x="245" y="765" type="curve" smooth="yes"/>
			<point x="178" y="580"/>
			<point x="150" y="452"/>
			<point x="150" y="350" type="curve" smooth="yes"/>
			<point x="150" y="205"/>
			<point x="217" y="118"/>
			<point x="340" y="118" type="curve" smooth="yes"/>
			<point x="528" y="118"/>
			<point x="751" y="320"/>
			<point x="984" y="862" type="curve"/>
			<point x="972" y="859" type="line"/>
			<point x="893" y="548"/>
			<point x="841" y="292"/>
			<point x="803" y="-25" type="curve" smooth="yes"/>
			<point x="770" y="-304"/>
			<point x="662" y="-395"/>
			<point x="505" y="-395" type="curve" smooth="yes"/>
			<point x="418" y="-395"/>
			<point x="371" y="-359"/>
			<point x="371" y="-310" type="curve" smooth="yes"/>
			<point x="371" y="-213"/>
			<point x="466" y="-126"/>
		</contour>
	</outline>
</glyph>
<glyph name="Eng" format="2">
	<unicode hex="014A"/>
	<advance width="1388"/>
	<outline>
		<contour>
			<point x="151" y="-11" type="curve" smooth="yes"/>
			<point x="166" y="-11"/>
			<point x="179" y="-4"/>
			<point x="187" y="24" type="curve" smooth="yes"/>
			<point x="248" y="236"/>
			<point x="423" y="904"/>
			<point x="499" y="1202" type="curve"/>
			<point x="462" y="1319" type="line"/>
			<point x="370" y="964"/>
			<point x="177" y="274"/>
			<point x="122" y="82" type="curve" smooth="yes"/>
			<point x="113" y="50"/>
			<point x="110" y="38"/>
			<point x="110" y="27" type="curve" smooth="yes"/>
			<point x="110" y="1"/>
			<point x="130" y="-11"/>
		</contour>
		<contour>
			<point x="925" y="-112" type="curve" smooth="yes"/>
			<point x="1334" y="1310" type="line" smooth="yes"/>
			<point x="1343" y="1343"/>
			<point x="1348" y="1361"/>
			<point x="1348" y="1369" type="curve" smooth="yes"/>
			<point x="1348" y="1389"/>
			<point x="1327" y="1400"/>
			<point x="1308" y="1400" type="curve" smooth="yes"/>
			<point x="1291" y="1400"/>
			<point x="1282" y="1389"/>
			<point x="1273" y="1364" type="curve"/>
			<point x="913" y="106" type="line"/>
			<point x="939" y="106" type="line"/>
			<point x="533" y="1345" type="line" smooth="yes"/>
			<point x="519" y="1388"/>
			<point x="509" y="1400"/>
			<point x="479" y="1400" type="curve" smooth="yes"/>
			<point x="457" y="1400"/>
			<point x="444" y="1388"/>
			<point x="444" y="1366" type="curve" smooth="yes"/>
			<point x="444" y="1349"/>
			<point x="452" y="1324"/>
			<point x="471" y="1267" type="curve"/>
			<point x="888" y="27" type="line"/>
			<point x="855" y="-89" type="line" smooth="yes"/>
			<point x="759" y="-428"/>
			<point x="665" y="-531"/>
			<point x="514" y="-531" type="curve" smooth="yes"/>
			<point x="446" y="-531"/>
			<point x="398" y="-516"/>
			<point x="349" y="-484" type="curve" smooth="yes"/>
			<point x="329" y="-471"/>
			<point x="316" y="-466"/>
			<point x="305" y="-466" type="curve" smooth="yes"/>
			<point x="290" y="-466"/>
			<point x="278" y="-479"/>
			<point x="278" y="-495" type="curve" smooth="yes"/>
			<point x="278" y="-533"/>
			<point x="388" y="-604"/>
			<point x="530" y="-604" type="curve" smooth="yes"/>
			<point x="771" y="-604"/>
			<point x="842" y="-402"/>
		</contour>
	</outline>
</glyph>
<glyph name="OE" format="2">
	<unicode hex="0152"/>
	<advance width="2029"/>
	<outline>
		<contour>
			<point x="180" y="463" type="curve" smooth="yes"/>
			<point x="180" y="146"/>
			<point x="320" y="-11"/>
			<point x="519" y="-11" type="curve" smooth="yes"/>
			<point x="741" y="-11"/>
			<point x="958" y="183"/>
			<point x="1096" y="433" type="curve"/>
			<point x="1091" y="442" type="line"/>
			<point x="1025" y="203" type="line" smooth="yes"/>
			<point x="1011" y="152"/>
			<point x="1005" y="122"/>
			<point x="1005" y="101" type="curve" smooth="yes"/>
			<point x="1005" y="36"/>
			<point x="1056" y="0"/>
			<point x="1133" y="0" type="curve" smooth="yes"/>
			<point x="1744" y="0" type="line" smooth="yes"/>
			<point x="1777" y="0"/>
			<point x="1796" y="17"/>
			<point x="1796" y="40" type="curve" smooth="yes"/>
			<point x="1796" y="60"/>
			<point x="1778" y="75"/>
			<point x="1755" y="75" type="curve" smooth="yes"/>
			<point x="1140" y="75" type="line" smooth="yes"/>
			<point x="1093" y="75"/>
			<point x="1081" y="85"/>
			<point x="1081" y="113" type="curve" smooth="yes"/>
			<point x="1081" y="134"/>
			<point x="1087" y="165"/>
			<point x="1100" y="223" type="curve" smooth="yes"/>
			<point x="1350" y="1330" type="line"/>
			<point x="1406" y="1330"/>
			<point x="1910" y="1334"/>
			<point x="1959" y="1337" type="curve" smooth="yes"/>
			<point x="1992" y="1339"/>
			<point x="2009" y="1352"/>
			<point x="2009" y="1374" type="curve" smooth="yes"/>
			<point x="2009" y="1395"/>
			<point x="1993" y="1412"/>
			<point x="1971" y="1412" type="curve" smooth="yes"/>
			<point x="1872" y="1412"/>
			<point x="1394" y="1404"/>
			<point x="1361" y="1403" type="curve" smooth="yes"/>
			<point x="1303" y="1401"/>
			<point x="1285" y="1381"/>
			<point x="1271" y="1315" type="curve" smooth="yes"/>
			<point x="1219" y="1072" type="line"/>
			<point x="1232" y="1073" type="line"/>
			<point x="1200" y="1302"/>
			<point x="1071" y="1415"/>
			<point x="886" y="1415" type="curve" smooth="yes"/>
			<point x="516" y="1415"/>
			<point x="180" y="943"/>
		</contour>
		<contour>
			<point x="260" y="460" type="curve" smooth="yes"/>
			<point x="260" y="884"/>
			<point x="554" y="1341"/>
			<point x="877" y="1341" type="curve" smooth="yes"/>
			<point x="1051" y="1341"/>
			<point x="1172" y="1208"/>
			<point x="1172" y="954" type="curve" smooth="yes"/>
			<point x="1172" y="536"/>
			<point x="831" y="64"/>
			<point x="529" y="64" type="curve" smooth="yes"/>
			<point x="366" y="64"/>
			<point x="260" y="201"/>
		</contour>
		<contour>
			<point x="1455" y="778" type="curve" smooth="yes"/>
			<point x="1199" y="774" type="line"/>
			<point x="1185" y="700" type="line"/>
			<point x="1298" y="702"/>
			<point x="1631" y="706"/>
			<point x="1684" y="706" type="curve" smooth="yes"/>
			<point x="1716" y="706"/>
			<point x="1736" y="722"/>
			<point x="1736" y="745" type="curve" smooth="yes"/>
			<point x="1736" y="765"/>
			<point x="1718" y="781"/>
			<point x="1694" y="781" type="curve" smooth="yes"/>
			<point x="1655" y="781"/>
			<point x="1519" y="779"/>
		</contour>
	</outline>
	<anchor name="bottom" x="978" y="0"/>
	<anchor name="top" x="1257" y="1402"/>
</glyph>
<glyph name="Uogonek" format="2">
	<unicode hex="0172"/>
	<advance width="1483"/>
	<outline>
		<contour>
			<point x="1018" y="-12" type="curve" smooth="yes"/>
			<point x="1057" y="-12"/>
			<point x="1110" y="-4"/>
			<point x="1158" y="16" type="curve"/>
			<point x="1154" y="24" type="line"/>
			<point x="977" y="-113"/>
			<point x="910" y="-209"/>
			<point x="910" y="-298" type="curve" smooth="yes"/>
			<point x="910" y="-356"/>
			<point x="946" y="-398"/>
			<point x="1020" y="-398" type="curve" smooth="yes"/>
			<point x="1087" y="-398"/>
			<point x="1152" y="-366"/>
			<point x="1192" y="-331" type="curve" smooth="yes"/>
			<point x="1215" y="-311"/>
			<point x="1219" y="-299"/>
			<point x="1219" y="-292" type="curve" smooth="yes"/>
			<point x="1219" y="-275"/>
			<point x="1205" y="-267"/>
			<point x="1192" y="-267" type="curve" smooth="yes"/>
			<point x="1182" y="-267"/>
			<point x="1173" y="-270"/>
			<point x="1152" y="-283" type="curve" smooth="yes"/>
			<point x="1113" y="-307"/>
			<point x="1069" y="-321"/>
			<point x="1041" y="-321" type="curve" smooth="yes"/>
			<point x="1008" y="-321"/>
			<point x="991" y="-309"/>
			<point x="991" y="-278" type="curve" smooth="yes"/>
			<point x="991" y="-216"/>
			<point x="1061" y="-106"/>
			<point x="1239" y="30" type="curve" smooth="yes"/>
			<point x="1328" y="98" type="line" smooth="yes"/>
			<point x="1387" y="143"/>
			<point x="1393" y="162"/>
			<point x="1393" y="173" type="curve" smooth="yes"/>
			<point x="1393" y="188"/>
			<point x="1381" y="200"/>
			<point x="1366" y="200" type="curve" smooth="yes"/>
			<point x="1355" y="200"/>
			<point x="1347" y="193"/>
			<point x="1303" y="160" type="curve" smooth="yes"/>
			<point x="1220" y="98"/>
			<point x="1118" y="63"/>
			<point x="1039" y="63" type="curve" smooth="yes"/>
			<point x="1005" y="63"/>
			<point x="984" y="83"/>
			<point x="984" y="135" type="curve" smooth="yes"/>
			<point x="984" y="175"/>
			<point x="992" y="215"/>
			<point x="1016" y="310" type="curve" smooth="yes"/>
			<point x="1080" y="564"/>
			<point x="1223" y="1019"/>
			<point x="1272" y="1183" type="curve" smooth="yes"/>
			<point x="1316" y="1331"/>
			<point x="1323" y="1351"/>
			<point x="1323" y="1369" type="curve" smooth="yes"/>
			<point x="1323" y="1390"/>
			<point x="1304" y="1399"/>
			<point x="1286" y="1399" type="curve" smooth="yes"/>
			<point x="1266" y="1399"/>
			<point x="1256" y="1393"/>
			<point x="1236" y="1333" type="curve" smooth="yes"/>
			<point x="1183" y="1175"/>
			<point x="1124" y="1031"/>
			<point x="993" y="767" type="curve" smooth="yes"/>
			<point x="744" y="266"/>
			<point x="532" y="63"/>
			<point x="355" y="63" type="curve" smooth="yes"/>
			<point x="274" y="63"/>
			<point x="230" y="122"/>
			<point x="230" y="245" type="curve" smooth="yes"/>
			<point x="230" y="332"/>
			<point x="253" y="447"/>
			<point x="322" y="656" type="curve" smooth="yes"/>
			<point x="354" y="753"/>
			<point x="377" y="818"/>
			<point x="413" y="920" type="curve" smooth="yes"/>
			<point x="454" y="1038"/>
			<point x="507" y="1169"/>
			<point x="535" y="1265" type="curve" smooth="yes"/>
			<point x="547" y="1306"/>
			<point x="560" y="1350"/>
			<point x="559" y="1369" type="curve" smooth="yes"/>
			<point x="558" y="1391"/>
			<point x="541" y="1400"/>
			<point x="519" y="1400" type="curve" smooth="yes"/>
			<point x="502" y="1400"/>
			<point x="493" y="1395"/>
			<point x="472" y="1323" type="curve" smooth="yes"/>
			<point x="431" y="1183"/>
			<point x="391" y="1076"/>
			<point x="343" y="942" type="curve" smooth="yes"/>
			<point x="310" y="850"/>
			<point x="279" y="757"/>
			<point x="255" y="685" type="curve" smooth="yes"/>
			<point x="181" y="464"/>
			<point x="150" y="333"/>
			<point x="150" y="229" type="curve" smooth="yes"/>
			<point x="150" y="77"/>
			<point x="221" y="-12"/>
			<point x="341" y="-12" type="curve" smooth="yes"/>
			<point x="573" y="-12"/>
			<point x="815" y="212"/>
			<point x="1166" y="1013" type="curve"/>
			<point x="1159" y="1013" type="line"/>
			<point x="1086" y="773"/>
			<point x="1009" y="531"/>
			<point x="954" y="345" type="curve" smooth="yes"/>
			<point x="922" y="237"/>
			<point x="910" y="178"/>
			<point x="910" y="120" type="curve" smooth="yes"/>
			<point x="910" y="34"/>
			<point x="958" y="-12"/>
		</contour>
	</outline>
	<anchor name="bottom" x="527" y="0"/>
	<anchor name="top" x="976" y="1600"/>
	<anchor name="topright" x="1682" y="1434"/>
</glyph>
<glyph name="Schwa" format="2">
	<unicode hex="018F"/>
	<advance width="1155"/>
	<outline>
		<contour>
			<point x="643" y="1408" type="curve" smooth="yes"/>
			<point x="510" y="1408"/>
			<point x="397" y="1357"/>
			<point x="304" y="1284" type="curve" smooth="yes"/>
			<point x="273" y="1260"/>
			<point x="259" y="1245"/>
			<point x="259" y="1232" type="curve" smooth="yes"/>
			<point x="259" y="1214"/>
			<point x="281" y="1197"/>
			<point x="296" y="1197" type="curve" smooth="yes"/>
			<point x="304" y="1197"/>
			<point x="314" y="1201"/>
			<point x="343" y="1223" type="curve" smooth="yes"/>
			<point x="420" y="1281"/>
			<point x="523" y="1330"/>
			<point x="634" y="1330" type="curve" smooth="yes"/>
			<point x="815" y="1330"/>
			<point x="918" y="1198"/>
			<point x="918" y="940" type="curve" smooth="yes"/>
			<point x="918" y="464"/>
			<point x="598" y="67"/>
			<point x="315" y="67" type="curve" smooth="yes"/>
			<point x="197" y="67"/>
			<point x="132" y="121"/>
			<point x="132" y="236" type="curve" smooth="yes"/>
			<point x="132" y="500"/>
			<point x="479" y="731"/>
			<point x="913" y="731" type="curve" smooth="yes"/>
			<point x="936" y="731"/>
			<point x="954" y="744"/>
			<point x="954" y="765" type="curve" smooth="yes"/>
			<point x="954" y="786"/>
			<point x="939" y="801"/>
			<point x="921" y="801" type="curve" smooth="yes"/>
			<point x="432" y="801"/>
			<point x="50" y="528"/>
			<point x="50" y="227" type="curve" smooth="yes"/>
			<point x="50" y="75"/>
			<point x="153" y="-11"/>
			<point x="303" y="-11" type="curve" smooth="yes"/>
			<point x="645" y="-11"/>
			<point x="1005" y="418"/>
			<point x="1005" y="949" type="curve" smooth="yes"/>
			<point x="1005" y="1260"/>
			<point x="867" y="1408"/>
		</contour>
	</outline>
	<anchor name="top" x="670" y="1400"/>
</glyph>
<glyph name="dotaccentcomb" format="2">
	<unicode hex="0307"/>
	<outline>
		<contour>
			<point x="111" y="1157" type="curve" smooth="yes"/>
			<point x="161" y="1157"/>
			<point x="209" y="1202"/>
			<point x="209" y="1254" type="curve" smooth="yes"/>
			<point x="209" y="1291"/>
			<point x="181" y="1319"/>
			<point x="142" y="1319" type="curve" smooth="yes"/>
			<point x="93" y="1319"/>
			<point x="50" y="1276"/>
			<point x="50" y="1222" type="curve" smooth="yes"/>
			<point x="50" y="1181"/>
			<point x="78" y="1157"/>
		</contour>
	</outline>
	<anchor name="_top" x="38" y="920"/>
	<anchor name="top" x="142" y="1319"/>
</glyph>
<glyph name="dieresiscomb" format="2">
	<unicode hex="0308"/>
	<outline>
		<contour>
			<point x="112" y="1157" type="curve" smooth="yes"/>
			<point x="158" y="1157"/>
			<point x="200" y="1195"/>
			<point x="200" y="1246" type="curve" smooth="yes"/>
			<point x="200" y="1285"/>
			<point x="176" y="1310"/>
			<point x="136" y="1310" type="curve" smooth="yes"/>
			<point x="90" y="1310"/>
			<point x="50" y="1276"/>
			<point x="50" y="1224" type="curve" smooth="yes"/>
			<point x="50" y="1186"/>
			<point x="72" y="1157"/>
		</contour>
		<contour>
			<point x="427" y="1157" type="curve" smooth="yes"/>
			<point x="473" y="1157"/>
			<point x="515" y="1195"/>
			<point x="515" y="1246" type="curve" smooth="yes"/>
			<point x="515" y="1285"/>
			<point x="491" y="1310"/>
			<point x="451" y="1310" type="curve" smooth="yes"/>
			<point x="405" y="1310"/>
			<point x="365" y="1276"/>
			<point x="365" y="1224" type="curve" smooth="yes"/>
			<point x="365" y="1186"/>
			<point x="387" y="1157"/>
		</contour>
	</outline>
	<anchor name="_top" x="203" y="920"/>
	<anchor name="top" x="294" y="1310"/>
</glyph>
<glyph name="dotbelowcomb" format="2">
	<unicode hex="0323"/>
	<outline>
		<contour>
			<point x="109" y="-309" type="curve" smooth="yes"/>
			<point x="159" y="-309"/>
			<point x="207" y="-264"/>
			<point x="207" y="-212" type="curve" smooth="yes"/>
			<point x="207" y="-175"/>
			<point x="179" y="-147"/>
			<point x="140" y="-147" type="curve" smooth="yes"/>
			<point x="91" y="-147"/>
			<point x="48" y="-190"/>
			<point x="48" y="-244" type="curve" smooth="yes"/>
			<point x="48" y="-285"/>
			<point x="76" y="-309"/>
		</contour>
	</outline>
	<anchor name="_bottom" x="200" y="0"/>
	<anchor name="bottom" x="100" y="-312"/>
</glyph>
<glyph name="ogonekcomb" format="2">
	<unicode hex="0328"/>
	<outline>
		<contour>
			<point x="323" y="-315" type="curve" smooth="yes"/>
			<point x="341" y="-298"/>
			<point x="345" y="-287"/>
			<point x="345" y="-280" type="curve" smooth="yes"/>
			<point x="345" y="-263"/>
			<point x="331" y="-255"/>
			<point x="318" y="-255" type="curve" smooth="yes"/>
			<point x="308" y="-255"/>
			<point x="299" y="-259"/>
			<point x="282" y="-270" type="curve" smooth="yes"/>
			<point x="246" y="-294"/>
			<point x="204" y="-309"/>
			<point x="177" y="-309" type="curve" smooth="yes"/>
			<point x="146" y="-309"/>
			<point x="130" y="-297"/>
			<point x="130" y="-266" type="curve" smooth="yes"/>
			<point x="130" y="-203"/>
			<point x="186" y="-117"/>
			<point x="342" y="12" type="curve" smooth="yes"/>
			<point x="372" y="38"/>
			<point x="383" y="50"/>
			<point x="383" y="62" type="curve" smooth="yes"/>
			<point x="383" y="70"/>
			<point x="375" y="80"/>
			<point x="361" y="80" type="curve" smooth="yes"/>
			<point x="342" y="80"/>
			<point x="324" y="69"/>
			<point x="280" y="33" type="curve" smooth="yes"/>
			<point x="110" y="-106"/>
			<point x="50" y="-200"/>
			<point x="50" y="-286" type="curve" smooth="yes"/>
			<point x="50" y="-344"/>
			<point x="85" y="-386"/>
			<point x="156" y="-386" type="curve" smooth="yes"/>
			<point x="219" y="-386"/>
			<point x="283" y="-354"/>
		</contour>
	</outline>
	<anchor name="_ogonek" x="224" y="0"/>
</glyph>
<glyph name="slashcomb" format="2">
	<unicode hex="0337"/>
	<outline>
		<contour>
			<point x="73" y="-26" type="curve" smooth="yes"/>
			<point x="59" y="-52"/>
			<point x="50" y="-75"/>
			<point x="50" y="-84" type="curve" smooth="yes"/>
			<point x="50" y="-103"/>
			<point x="77" y="-120"/>
			<point x="94" y="-120" type="curve" smooth="yes"/>
			<point x="107" y="-120"/>
			<point x="118" y="-108"/>
			<point x="139" y="-68" type="curve" smooth="yes"/>
			<point x="321" y="283"/>
			<point x="498" y="578"/>
			<point x="658" y="837" type="curve" smooth="yes"/>
			<point x="707" y="915"/>
			<point x="748" y="981"/>
			<point x="748" y="994" type="curve" smooth="yes"/>
			<point x="748" y="1015"/>
			<point x="731" y="1032"/>
			<point x="710" y="1032" type="curve" smooth="yes"/>
			<point x="691" y="1032"/>
			<point x="672" y="1005"/>
			<point x="604" y="893" type="curve" smooth="yes"/>
			<point x="448" y="643"/>
			<point x="262" y="337"/>
		</contour>
	</outline>
	<anchor name="_center" x="401" y="481"/>
</glyph>
<glyph name="Germandbls" format="2">
	<unicode hex="1E9E"/>
	<advance width="1361"/>
	<outline>
		<contour>
			<point x="151" y="-11" type="curve" smooth="yes"/>
			<point x="171" y="-11"/>
			<point x="182" y="2"/>
			<point x="189" y="30" type="curve" smooth="yes"/>
			<point x="509" y="1325" type="line"/>
			<point x="1176" y="1325" type="line"/>
			<point x="1176" y="1346" type="line"/>
			<point x="842" y="1175"/>
			<point x="739" y="1042"/>
			<point x="739" y="891" type="curve" smooth="yes"/>
			<point x="739" y="748"/>
			<point x="831" y="671"/>
			<point x="921" y="595" type="curve" smooth="yes"/>
			<point x="997" y="530"/>
			<point x="1084" y="457"/>
			<point x="1084" y="335" type="curve" smooth="yes"/>
			<point x="1084" y="182"/>
			<point x="948" y="67"/>
			<point x="731" y="67" type="curve" smooth="yes"/>
			<point x="645" y="67"/>
			<point x="560" y="85"/>
			<point x="504" y="102" type="curve" smooth="yes"/>
			<point x="468" y="113"/>
			<point x="461" y="118"/>
			<point x="447" y="118" type="curve" smooth="yes"/>
			<point x="421" y="118"/>
			<point x="412" y="99"/>
			<point x="412" y="82" type="curve" smooth="yes"/>
			<point x="412" y="70"/>
			<point x="417" y="62"/>
			<point x="438" y="51" type="curve" smooth="yes"/>
			<point x="496" y="20"/>
			<point x="621" y="-11"/>
			<point x="733" y="-11" type="curve" smooth="yes"/>
			<point x="974" y="-11"/>
			<point x="1161" y="133"/>
			<point x="1161" y="337" type="curve" smooth="yes"/>
			<point x="1161" y="489"/>
			<point x="1057" y="581"/>
			<point x="977" y="651" type="curve" smooth="yes"/>
			<point x="890" y="728"/>
			<point x="813" y="795"/>
			<point x="813" y="903" type="curve" smooth="yes"/>
			<point x="813" y="1018"/>
			<point x="900" y="1115"/>
			<point x="1154" y="1254" type="curve" smooth="yes"/>
			<point x="1234" y="1298"/>
			<point x="1241" y="1326"/>
			<point x="1241" y="1345" type="curve" smooth="yes"/>
			<point x="1241" y="1383"/>
			<point x="1213" y="1400"/>
			<point x="1173" y="1400" type="curve" smooth="yes"/>
			<point x="480" y="1400" type="line" smooth="yes"/>
			<point x="455" y="1400"/>
			<point x="445" y="1388"/>
			<point x="441" y="1372" type="curve" smooth="yes"/>
			<point x="121" y="87" type="line" smooth="yes"/>
			<point x="113" y="55"/>
			<point x="110" y="35"/>
			<point x="110" y="25" type="curve" smooth="yes"/>
			<point x="110" y="-1"/>
			<point x="134" y="-11"/>
		</contour>
	</outline>
</glyph>
<glyph name="perthousand" format="2">
	<unicode hex="2030"/>
	<advance width="2310"/>
	<outline>
		<contour>
			<point x="395" y="904" type="curve" smooth="yes"/>
			<point x="590" y="904"/>
			<point x="769" y="1148"/>
			<point x="769" y="1362" type="curve" smooth="yes"/>
			<point x="769" y="1501"/>
			<point x="694" y="1570"/>
			<point x="590" y="1570" type="curve" smooth="yes"/>
			<point x="395" y="1570"/>
			<point x="217" y="1325"/>
			<point x="217" y="1111" type="curve" smooth="yes"/>
			<point x="217" y="973"/>
			<point x="291" y="904"/>
		</contour>
		<contour>
			<point x="407" y="976" type="curve" smooth="yes"/>
			<point x="343" y="976"/>
			<point x="292" y="1014"/>
			<point x="292" y="1121" type="curve" smooth="yes"/>
			<point x="292" y="1298"/>
			<point x="434" y="1498"/>
			<point x="580" y="1498" type="curve" smooth="yes"/>
			<point x="643" y="1498"/>
			<point x="694" y="1460"/>
			<point x="694" y="1354" type="curve" smooth="yes"/>
			<point x="694" y="1178"/>
			<point x="553" y="976"/>
		</contour>
		<contour>
			<point x="236" y="-12" type="curve" smooth="yes"/>
			<point x="250" y="-12"/>
			<point x="260" y="-4"/>
			<point x="288" y="34" type="curve" smooth="yes"/>
			<point x="1422" y="1541" type="line" smooth="yes"/>
			<point x="1446" y="1573"/>
			<point x="1448" y="1579"/>
			<point x="1448" y="1587" type="curve" smooth="yes"/>
			<point x="1448" y="1608"/>
			<point x="1431" y="1625"/>
			<point x="1410" y="1625" type="curve" smooth="yes"/>
			<point x="1396" y="1625"/>
			<point x="1386" y="1617"/>
			<point x="1363" y="1587" type="curve" smooth="yes"/>
			<point x="242" y="95" type="line" smooth="yes"/>
			<point x="200" y="40"/>
			<point x="200" y="32"/>
			<point x="200" y="24" type="curve" smooth="yes"/>
			<point x="200" y="3"/>
			<point x="215" y="-12"/>
		</contour>
		<contour>
			<point x="1056" y="30" type="curve" smooth="yes"/>
			<point x="1251" y="30"/>
			<point x="1430" y="274"/>
			<point x="1430" y="488" type="curve" smooth="yes"/>
			<point x="1430" y="627"/>
			<point x="1355" y="696"/>
			<point x="1251" y="696" type="curve" smooth="yes"/>
			<point x="1056" y="696"/>
			<point x="878" y="451"/>
			<point x="878" y="237" type="curve" smooth="yes"/>
			<point x="878" y="99"/>
			<point x="952" y="30"/>
		</contour>
		<contour>
			<point x="1068" y="102" type="curve" smooth="yes"/>
			<point x="1004" y="102"/>
			<point x="953" y="140"/>
			<point x="953" y="247" type="curve" smooth="yes"/>
			<point x="953" y="424"/>
			<point x="1095" y="624"/>
			<point x="1241" y="624" type="curve" smooth="yes"/>
			<point x="1304" y="624"/>
			<point x="1355" y="586"/>
			<point x="1355" y="480" type="curve" smooth="yes"/>
			<point x="1355" y="304"/>
			<point x="1214" y="102"/>
		</contour>
		<contour>
			<point x="1736" y="30" type="curve" smooth="yes"/>
			<point x="1931" y="30"/>
			<point x="2110" y="274"/>
			<point x="2110" y="488" type="curve" smooth="yes"/>
			<point x="2110" y="627"/>
			<point x="2035" y="696"/>
			<point x="1931" y="696" type="curve" smooth="yes"/>
			<point x="1736" y="696"/>
			<point x="1558" y="451"/>
			<point x="1558" y="237" type="curve" smooth="yes"/>
			<point x="1558" y="99"/>
			<point x="1632" y="30"/>
		</contour>
		<contour>
			<point x="1748" y="102" type="curve" smooth="yes"/>
			<point x="1684" y="102"/>
			<point x="1633" y="140"/>
			<point x="1633" y="247" type="curve" smooth="yes"/>
			<point x="1633" y="424"/>
			<point x="1775" y="624"/>
			<point x="1921" y="624" type="curve" smooth="yes"/>
			<point x="1984" y="624"/>
			<point x="2035" y="586"/>
			<point x="2035" y="480" type="curve" smooth="yes"/>
			<point x="2035" y="304"/>
			<point x="1894" y="102"/>
		</contour>
	</outline>
</glyph>
<glyph name="sevensuperior" format="2">
	<unicode hex="2077"/>
	<advance width="731"/>
	<outline>
		<contour>
			<point x="690" y="1766" type="line"/>
			<point x="517" y="1589"/>
			<point x="324" y="1369"/>
			<point x="116" y="1085" type="curve" smooth="yes"/>
			<point x="95" y="1057"/>
			<point x="85" y="1039"/>
			<point x="85" y="1028" type="curve" smooth="yes"/>
			<point x="85" y="1007"/>
			<point x="108" y="989"/>
			<point x="128" y="989" type="curve" smooth="yes"/>
			<point x="149" y="989"/>
			<point x="154" y="997"/>
			<point x="174" y="1026" type="curve" smooth="yes"/>
			<point x="378" y="1322"/>
			<point x="585" y="1558"/>
			<point x="715" y="1703" type="curve" smooth="yes"/>
			<point x="749" y="1742"/>
			<point x="759" y="1756"/>
			<point x="759" y="1778" type="curve" smooth="yes"/>
			<point x="759" y="1800"/>
			<point x="747" y="1818"/>
			<point x="712" y="1818" type="curve" smooth="yes"/>
			<point x="205" y="1818" type="line" smooth="yes"/>
			<point x="172" y="1818"/>
			<point x="153" y="1797"/>
			<point x="153" y="1776" type="curve" smooth="yes"/>
			<point x="153" y="1752"/>
			<point x="174" y="1741"/>
			<point x="205" y="1741" type="curve" smooth="yes"/>
			<point x="704" y="1741" type="line"/>
		</contour>
	</outline>
</glyph>
<glyph name="n.sups" format="2">
	<unicode hex="207F"/>
	<advance width="920"/>
	<outline>
		<contour>
			<point x="654" y="795" type="curve" smooth="yes"/>
			<point x="755" y="795"/>
			<point x="880" y="905"/>
			<point x="880" y="944" type="curve" smooth="yes"/>
			<point x="880" y="959"/>
			<point x="867" y="970"/>
			<point x="854" y="970" type="curve" smooth="yes"/>
			<point x="846" y="970"/>
			<point x="836" y="962"/>
			<point x="813" y="941" type="curve" smooth="yes"/>
			<point x="760" y="893"/>
			<point x="708" y="864"/>
			<point x="670" y="864" type="curve" smooth="yes"/>
			<point x="639" y="864"/>
			<point x="623" y="879"/>
			<point x="623" y="915" type="curve" smooth="yes"/>
			<point x="623" y="964"/>
			<point x="642" y="1022"/>
			<point x="688" y="1136" type="curve" smooth="yes"/>
			<point x="728" y="1234"/>
			<point x="774" y="1351"/>
			<point x="774" y="1441" type="curve" smooth="yes"/>
			<point x="774" y="1525"/>
			<point x="724" y="1558"/>
			<point x="663" y="1558" type="curve" smooth="yes"/>
			<point x="527" y="1558"/>
			<point x="359" y="1423"/>
			<point x="210" y="1141" type="curve"/>
			<point x="218" y="1138" type="line"/>
			<point x="323" y="1474" type="line" smooth="yes"/>
			<point x="329" y="1493"/>
			<point x="334" y="1514"/>
			<point x="334" y="1527" type="curve" smooth="yes"/>
			<point x="334" y="1546"/>
			<point x="322" y="1558"/>
			<point x="300" y="1558" type="curve" smooth="yes"/>
			<point x="282" y="1558"/>
			<point x="268" y="1549"/>
			<point x="257" y="1509" type="curve" smooth="yes"/>
			<point x="78" y="867" type="line" smooth="yes"/>
			<point x="72" y="845"/>
			<point x="70" y="836"/>
			<point x="70" y="827" type="curve" smooth="yes"/>
			<point x="70" y="805"/>
			<point x="90" y="794"/>
			<point x="109" y="794" type="curve" smooth="yes"/>
			<point x="130" y="794"/>
			<point x="144" y="804"/>
			<point x="159" y="864" type="curve" smooth="yes"/>
			<point x="182" y="955"/>
			<point x="205" y="1020"/>
			<point x="255" y="1119" type="curve" smooth="yes"/>
			<point x="361" y="1329"/>
			<point x="539" y="1488"/>
			<point x="637" y="1488" type="curve" smooth="yes"/>
			<point x="676" y="1488"/>
			<point x="698" y="1464"/>
			<point x="698" y="1417" type="curve" smooth="yes"/>
			<point x="698" y="1350"/>
			<point x="660" y="1254"/>
			<point x="619" y="1152" type="curve" smooth="yes"/>
			<point x="571" y="1032"/>
			<point x="548" y="962"/>
			<point x="548" y="904" type="curve" smooth="yes"/>
			<point x="548" y="838"/>
			<point x="588" y="795"/>
		</contour>
	</outline>
</glyph>
<glyph name="euro" format="2">
	<unicode hex="20AC"/>
	<advance width="1200"/>
	<outline>
		<contour>
			<point x="960" y="1415" type="curve" smooth="yes"/>
			<point x="606" y="1415"/>
			<point x="272" y="991"/>
			<point x="272" y="491" type="curve" smooth="yes"/>
			<point x="272" y="138"/>
			<point x="454" y="-11"/>
			<point x="664" y="-11" type="curve" smooth="yes"/>
			<point x="807" y="-11"/>
			<point x="954" y="58"/>
			<point x="1037" y="132" type="curve" smooth="yes"/>
			<point x="1063" y="155"/>
			<point x="1079" y="175"/>
			<point x="1079" y="192" type="curve" smooth="yes"/>
			<point x="1079" y="207"/>
			<point x="1066" y="216"/>
			<point x="1054" y="216" type="curve" smooth="yes"/>
			<point x="1045" y="216"/>
			<point x="1039" y="212"/>
			<point x="1007" y="188" type="curve" smooth="yes"/>
			<point x="898" y="106"/>
			<point x="793" y="65"/>
			<point x="685" y="65" type="curve" smooth="yes"/>
			<point x="501" y="65"/>
			<point x="351" y="186"/>
			<point x="351" y="496" type="curve" smooth="yes"/>
			<point x="351" y="953"/>
			<point x="646" y="1340"/>
			<point x="970" y="1340" type="curve" smooth="yes"/>
			<point x="1037" y="1340"/>
			<point x="1088" y="1324"/>
			<point x="1151" y="1274" type="curve" smooth="yes"/>
			<point x="1175" y="1255"/>
			<point x="1178" y="1249"/>
			<point x="1189" y="1249" type="curve" smooth="yes"/>
			<point x="1208" y="1249"/>
			<point x="1223" y="1267"/>
			<point x="1223" y="1281" type="curve" smooth="yes"/>
			<point x="1223" y="1294"/>
			<point x="1207" y="1316"/>
			<point x="1180" y="1339" type="curve" smooth="yes"/>
			<point x="1132" y="1380"/>
			<point x="1062" y="1415"/>
		</contour>
		<contour>
			<point x="178" y="831" type="curve" smooth="yes"/>
			<point x="178" y="808"/>
			<point x="197" y="794"/>
			<point x="238" y="794" type="curve" smooth="yes"/>
			<point x="395" y="794"/>
			<point x="636" y="800"/>
			<point x="782" y="811" type="curve" smooth="yes"/>
			<point x="862" y="817"/>
			<point x="888" y="822"/>
			<point x="888" y="855" type="curve" smooth="yes"/>
			<point x="888" y="875"/>
			<point x="876" y="879"/>
			<point x="841" y="879" type="curve" smooth="yes"/>
			<point x="823" y="879"/>
			<point x="790" y="878"/>
			<point x="728" y="876" type="curve" smooth="yes"/>
			<point x="603" y="872"/>
			<point x="442" y="867"/>
			<point x="243" y="867" type="curve" smooth="yes"/>
			<point x="191" y="867"/>
			<point x="178" y="853"/>
		</contour>
		<contour>
			<point x="113" y="591" type="curve" smooth="yes"/>
			<point x="113" y="568"/>
			<point x="131" y="554"/>
			<point x="173" y="554" type="curve" smooth="yes"/>
			<point x="330" y="554"/>
			<point x="567" y="560"/>
			<point x="709" y="570" type="curve" smooth="yes"/>
			<point x="795" y="576"/>
			<point x="822" y="581"/>
			<point x="822" y="615" type="curve" smooth="yes"/>
			<point x="822" y="634"/>
			<point x="810" y="639"/>
			<point x="781" y="639" type="curve" smooth="yes"/>
			<point x="767" y="639"/>
			<point x="734" y="638"/>
			<point x="649" y="635" type="curve" smooth="yes"/>
			<point x="507" y="630"/>
			<point x="318" y="627"/>
			<point x="178" y="627" type="curve" smooth="yes"/>
			<point x="126" y="627"/>
			<point x="113" y="613"/>
		</contour>
	</outline>
</glyph>
<glyph name="approxequal" format="2">
	<unicode hex="2248"/>
	<advance width="1200"/>
	<outline>
		<contour>
			<point x="272" y="854" type="curve" smooth="yes"/>
			<point x="288" y="854"/>
			<point x="294" y="863"/>
			<point x="316" y="892" type="curve" smooth="yes"/>
			<point x="352" y="940"/>
			<point x="405" y="1007"/>
			<point x="494" y="1007" type="curve" smooth="yes"/>
			<point x="630" y="1007"/>
			<point x="676" y="852"/>
			<point x="834" y="852" type="curve" smooth="yes"/>
			<point x="921" y="852"/>
			<point x="1011" y="899"/>
			<point x="1077" y="1004" type="curve" smooth="yes"/>
			<point x="1093" y="1029"/>
			<point x="1099" y="1044"/>
			<point x="1099" y="1055" type="curve" smooth="yes"/>
			<point x="1099" y="1071"/>
			<point x="1086" y="1082"/>
			<point x="1068" y="1082" type="curve" smooth="yes"/>
			<point x="1052" y="1082"/>
			<point x="1046" y="1073"/>
			<point x="1024" y="1044" type="curve" smooth="yes"/>
			<point x="983" y="990"/>
			<point x="933" y="929"/>
			<point x="846" y="929" type="curve" smooth="yes"/>
			<point x="708" y="929"/>
			<point x="666" y="1084"/>
			<point x="506" y="1084" type="curve" smooth="yes"/>
			<point x="419" y="1084"/>
			<point x="333" y="1038"/>
			<point x="263" y="932" type="curve" smooth="yes"/>
			<point x="247" y="907"/>
			<point x="241" y="892"/>
			<point x="241" y="881" type="curve" smooth="yes"/>
			<point x="241" y="865"/>
			<point x="254" y="854"/>
		</contour>
		<contour>
			<point x="170" y="516" type="curve" smooth="yes"/>
			<point x="186" y="516"/>
			<point x="192" y="525"/>
			<point x="214" y="554" type="curve" smooth="yes"/>
			<point x="250" y="602"/>
			<point x="303" y="669"/>
			<point x="392" y="669" type="curve" smooth="yes"/>
			<point x="528" y="669"/>
			<point x="574" y="514"/>
			<point x="732" y="514" type="curve" smooth="yes"/>
			<point x="819" y="514"/>
			<point x="906" y="561"/>
			<point x="975" y="666" type="curve" smooth="yes"/>
			<point x="991" y="691"/>
			<point x="997" y="706"/>
			<point x="997" y="717" type="curve" smooth="yes"/>
			<point x="997" y="733"/>
			<point x="984" y="744"/>
			<point x="966" y="744" type="curve" smooth="yes"/>
			<point x="950" y="744"/>
			<point x="944" y="735"/>
			<point x="922" y="706" type="curve" smooth="yes"/>
			<point x="881" y="652"/>
			<point x="831" y="591"/>
			<point x="744" y="591" type="curve" smooth="yes"/>
			<point x="606" y="591"/>
			<point x="564" y="746"/>
			<point x="404" y="746" type="curve" smooth="yes"/>
			<point x="317" y="746"/>
			<point x="228" y="700"/>
			<point x="161" y="594" type="curve" smooth="yes"/>
			<point x="145" y="569"/>
			<point x="139" y="554"/>
			<point x="139" y="543" type="curve" smooth="yes"/>
			<point x="139" y="527"/>
			<point x="152" y="516"/>
		</contour>
	</outline>
</glyph>
<glyph name="notequal" format="2">
	<unicode hex="2260"/>
	<advance width="1200"/>
	<outline>
		<contour>
			<point x="432" y="316" type="curve" smooth="yes"/>
			<point x="452" y="316"/>
			<point x="463" y="329"/>
			<point x="469" y="344" type="curve" smooth="yes"/>
			<point x="852" y="1228" type="line" smooth="yes"/>
			<point x="866" y="1260"/>
			<point x="868" y="1267"/>
			<point x="868" y="1274" type="curve" smooth="yes"/>
			<point x="868" y="1294"/>
			<point x="850" y="1311"/>
			<point x="831" y="1311" type="curve" smooth="yes"/>
			<point x="812" y="1311"/>
			<point x="801" y="1300"/>
			<point x="791" y="1276" type="curve" smooth="yes"/>
			<point x="401" y="376" type="line" smooth="yes"/>
			<point x="395" y="361"/>
			<point x="393" y="356"/>
			<point x="393" y="347" type="curve" smooth="yes"/>
			<point x="393" y="328"/>
			<point x="408" y="316"/>
		</contour>
		<contour>
			<point x="306" y="956" type="curve" smooth="yes"/>
			<point x="530" y="956"/>
			<point x="823" y="956"/>
			<point x="1005" y="965" type="curve" smooth="yes"/>
			<point x="1066" y="968"/>
			<point x="1082" y="985"/>
			<point x="1082" y="1007" type="curve" smooth="yes"/>
			<point x="1082" y="1024"/>
			<point x="1070" y="1034"/>
			<point x="1034" y="1034" type="curve" smooth="yes"/>
			<point x="854" y="1032"/>
			<point x="534" y="1031"/>
			<point x="306" y="1031" type="curve" smooth="yes"/>
			<point x="266" y="1031"/>
			<point x="255" y="1014"/>
			<point x="255" y="993" type="curve" smooth="yes"/>
			<point x="255" y="972"/>
			<point x="266" y="956"/>
		</contour>
		<contour>
			<point x="202" y="576" type="curve" smooth="yes"/>
			<point x="426" y="576"/>
			<point x="719" y="576"/>
			<point x="901" y="585" type="curve" smooth="yes"/>
			<point x="962" y="588"/>
			<point x="978" y="605"/>
			<point x="978" y="627" type="curve" smooth="yes"/>
			<point x="978" y="644"/>
			<point x="966" y="654"/>
			<point x="930" y="654" type="curve" smooth="yes"/>
			<point x="750" y="652"/>
			<point x="430" y="651"/>
			<point x="202" y="651" type="curve" smooth="yes"/>
			<point x="162" y="651"/>
			<point x="151" y="634"/>
			<point x="151" y="613" type="curve" smooth="yes"/>
			<point x="151" y="592"/>
			<point x="162" y="576"/>
		</contour>
	</outline>
</glyph>
<glyph name="whitesquare" format="2">
	<unicode hex="25A1"/>
	<advance width="1708"/>
	<outline>
		<contour>
			<point x="427" y="301" type="line"/>
			<point x="1281" y="301" type="line"/>
			<point x="1281" y="1155" type="line"/>
			<point x="427" y="1155" type="line"/>
		</contour>
		<contour>
			<point x="507" y="381" type="line"/>
			<point x="507" y="1075" type="line"/>
			<point x="1201" y="1075" type="line"/>
			<point x="1201" y="381" type="line"/>
		</contour>
	</outline>
</glyph>
<glyph name="fountainPen" format="2">
	<unicode hex="2712"/>
	<advance width="1518"/>
	<outline>
		<contour>
			<point x="974" y="1171" type="curve" smooth="yes"/>
			<point x="819" y="1797" type="line"/>
			<point x="785" y="1935"/>
			<point x="704" y="1996"/>
			<point x="551" y="1996" type="curve" smooth="yes"/>
			<point x="390" y="1996"/>
			<point x="300" y="1902"/>
			<point x="300" y="1793" type="curve" smooth="yes"/>
			<point x="300" y="1779"/>
			<point x="301" y="1766"/>
			<point x="304" y="1752" type="curve" smooth="yes"/>
			<point x="433" y="1102" type="line" smooth="yes"/>
			<point x="440" y="1071"/>
			<point x="455" y="1049"/>
			<point x="481" y="1041" type="curve"/>
			<point x="589" y="497" type="line" smooth="yes"/>
			<point x="596" y="459"/>
			<point x="615" y="437"/>
			<point x="636" y="432" type="curve"/>
			<point x="748" y="-127" type="line" smooth="yes"/>
			<point x="752" y="-147"/>
			<point x="764" y="-163"/>
			<point x="786" y="-163" type="curve"/>
			<point x="804" y="-318" type="line"/>
			<point x="908" y="-417"/>
			<point x="989" y="-538"/>
			<point x="1047" y="-652" type="curve" smooth="yes"/>
			<point x="1068" y="-694"/>
			<point x="1091" y="-705"/>
			<point x="1119" y="-705" type="curve" smooth="yes"/>
			<point x="1142" y="-705"/>
			<point x="1176" y="-687"/>
			<point x="1173" y="-636" type="curve" smooth="yes"/>
			<point x="1171" y="-605"/>
			<point x="1170" y="-575"/>
			<point x="1170" y="-546" type="curve" smooth="yes"/>
			<point x="1170" y="-428"/>
			<point x="1185" y="-324"/>
			<point x="1218" y="-236" type="curve"/>
			<point x="1169" y="-80" type="line"/>
			<point x="1180" y="-72"/>
			<point x="1186" y="-60"/>
			<point x="1186" y="-45" type="curve" smooth="yes"/>
			<point x="1186" y="-36"/>
			<point x="1185" y="-27"/>
			<point x="1183" y="-17" type="curve" smooth="yes"/>
			<point x="1065" y="492" type="line"/>
			<point x="1079" y="505"/>
			<point x="1090" y="517"/>
			<point x="1090" y="543" type="curve" smooth="yes"/>
			<point x="1090" y="553"/>
			<point x="1088" y="564"/>
			<point x="1084" y="579" type="curve" smooth="yes"/>
			<point x="959" y="1103" type="line"/>
			<point x="970" y="1112"/>
			<point x="977" y="1127"/>
			<point x="977" y="1147" type="curve" smooth="yes"/>
			<point x="977" y="1155"/>
			<point x="976" y="1163"/>
		</contour>
		<contour>
			<point x="1123" y="-68" type="curve"/>
			<point x="1176" y="-232" type="line"/>
			<point x="1142" y="-320"/>
			<point x="1130" y="-419"/>
			<point x="1130" y="-533" type="curve" smooth="yes"/>
			<point x="1130" y="-572"/>
			<point x="1132" y="-615"/>
			<point x="1136" y="-659" type="curve"/>
			<point x="1047" y="-269" type="line"/>
			<point x="1017" y="-279" type="line"/>
			<point x="1102" y="-667" type="line"/>
			<point x="1038" y="-527"/>
			<point x="953" y="-404"/>
			<point x="846" y="-296" type="curve"/>
			<point x="827" y="-134" type="line"/>
			<point x="865" y="-65"/>
			<point x="928" y="-26"/>
			<point x="1009" y="-26" type="curve" smooth="yes"/>
			<point x="1048" y="-26"/>
			<point x="1090" y="-40"/>
		</contour>
		<contour>
			<point x="1036" y="-310" type="curve" smooth="yes"/>
			<point x="1059" y="-310"/>
			<point x="1079" y="-289"/>
			<point x="1079" y="-263" type="curve" smooth="yes"/>
			<point x="1079" y="-225"/>
			<point x="1052" y="-195"/>
			<point x="1018" y="-195" type="curve" smooth="yes"/>
			<point x="991" y="-195"/>
			<point x="969" y="-217"/>
			<point x="969" y="-244" type="curve" smooth="yes"/>
			<point x="969" y="-280"/>
			<point x="999" y="-310"/>
		</contour>
		<contour>
			<point x="844" y="886" type="curve" smooth="yes"/>
			<point x="881" y="732" type="line" smooth="yes"/>
			<point x="882" y="728"/>
			<point x="882" y="723"/>
			<point x="882" y="720" type="curve" smooth="yes"/>
			<point x="882" y="697"/>
			<point x="865" y="684"/>
			<point x="845" y="684" type="curve" smooth="yes"/>
			<point x="823" y="684"/>
			<point x="798" y="699"/>
			<point x="790" y="732" type="curve" smooth="yes"/>
			<point x="754" y="886" type="line" smooth="yes"/>
			<point x="753" y="890"/>
			<point x="753" y="894"/>
			<point x="753" y="897" type="curve" smooth="yes"/>
			<point x="753" y="919"/>
			<point x="769" y="931"/>
			<point x="788" y="931" type="curve" smooth="yes"/>
			<point x="811" y="931"/>
			<point x="837" y="914"/>
		</contour>
	</outline>
	<guideline x="793" y="32" angle="78.8025"/>
	<guideline x="507" y="686" angle="256.8059"/>
</glyph>
<glyph name="thumbsUpSign" format="2">
	<unicode hex="1F44D"/>
	<advance width="2360"/>
	<outline>
		<contour>
			<point x="180" y="-617" type="curve" smooth="yes"/>
			<point x="182" y="-617"/>
			<point x="184" y="-617"/>
			<point x="186" y="-616" type="curve" smooth="yes"/>
			<point x="320" y="-589"/>
			<point x="558" y="-512"/>
			<point x="753" y="-448" type="curve" smooth="yes"/>
			<point x="799" y="-433"/>
			<point x="842" y="-419"/>
			<point x="881" y="-406" type="curve"/>
			<point x="958" y="-464"/>
			<point x="1058" y="-498"/>
			<point x="1208" y="-498" type="curve" smooth="yes"/>
			<point x="1266" y="-498"/>
			<point x="1358" y="-494"/>
			<point x="1425" y="-487" type="curve" smooth="yes"/>
			<point x="1444" y="-484"/>
			<point x="1454" y="-478"/>
			<point x="1453" y="-470" type="curve"/>
			<point x="1478" y="-489"/>
			<point x="1500" y="-508"/>
			<point x="1518" y="-524" type="curve" smooth="yes"/>
			<point x="1566" y="-565"/>
			<point x="1632" y="-593"/>
			<point x="1702" y="-593" type="curve" smooth="yes"/>
			<point x="1789" y="-593"/>
			<point x="1845" y="-540"/>
			<point x="1858" y="-455" type="curve"/>
			<point x="1934" y="-446"/>
			<point x="1978" y="-407"/>
			<point x="1999" y="-354" type="curve" smooth="yes"/>
			<point x="2016" y="-314"/>
			<point x="2028" y="-256"/>
			<point x="2032" y="-191" type="curve"/>
			<point x="2061" y="-186"/>
			<point x="2090" y="-177"/>
			<point x="2113" y="-160" type="curve" smooth="yes"/>
			<point x="2162" y="-124"/>
			<point x="2183" y="-72"/>
			<point x="2192" y="-18" type="curve" smooth="yes"/>
			<point x="2194" y="0"/>
			<point x="2196" y="20"/>
			<point x="2196" y="39" type="curve" smooth="yes"/>
			<point x="2196" y="76"/>
			<point x="2191" y="113"/>
			<point x="2182" y="136" type="curve"/>
			<point x="2188" y="140"/>
			<point x="2192" y="145"/>
			<point x="2194" y="150" type="curve" smooth="yes"/>
			<point x="2206" y="174"/>
			<point x="2210" y="205"/>
			<point x="2210" y="233" type="curve" smooth="yes"/>
			<point x="2210" y="260"/>
			<point x="2206" y="288"/>
			<point x="2204" y="310" type="curve" smooth="yes"/>
			<point x="2200" y="345"/>
			<point x="2178" y="388"/>
			<point x="2160" y="425" type="curve" smooth="yes"/>
			<point x="2148" y="447"/>
			<point x="2138" y="467"/>
			<point x="2132" y="484" type="curve" smooth="yes"/>
			<point x="2108" y="544"/>
			<point x="2064" y="614"/>
			<point x="1982" y="658" type="curve"/>
			<point x="1932" y="691"/>
			<point x="1768" y="732"/>
			<point x="1629" y="747" type="curve"/>
			<point x="1613" y="819"/>
			<point x="1588" y="930"/>
			<point x="1594" y="1009" type="curve" smooth="yes"/>
			<point x="1599" y="1072"/>
			<point x="1614" y="1131"/>
			<point x="1626" y="1177" type="curve" smooth="yes"/>
			<point x="1631" y="1198"/>
			<point x="1636" y="1217"/>
			<point x="1638" y="1232" type="curve" smooth="yes"/>
			<point x="1644" y="1264"/>
			<point x="1650" y="1307"/>
			<point x="1650" y="1354" type="curve" smooth="yes"/>
			<point x="1650" y="1384"/>
			<point x="1647" y="1417"/>
			<point x="1642" y="1450" type="curve" smooth="yes"/>
			<point x="1619" y="1578"/>
			<point x="1512" y="1681"/>
			<point x="1413" y="1681" type="curve" smooth="yes"/>
			<point x="1322" y="1681"/>
			<point x="1314" y="1582"/>
			<point x="1306" y="1502" type="curve" smooth="yes"/>
			<point x="1302" y="1456"/>
			<point x="1279" y="1388"/>
			<point x="1259" y="1326" type="curve" smooth="yes"/>
			<point x="1248" y="1292" type="line" smooth="yes"/>
			<point x="1238" y="1262"/>
			<point x="1234" y="1216"/>
			<point x="1229" y="1168" type="curve" smooth="yes"/>
			<point x="1222" y="1092"/>
			<point x="1215" y="1007"/>
			<point x="1188" y="951" type="curve" smooth="yes"/>
			<point x="1166" y="906"/>
			<point x="1113" y="829"/>
			<point x="1062" y="791" type="curve" smooth="yes"/>
			<point x="1022" y="761"/>
			<point x="998" y="736"/>
			<point x="960" y="696" type="curve" smooth="yes"/>
			<point x="944" y="678"/>
			<point x="924" y="658"/>
			<point x="899" y="632" type="curve" smooth="yes"/>
			<point x="819" y="552"/>
			<point x="737" y="498"/>
			<point x="683" y="464" type="curve" smooth="yes"/>
			<point x="635" y="434"/>
			<point x="332" y="360"/>
			<point x="193" y="334" type="curve" smooth="yes"/>
			<point x="180" y="331"/>
			<point x="169" y="319"/>
			<point x="169" y="304" type="curve" smooth="yes"/>
			<point x="169" y="288"/>
			<point x="182" y="274"/>
			<point x="199" y="274" type="curve" smooth="yes"/>
			<point x="201" y="274"/>
			<point x="203" y="274"/>
			<point x="205" y="274" type="curve" smooth="yes"/>
			<point x="346" y="302"/>
			<point x="655" y="376"/>
			<point x="715" y="414" type="curve" smooth="yes"/>
			<point x="769" y="448"/>
			<point x="857" y="504"/>
			<point x="941" y="590" type="curve" smooth="yes"/>
			<point x="967" y="616"/>
			<point x="987" y="637"/>
			<point x="1004" y="655" type="curve" smooth="yes"/>
			<point x="1041" y="694"/>
			<point x="1062" y="716"/>
			<point x="1098" y="743" type="curve" smooth="yes"/>
			<point x="1157" y="787"/>
			<point x="1218" y="874"/>
			<point x="1242" y="925" type="curve" smooth="yes"/>
			<point x="1274" y="991"/>
			<point x="1282" y="1086"/>
			<point x="1289" y="1162" type="curve" smooth="yes"/>
			<point x="1294" y="1211"/>
			<point x="1297" y="1250"/>
			<point x="1304" y="1274" type="curve" smooth="yes"/>
			<point x="1316" y="1308" type="line" smooth="yes"/>
			<point x="1336" y="1369"/>
			<point x="1360" y="1443"/>
			<point x="1366" y="1496" type="curve" smooth="yes"/>
			<point x="1372" y="1556"/>
			<point x="1374" y="1621"/>
			<point x="1413" y="1621" type="curve" smooth="yes"/>
			<point x="1480" y="1621"/>
			<point x="1565" y="1540"/>
			<point x="1582" y="1440" type="curve" smooth="yes"/>
			<point x="1588" y="1410"/>
			<point x="1590" y="1382"/>
			<point x="1590" y="1354" type="curve" smooth="yes"/>
			<point x="1590" y="1311"/>
			<point x="1585" y="1273"/>
			<point x="1580" y="1242" type="curve" smooth="yes"/>
			<point x="1577" y="1230"/>
			<point x="1573" y="1213"/>
			<point x="1568" y="1192" type="curve" smooth="yes"/>
			<point x="1556" y="1146"/>
			<point x="1540" y="1082"/>
			<point x="1534" y="1013" type="curve" smooth="yes"/>
			<point x="1527" y="919"/>
			<point x="1559" y="786"/>
			<point x="1575" y="716" type="curve" smooth="yes"/>
			<point x="1579" y="699"/>
			<point x="1589" y="690"/>
			<point x="1607" y="689" type="curve" smooth="yes"/>
			<point x="1744" y="676"/>
			<point x="1914" y="633"/>
			<point x="1952" y="606" type="curve"/>
			<point x="2020" y="570"/>
			<point x="2056" y="516"/>
			<point x="2076" y="462" type="curve" smooth="yes"/>
			<point x="2084" y="442"/>
			<point x="2095" y="420"/>
			<point x="2106" y="398" type="curve" smooth="yes"/>
			<point x="2124" y="361"/>
			<point x="2142" y="327"/>
			<point x="2144" y="304" type="curve" smooth="yes"/>
			<point x="2147" y="282"/>
			<point x="2150" y="257"/>
			<point x="2150" y="233" type="curve" smooth="yes"/>
			<point x="2150" y="209"/>
			<point x="2147" y="190"/>
			<point x="2140" y="176" type="curve" smooth="yes"/>
			<point x="2135" y="166"/>
			<point x="1948" y="130"/>
			<point x="1825" y="130" type="curve" smooth="yes"/>
			<point x="1732" y="130"/>
			<point x="1679" y="164"/>
			<point x="1650" y="182" type="curve" smooth="yes"/>
			<point x="1640" y="188"/>
			<point x="1632" y="193"/>
			<point x="1626" y="195" type="curve" smooth="yes"/>
			<point x="1606" y="201"/>
			<point x="1449" y="224"/>
			<point x="1449" y="285" type="curve" smooth="yes"/>
			<point x="1449" y="329"/>
			<point x="1519" y="365"/>
			<point x="1608" y="365" type="curve" smooth="yes"/>
			<point x="1655" y="365"/>
			<point x="1718" y="358"/>
			<point x="1750" y="351" type="curve" smooth="yes"/>
			<point x="1763" y="348"/>
			<point x="1772" y="346"/>
			<point x="1783" y="346" type="curve" smooth="yes"/>
			<point x="1794" y="347"/>
			<point x="1803" y="350"/>
			<point x="1816" y="357" type="curve" smooth="yes"/>
			<point x="1856" y="378"/>
			<point x="1914" y="395"/>
			<point x="1955" y="395" type="curve" smooth="yes"/>
			<point x="1960" y="395"/>
			<point x="1964" y="395"/>
			<point x="1969" y="394" type="curve" smooth="yes"/>
			<point x="1970" y="394"/>
			<point x="1972" y="394"/>
			<point x="1973" y="394" type="curve" smooth="yes"/>
			<point x="1990" y="394"/>
			<point x="2003" y="408"/>
			<point x="2003" y="424" type="curve" smooth="yes"/>
			<point x="2003" y="450"/>
			<point x="1980" y="455"/>
			<point x="1955" y="455" type="curve" smooth="yes"/>
			<point x="1900" y="455"/>
			<point x="1827" y="433"/>
			<point x="1779" y="405" type="curve"/>
			<point x="1740" y="416"/>
			<point x="1663" y="425"/>
			<point x="1608" y="425" type="curve" smooth="yes"/>
			<point x="1497" y="425"/>
			<point x="1389" y="375"/>
			<point x="1389" y="285" type="curve" smooth="yes"/>
			<point x="1389" y="266"/>
			<point x="1394" y="250"/>
			<point x="1402" y="236" type="curve"/>
			<point x="1367" y="214"/>
			<point x="1347" y="185"/>
			<point x="1347" y="150" type="curve" smooth="yes"/>
			<point x="1347" y="145"/>
			<point x="1347" y="140"/>
			<point x="1348" y="135" type="curve"/>
			<point x="1296" y="119"/>
			<point x="1255" y="80"/>
			<point x="1249" y="28" type="curve" smooth="yes"/>
			<point x="1247" y="14"/>
			<point x="1249" y="5"/>
			<point x="1252" y="-8" type="curve" smooth="yes"/>
			<point x="1263" y="-44"/>
			<point x="1284" y="-87"/>
			<point x="1342" y="-138" type="curve"/>
			<point x="1340" y="-139"/>
			<point x="1338" y="-141"/>
			<point x="1336" y="-143" type="curve" smooth="yes"/>
			<point x="1308" y="-171"/>
			<point x="1286" y="-220"/>
			<point x="1286" y="-269" type="curve" smooth="yes"/>
			<point x="1286" y="-348"/>
			<point x="1325" y="-390"/>
			<point x="1386" y="-426" type="curve" smooth="yes"/>
			<point x="1392" y="-430" type="line"/>
			<point x="1332" y="-435"/>
			<point x="1257" y="-438"/>
			<point x="1208" y="-438" type="curve" smooth="yes"/>
			<point x="1067" y="-438"/>
			<point x="979" y="-408"/>
			<point x="912" y="-354" type="curve" smooth="yes"/>
			<point x="899" y="-344"/>
			<point x="887" y="-341"/>
			<point x="872" y="-346" type="curve" smooth="yes"/>
			<point x="734" y="-391" type="line" smooth="yes"/>
			<point x="539" y="-454"/>
			<point x="304" y="-531"/>
			<point x="174" y="-558" type="curve" smooth="yes"/>
			<point x="160" y="-560"/>
			<point x="150" y="-572"/>
			<point x="150" y="-587" type="curve" smooth="yes"/>
			<point x="150" y="-604"/>
			<point x="164" y="-617"/>
		</contour>
		<contour>
			<point x="847" y="-288" type="curve" smooth="yes"/>
			<point x="864" y="-288"/>
			<point x="877" y="-274"/>
			<point x="877" y="-258" type="curve" smooth="yes"/>
			<point x="877" y="-255"/>
			<point x="876" y="-252"/>
			<point x="876" y="-248" type="curve" smooth="yes"/>
			<point x="864" y="-213"/>
			<point x="856" y="-154"/>
			<point x="856" y="-101" type="curve" smooth="yes"/>
			<point x="856" y="-90"/>
			<point x="856" y="-80"/>
			<point x="857" y="-70" type="curve" smooth="yes"/>
			<point x="859" y="-41"/>
			<point x="867" y="-16"/>
			<point x="875" y="-1" type="curve"/>
			<point x="920" y="-32"/>
			<point x="968" y="-48"/>
			<point x="1024" y="-55" type="curve" smooth="yes"/>
			<point x="1041" y="-57"/>
			<point x="1057" y="-58"/>
			<point x="1070" y="-58" type="curve" smooth="yes"/>
			<point x="1087" y="-58"/>
			<point x="1103" y="-56"/>
			<point x="1116" y="-54" type="curve" smooth="yes"/>
			<point x="1130" y="-51"/>
			<point x="1140" y="-39"/>
			<point x="1140" y="-24" type="curve" smooth="yes"/>
			<point x="1140" y="-8"/>
			<point x="1126" y="6"/>
			<point x="1110" y="6" type="curve" smooth="yes"/>
			<point x="1108" y="6"/>
			<point x="1106" y="6"/>
			<point x="1103" y="5" type="curve" smooth="yes"/>
			<point x="1094" y="4"/>
			<point x="1084" y="2"/>
			<point x="1070" y="2" type="curve" smooth="yes"/>
			<point x="1058" y="2"/>
			<point x="1046" y="3"/>
			<point x="1030" y="5" type="curve" smooth="yes"/>
			<point x="969" y="12"/>
			<point x="923" y="31"/>
			<point x="878" y="75" type="curve" smooth="yes"/>
			<point x="824" y="127"/>
			<point x="788" y="178"/>
			<point x="774" y="224" type="curve" smooth="yes"/>
			<point x="770" y="236"/>
			<point x="759" y="246"/>
			<point x="745" y="246" type="curve" smooth="yes"/>
			<point x="728" y="246"/>
			<point x="715" y="232"/>
			<point x="715" y="216" type="curve" smooth="yes"/>
			<point x="715" y="213"/>
			<point x="716" y="210"/>
			<point x="716" y="207" type="curve" smooth="yes"/>
			<point x="732" y="152"/>
			<point x="773" y="94"/>
			<point x="829" y="38" type="curve"/>
			<point x="812" y="13"/>
			<point x="800" y="-25"/>
			<point x="797" y="-66" type="curve" smooth="yes"/>
			<point x="796" y="-77"/>
			<point x="796" y="-89"/>
			<point x="796" y="-101" type="curve" smooth="yes"/>
			<point x="796" y="-159"/>
			<point x="806" y="-226"/>
			<point x="818" y="-266" type="curve" smooth="yes"/>
			<point x="822" y="-279"/>
			<point x="833" y="-288"/>
		</contour>
		<contour>
			<point x="1702" y="-533" type="curve" smooth="yes"/>
			<point x="1646" y="-533"/>
			<point x="1596" y="-511"/>
			<point x="1558" y="-478" type="curve" smooth="yes"/>
			<point x="1523" y="-448"/>
			<point x="1471" y="-406"/>
			<point x="1416" y="-374" type="curve" smooth="yes"/>
			<point x="1367" y="-346"/>
			<point x="1346" y="-320"/>
			<point x="1346" y="-269" type="curve" smooth="yes"/>
			<point x="1346" y="-239"/>
			<point x="1358" y="-209"/>
			<point x="1374" y="-190" type="curve"/>
			<point x="1408" y="-262"/>
			<point x="1466" y="-305"/>
			<point x="1538" y="-337" type="curve" smooth="yes"/>
			<point x="1584" y="-358"/>
			<point x="1619" y="-379"/>
			<point x="1651" y="-396" type="curve" smooth="yes"/>
			<point x="1702" y="-425"/>
			<point x="1745" y="-449"/>
			<point x="1797" y="-455" type="curve"/>
			<point x="1786" y="-506"/>
			<point x="1754" y="-533"/>
		</contour>
		<contour>
			<point x="1825" y="-397" type="curve" smooth="yes"/>
			<point x="1775" y="-397"/>
			<point x="1740" y="-378"/>
			<point x="1680" y="-344" type="curve" smooth="yes"/>
			<point x="1648" y="-326"/>
			<point x="1611" y="-305"/>
			<point x="1562" y="-283" type="curve" smooth="yes"/>
			<point x="1490" y="-250"/>
			<point x="1440" y="-210"/>
			<point x="1417" y="-137" type="curve" smooth="yes"/>
			<point x="1413" y="-122"/>
			<point x="1406" y="-113"/>
			<point x="1394" y="-103" type="curve" smooth="yes"/>
			<point x="1333" y="-53"/>
			<point x="1316" y="-17"/>
			<point x="1308" y="16" type="curve"/>
			<point x="1310" y="47"/>
			<point x="1336" y="72"/>
			<point x="1377" y="81" type="curve"/>
			<point x="1377" y="82" type="line"/>
			<point x="1383" y="76"/>
			<point x="1389" y="72"/>
			<point x="1396" y="68" type="curve" smooth="yes"/>
			<point x="1432" y="50"/>
			<point x="1456" y="25"/>
			<point x="1474" y="2" type="curve"/>
			<point x="1521" y="-87"/>
			<point x="1572" y="-128"/>
			<point x="1706" y="-157" type="curve" smooth="yes"/>
			<point x="1781" y="-174"/>
			<point x="1899" y="-195"/>
			<point x="1972" y="-195" type="curve"/>
			<point x="1968" y="-251"/>
			<point x="1958" y="-298"/>
			<point x="1943" y="-332" type="curve" smooth="yes"/>
			<point x="1927" y="-372"/>
			<point x="1894" y="-397"/>
		</contour>
		<contour>
			<point x="1973" y="-135" type="curve" smooth="yes"/>
			<point x="1906" y="-135"/>
			<point x="1793" y="-116"/>
			<point x="1720" y="-99" type="curve" smooth="yes"/>
			<point x="1601" y="-72"/>
			<point x="1565" y="-43"/>
			<point x="1524" y="34" type="curve"/>
			<point x="1504" y="62"/>
			<point x="1471" y="98"/>
			<point x="1424" y="122" type="curve" smooth="yes"/>
			<point x="1413" y="127"/>
			<point x="1407" y="136"/>
			<point x="1407" y="150" type="curve" smooth="yes"/>
			<point x="1407" y="163"/>
			<point x="1418" y="178"/>
			<point x="1447" y="192" type="curve"/>
			<point x="1506" y="154"/>
			<point x="1592" y="141"/>
			<point x="1607" y="138" type="curve" smooth="yes"/>
			<point x="1606" y="138"/>
			<point x="1612" y="135"/>
			<point x="1618" y="131" type="curve" smooth="yes"/>
			<point x="1647" y="113"/>
			<point x="1714" y="70"/>
			<point x="1825" y="70" type="curve" smooth="yes"/>
			<point x="1919" y="70"/>
			<point x="2049" y="85"/>
			<point x="2127" y="110" type="curve"/>
			<point x="2132" y="96"/>
			<point x="2136" y="69"/>
			<point x="2136" y="39" type="curve" smooth="yes"/>
			<point x="2136" y="22"/>
			<point x="2135" y="7"/>
			<point x="2132" y="-8" type="curve" smooth="yes"/>
			<point x="2125" y="-52"/>
			<point x="2110" y="-88"/>
			<point x="2077" y="-112" type="curve" smooth="yes"/>
			<point x="2052" y="-130"/>
			<point x="2013" y="-135"/>
		</contour>
	</outline>
</glyph>
<glyph name="E.isol" format="2">
	<advance width="1159"/>
	<outline>
		<contour>
			<point x="438" y="1349" type="line"/>
			<point x="160" y="255" type="line" smooth="yes"/>
			<point x="141" y="180"/>
			<point x="135" y="139"/>
			<point x="135" y="111" type="curve" smooth="yes"/>
			<point x="135" y="35"/>
			<point x="190" y="0"/>
			<point x="265" y="0" type="curve" smooth="yes"/>
			<point x="866" y="0" type="line" smooth="yes"/>
			<point x="898" y="0"/>
			<point x="917" y="16"/>
			<point x="917" y="38" type="curve" smooth="yes"/>
			<point x="917" y="60"/>
			<point x="898" y="75"/>
			<point x="874" y="75" type="curve" smooth="yes"/>
			<point x="270" y="75" type="line" smooth="yes"/>
			<point x="224" y="75"/>
			<point x="211" y="85"/>
			<point x="211" y="116" type="curve" smooth="yes"/>
			<point x="211" y="139"/>
			<point x="217" y="172"/>
			<point x="233" y="235" type="curve" smooth="yes"/>
			<point x="516" y="1345" type="line"/>
		</contour>
		<contour>
			<point x="398" y="1328" type="curve" smooth="yes"/>
			<point x="446" y="1328"/>
			<point x="975" y="1334"/>
			<point x="1086" y="1336" type="curve" smooth="yes"/>
			<point x="1129" y="1337"/>
			<point x="1139" y="1357"/>
			<point x="1139" y="1373" type="curve" smooth="yes"/>
			<point x="1139" y="1394"/>
			<point x="1122" y="1411"/>
			<point x="1100" y="1411" type="curve" smooth="yes"/>
			<point x="1000" y="1411"/>
			<point x="428" y="1403"/>
			<point x="396" y="1401" type="curve" smooth="yes"/>
			<point x="366" y="1399"/>
			<point x="351" y="1384"/>
			<point x="351" y="1365" type="curve" smooth="yes"/>
			<point x="351" y="1343"/>
			<point x="369" y="1328"/>
		</contour>
		<contour>
			<point x="604" y="777" type="curve" smooth="yes"/>
			<point x="354" y="773" type="line"/>
			<point x="343" y="699" type="line"/>
			<point x="454" y="702"/>
			<point x="763" y="703"/>
			<point x="813" y="705" type="curve" smooth="yes"/>
			<point x="841" y="706"/>
			<point x="863" y="718"/>
			<point x="863" y="744" type="curve" smooth="yes"/>
			<point x="863" y="764"/>
			<point x="845" y="780"/>
			<point x="821" y="780" type="curve" smooth="yes"/>
			<point x="791" y="780"/>
			<point x="726" y="779"/>
		</contour>
	</outline>
	<anchor name="bottom" x="471" y="0"/>
	<anchor name="center" x="645" y="727"/>
	<anchor name="ogonek" x="773" y="0"/>
	<anchor name="top" x="791" y="1401"/>
</glyph>
<glyph name="Eogonek.isol" format="2">
	<advance width="1255"/>
	<outline>
		<contour>
			<point x="514" y="1541" type="line"/>
			<point x="169" y="280" type="line" smooth="yes"/>
			<point x="143" y="186"/>
			<point x="135" y="138"/>
			<point x="135" y="106" type="curve" smooth="yes"/>
			<point x="135" y="36"/>
			<point x="184" y="0"/>
			<point x="262" y="0" type="curve" smooth="yes"/>
			<point x="864" y="0" type="line"/>
			<point x="864" y="25" type="line"/>
			<point x="695" y="-109"/>
			<point x="637" y="-202"/>
			<point x="637" y="-286" type="curve" smooth="yes"/>
			<point x="637" y="-344"/>
			<point x="672" y="-386"/>
			<point x="743" y="-386" type="curve" smooth="yes"/>
			<point x="806" y="-386"/>
			<point x="870" y="-354"/>
			<point x="910" y="-315" type="curve" smooth="yes"/>
			<point x="928" y="-298"/>
			<point x="932" y="-287"/>
			<point x="932" y="-280" type="curve" smooth="yes"/>
			<point x="932" y="-263"/>
			<point x="918" y="-255"/>
			<point x="905" y="-255" type="curve" smooth="yes"/>
			<point x="895" y="-255"/>
			<point x="886" y="-259"/>
			<point x="869" y="-270" type="curve" smooth="yes"/>
			<point x="833" y="-294"/>
			<point x="791" y="-309"/>
			<point x="764" y="-309" type="curve" smooth="yes"/>
			<point x="733" y="-309"/>
			<point x="717" y="-297"/>
			<point x="717" y="-266" type="curve" smooth="yes"/>
			<point x="717" y="-205"/>
			<point x="775" y="-117"/>
			<point x="906" y="-6" type="curve" smooth="yes"/>
			<point x="926" y="11"/>
			<point x="934" y="23"/>
			<point x="934" y="40" type="curve" smooth="yes"/>
			<point x="934" y="58"/>
			<point x="917" y="75"/>
			<point x="893" y="75" type="curve" smooth="yes"/>
			<point x="270" y="75" type="line" smooth="yes"/>
			<point x="225" y="75"/>
			<point x="211" y="86"/>
			<point x="211" y="114" type="curve" smooth="yes"/>
			<point x="211" y="140"/>
			<point x="218" y="176"/>
			<point x="240" y="257" type="curve" smooth="yes"/>
			<point x="592" y="1543" type="line"/>
		</contour>
		<contour>
			<point x="473" y="1527" type="curve" smooth="yes"/>
			<point x="523" y="1527"/>
			<point x="1083" y="1533"/>
			<point x="1184" y="1536" type="curve" smooth="yes"/>
			<point x="1217" y="1537"/>
			<point x="1235" y="1552"/>
			<point x="1235" y="1574" type="curve" smooth="yes"/>
			<point x="1235" y="1593"/>
			<point x="1220" y="1611"/>
			<point x="1198" y="1611" type="curve" smooth="yes"/>
			<point x="1097" y="1611"/>
			<point x="509" y="1602"/>
			<point x="475" y="1600" type="curve" smooth="yes"/>
			<point x="444" y="1598"/>
			<point x="427" y="1582"/>
			<point x="427" y="1562" type="curve" smooth="yes"/>
			<point x="427" y="1541"/>
			<point x="444" y="1527"/>
		</contour>
		<contour>
			<point x="653" y="883" type="curve" smooth="yes"/>
			<point x="396" y="879" type="line"/>
			<point x="380" y="804" type="line"/>
			<point x="495" y="807"/>
			<point x="811" y="811"/>
			<point x="864" y="811" type="curve" smooth="yes"/>
			<point x="897" y="811"/>
			<point x="917" y="828"/>
			<point x="917" y="851" type="curve" smooth="yes"/>
			<point x="917" y="869"/>
			<point x="900" y="886"/>
			<point x="876" y="886" type="curve" smooth="yes"/>
			<point x="837" y="886"/>
			<point x="747" y="885"/>
		</contour>
	</outline>
	<anchor name="bottom" x="474" y="0"/>
	<anchor name="center" x="692" y="830"/>
	<anchor name="top" x="880" y="1600"/>
</glyph>
